SplineFontDB: 3.0
FontName: DIN-Medium
FullName: DIN Medium
FamilyName: DIN Medium
Weight: Medium
Version: 1.0
ItalicAngle: 0
UnderlinePosition: -172
UnderlineWidth: 70
Ascent: 1638
Descent: 410
InvalidEm: 0
sfntRevision: 0x00010000
LayerCount: 2
Layer: 0 1 "Back" 1
Layer: 1 1 "Fore" 0
XUID: [1021 209 1773364477 17766]
StyleMap: 0x0040
FSType: 8
OS2Version: 0
OS2_WeightWidthSlopeOnly: 0
OS2_UseTypoMetrics: 0
CreationTime: -2082844800
ModificationTime: 1520945678
PfmFamily: 17
TTFWeight: 500
TTFWidth: 5
LineGap: 0
VLineGap: 0
Panose: 2 2 5 0 0 0 0 0 0 0
OS2TypoAscent: 1470
OS2TypoAOffset: 0
OS2TypoDescent: -432
OS2TypoDOffset: 0
OS2TypoLinegap: 0
OS2WinAscent: 2048
OS2WinAOffset: 0
OS2WinDescent: 432
OS2WinDOffset: 0
HheadAscent: 1470
HheadAOffset: 0
HheadDescent: -452
HheadDOffset: 0
OS2SubXSize: 410
OS2SubYSize: 369
OS2SubXOff: 0
OS2SubYOff: -432
OS2SupXSize: 410
OS2SupYSize: 369
OS2SupXOff: 0
OS2SupYOff: 1260
OS2StrikeYSize: 102
OS2StrikeYPos: 530
OS2Vendor: '    '
OS2UnicodeRanges: 00000000.00000000.00000000.00000000
DEI: 91125
TtTable: prep
NPUSHB
 26
 29
 33
 10
 27
 6
 18
 3
 33
 118
 14
 13
 14
 131
 4
 125
 8
 118
 56
 112
 4
 118
 118
 59
 13
 78
 0
SCANTYPE
PUSHW_1
 828
SCANCTRL
SCVTCI
CALL
CALL
EndTTInstrs
TtTable: fpgm
NPUSHB
 22
 21
 20
 19
 18
 17
 16
 15
 14
 13
 12
 11
 10
 9
 8
 7
 6
 5
 4
 3
 2
 1
 0
FDEF
PUSHB_3
 0
 128
 0
RS
DUP
ROLL
DIV
ROLL
SWAP
WS
FLOOR
ODD
ENDF
FDEF
PUSHB_3
 42
 0
 0
RS
EQ
JROT
PUSHB_1
 0
CALL
IF
SLOOP
IP
EIF
PUSHB_1
 0
CALL
IF
SLOOP
ALIGNRP
EIF
PUSHB_1
 0
CALL
IF
PUSHB_1
 10
LOOPCALL
EIF
PUSHB_1
 1
RS
SRP0
PUSHB_1
 0
CALL
IF
SLOOP
ALIGNRP
EIF
PUSHB_1
 0
CALL
IF
PUSHB_1
 10
LOOPCALL
EIF
ENDF
FDEF
CALL
ENDF
FDEF
CALL
PUSHB_1
 2
LOOPCALL
ENDF
FDEF
PUSHB_1
 2
LOOPCALL
ENDF
FDEF
PUSHB_1
 1
DIV
PUSHB_1
 0
SWAP
WS
PUSHB_2
 1
 3
CINDEX
WS
DUP
GC[cur]
DUP
ROUND[Grey]
SUB
ABS
PUSHB_1
 3
CINDEX
GC[cur]
DUP
ROUND[Grey]
DUP
PUSHB_1
 4
RS
SWAP
SUB
DUP
ABS
PUSHB_2
 64
 64
ROLL
EQ
IF
POP
POP
POP
POP
PUSHB_2
 0
 33
JMPR
EIF
LT
IF
POP
POP

StartChar: .notdef
Encoding: 65536 -1 0
Width: 1536
Flags: W
LayerCount: 2
Fore
SplineSet
256 0 m 1,0,-1
 256 1280 l 1,1,-1
 1280 1280 l 1,2,-1
 1280 0 l 1,3,-1
 256 0 l 1,0,-1
1247 33 m 1,4,-1
 1247 1247 l 1,5,-1
 289 1247 l 1,6,-1
 289 33 l 1,7,-1
 1247 33 l 1,4,-1
EndSplineSet
Validated: 1
EndChar

StartChar: Eth
Encoding: 208 208 3
Width: 1401
Flags: W
LayerCount: 2
Fore
SplineSet
1264 729 m 0,0,1
 1264 552 1264 552 1258 470 c 128,-1,2
 1252 388 1252 388 1229 322 c 128,-1,3
 1206 256 1206 256 1153 193 c 0,4,5
 1079 102 1079 102 973 51 c 128,-1,6
 867 0 867 0 735 0 c 2,7,-1
 229 0 l 1,8,-1
 229 651 l 1,9,-1
 78 651 l 1,10,-1
 78 821 l 1,11,-1
 229 821 l 1,12,-1
 229 1458 l 1,13,-1
 741 1458 l 2,14,15
 1003 1458 1003 1458 1153 1264 c 0,16,17
 1196 1208 1196 1208 1217.5 1160.5 c 128,-1,18
 1239 1113 1239 1113 1250 1051.5 c 128,-1,19
 1261 990 1261 990 1262.5 925.5 c 128,-1,20
 1264 861 1264 861 1264 729 c 0,0,1
1042 723 m 0,21,22
 1042 932 1042 932 1031 1006 c 128,-1,23
 1020 1080 1020 1080 979 1135 c 0,24,25
 930 1202 930 1202 868 1232 c 128,-1,26
 806 1262 806 1262 715 1262 c 2,27,-1
 451 1262 l 1,28,-1
 451 821 l 1,29,-1
 733 821 l 1,30,-1
 733 651 l 1,31,-1
 451 651 l 1,32,-1
 451 197 l 1,33,-1
 715 197 l 2,34,35
 899 197 899 197 987 326 c 0,36,37
 1023 379 1023 379 1032.5 446 c 128,-1,38
 1042 513 1042 513 1042 723 c 0,21,22
EndSplineSet
Validated: 1
EndChar

StartChar: eth
Encoding: 240 240 4
Width: 1100
Flags: W
LayerCount: 2
Fore
SplineSet
975 510 m 0,0,1
 975 371 975 371 949 275 c 128,-1,2
 923 179 923 179 854 109 c 0,3,4
 740 -12 740 -12 549 -12 c 256,5,6
 358 -12 358 -12 246 109 c 0,7,8
 200 155 200 155 172.5 216 c 128,-1,9
 145 277 145 277 135 346 c 128,-1,10
 125 415 125 415 125 510 c 0,11,12
 125 648 125 648 150 743.5 c 128,-1,13
 175 839 175 839 246 911 c 0,14,15
 323 993 323 993 459 1016 c 0,16,17
 492 1022 492 1022 528 1022 c 0,18,19
 571 1022 571 1022 614 1012 c 1,20,-1
 522 1178 l 1,21,-1
 285 1178 l 1,22,-1
 285 1325 l 1,23,-1
 444 1325 l 1,24,-1
 365 1468 l 1,25,-1
 586 1468 l 1,26,-1
 666 1325 l 1,27,-1
 844 1325 l 1,28,-1
 844 1178 l 1,29,-1
 741 1178 l 1,30,-1
 846 985 l 2,31,32
 896 893 896 893 925 819.5 c 128,-1,33
 954 746 954 746 964.5 675 c 128,-1,34
 975 604 975 604 975 510 c 0,0,1
766 510 m 0,35,36
 766 570 766 570 761.5 620 c 128,-1,37
 757 670 757 670 742 713.5 c 128,-1,38
 727 757 727 757 698 786 c 0,39,40
 640 846 640 846 549 846 c 0,41,42
 461 846 461 846 401 786 c 0,43,44
 360 743 360 743 347 674.5 c 128,-1,45
 334 606 334 606 334 510 c 0,46,47
 334 449 334 449 338.5 399.5 c 128,-1,48
 343 350 343 350 358 306 c 128,-1,49
 373 262 373 262 401 233 c 0,50,51
 462 174 462 174 549 174 c 0,52,53
 639 174 639 174 698 233 c 0,54,55
 727 262 727 262 742 306 c 128,-1,56
 757 350 757 350 761.5 399.5 c 128,-1,57
 766 449 766 449 766 510 c 0,35,36
EndSplineSet
Validated: 1
EndChar

StartChar: Lslash
Encoding: 65539 -1 5
Width: 1202
Flags: W
LayerCount: 2
Fore
SplineSet
1141 0 m 1,0,-1
 219 0 l 1,1,-1
 219 545 l 1,2,-1
 78 455 l 1,3,-1
 78 645 l 1,4,-1
 219 733 l 1,5,-1
 219 1458 l 1,6,-1
 440 1458 l 1,7,-1
 440 872 l 1,8,-1
 729 1055 l 1,9,-1
 729 868 l 1,10,-1
 440 686 l 1,11,-1
 440 199 l 1,12,-1
 1141 199 l 1,13,-1
 1141 0 l 1,0,-1
EndSplineSet
Validated: 1
EndChar

StartChar: lslash
Encoding: 65540 -1 6
Width: 668
Flags: W
LayerCount: 2
Fore
SplineSet
602 0 m 1,0,-1
 473 0 l 2,1,2
 331 0 331 0 259.5 81.5 c 128,-1,3
 188 163 188 163 188 287 c 2,4,-1
 188 657 l 1,5,-1
 68 584 l 1,6,-1
 68 762 l 1,7,-1
 188 836 l 1,8,-1
 188 1458 l 1,9,-1
 397 1458 l 1,10,-1
 397 963 l 1,11,-1
 541 1051 l 1,12,-1
 541 874 l 1,13,-1
 397 784 l 1,14,-1
 397 299 l 2,15,16
 397 237 397 237 423 207.5 c 128,-1,17
 449 178 449 178 510 178 c 2,18,-1
 602 178 l 1,19,-1
 602 0 l 1,0,-1
EndSplineSet
Validated: 1
EndChar

StartChar: Thorn
Encoding: 222 222 11
Width: 1305
Flags: W
LayerCount: 2
Fore
SplineSet
1210 735 m 256,0,1
 1210 639 1210 639 1177.5 559 c 128,-1,2
 1145 479 1145 479 1084 420.5 c 128,-1,3
 1023 362 1023 362 934.5 328.5 c 128,-1,4
 846 295 846 295 743 295 c 2,5,-1
 412 295 l 1,6,-1
 412 0 l 1,7,-1
 190 0 l 1,8,-1
 190 1458 l 1,9,-1
 412 1458 l 1,10,-1
 412 1178 l 1,11,-1
 743 1178 l 2,12,13
 846 1178 846 1178 935 1144.5 c 128,-1,14
 1024 1111 1024 1111 1084.5 1052 c 128,-1,15
 1145 993 1145 993 1177.5 912 c 128,-1,16
 1210 831 1210 831 1210 735 c 256,0,1
987 735 m 0,17,18
 987 849 987 849 917 914 c 128,-1,19
 847 979 847 979 729 979 c 2,20,-1
 412 979 l 1,21,-1
 412 494 l 1,22,-1
 729 494 l 2,23,24
 847 494 847 494 917 558 c 128,-1,25
 987 622 987 622 987 735 c 0,17,18
EndSplineSet
Validated: 1
EndChar

StartChar: thorn
Encoding: 254 254 12
Width: 1135
Flags: W
LayerCount: 2
Fore
SplineSet
1016 520 m 256,0,1
 1016 422 1016 422 1008 346 c 128,-1,2
 1000 270 1000 270 973.5 199 c 128,-1,3
 947 128 947 128 899 80 c 0,4,5
 856 37 856 37 790 12.5 c 128,-1,6
 724 -12 724 -12 647 -12 c 0,7,8
 561 -12 561 -12 494.5 15.5 c 128,-1,9
 428 43 428 43 375 106 c 1,10,-1
 375 -420 l 1,11,-1
 166 -420 l 1,12,-1
 166 1458 l 1,13,-1
 375 1458 l 1,14,-1
 375 934 l 1,15,16
 429 998 429 998 494.5 1024.5 c 128,-1,17
 560 1051 560 1051 647 1051 c 0,18,19
 724 1051 724 1051 790.5 1026 c 128,-1,20
 857 1001 857 1001 899 958 c 0,21,22
 947 910 947 910 973.5 839.5 c 128,-1,23
 1000 769 1000 769 1008 693.5 c 128,-1,24
 1016 618 1016 618 1016 520 c 256,0,1
807 520 m 0,25,26
 807 626 807 626 791 700.5 c 128,-1,27
 775 775 775 775 727.5 819.5 c 128,-1,28
 680 864 680 864 592 864 c 0,29,30
 503 864 503 864 455 819 c 128,-1,31
 407 774 407 774 391 700 c 128,-1,32
 375 626 375 626 375 520 c 256,33,34
 375 414 375 414 391 339.5 c 128,-1,35
 407 265 407 265 455 219.5 c 128,-1,36
 503 174 503 174 592 174 c 0,37,38
 720 174 720 174 763.5 265.5 c 128,-1,39
 807 357 807 357 807 520 c 0,25,26
EndSplineSet
Validated: 1
EndChar

StartChar: onehalf
Encoding: 189 189 15
Width: 1694
Flags: W
LayerCount: 2
Fore
SplineSet
1602 0 m 1,0,-1
 1071 0 l 1,1,-1
 1071 141 l 1,2,-1
 1399 522 l 2,3,4
 1444 575 1444 575 1444 629 c 0,5,6
 1444 680 1444 680 1415.5 710.5 c 128,-1,7
 1387 741 1387 741 1335 741 c 0,8,9
 1288 741 1288 741 1257.5 715 c 128,-1,10
 1227 689 1227 689 1227 629 c 1,11,-1
 1071 629 l 1,12,13
 1071 745 1071 745 1145.5 814 c 128,-1,14
 1220 883 1220 883 1335 883 c 0,15,16
 1453 883 1453 883 1527.5 814 c 128,-1,17
 1602 745 1602 745 1602 629 c 0,18,19
 1602 571 1602 571 1581 530 c 128,-1,20
 1560 489 1560 489 1507 428 c 2,21,-1
 1260 141 l 1,22,-1
 1602 141 l 1,23,-1
 1602 0 l 1,0,-1
1204 1458 m 1,24,-1
 518 0 l 1,25,-1
 352 0 l 1,26,-1
 1038 1458 l 1,27,-1
 1204 1458 l 1,24,-1
418 584 m 1,28,-1
 260 584 l 1,29,-1
 260 1282 l 1,30,-1
 82 1126 l 1,31,-1
 82 1305 l 1,32,-1
 260 1458 l 1,33,-1
 418 1458 l 1,34,-1
 418 584 l 1,28,-1
EndSplineSet
Validated: 1
EndChar

StartChar: onequarter
Encoding: 188 188 16
Width: 1655
Flags: W
LayerCount: 2
Fore
SplineSet
1573 125 m 1,0,-1
 1491 125 l 1,1,-1
 1491 0 l 1,2,-1
 1339 0 l 1,3,-1
 1339 125 l 1,4,-1
 983 125 l 1,5,-1
 983 270 l 1,6,-1
 1284 874 l 1,7,-1
 1454 874 l 1,8,-1
 1153 270 l 1,9,-1
 1339 270 l 1,10,-1
 1339 440 l 1,11,-1
 1491 440 l 1,12,-1
 1491 270 l 1,13,-1
 1573 270 l 1,14,-1
 1573 125 l 1,0,-1
1221 1458 m 1,15,-1
 535 0 l 1,16,-1
 369 0 l 1,17,-1
 1055 1458 l 1,18,-1
 1221 1458 l 1,15,-1
418 584 m 1,19,-1
 260 584 l 1,20,-1
 260 1282 l 1,21,-1
 82 1126 l 1,22,-1
 82 1305 l 1,23,-1
 260 1458 l 1,24,-1
 418 1458 l 1,25,-1
 418 584 l 1,19,-1
EndSplineSet
Validated: 1
EndChar

StartChar: onesuperior
Encoding: 185 185 17
Width: 567
Flags: W
LayerCount: 2
Fore
SplineSet
418 584 m 1,0,-1
 260 584 l 1,1,-1
 260 1282 l 1,2,-1
 82 1126 l 1,3,-1
 82 1305 l 1,4,-1
 260 1458 l 1,5,-1
 418 1458 l 1,6,-1
 418 584 l 1,0,-1
EndSplineSet
Validated: 1
EndChar

StartChar: threequarters
Encoding: 190 190 18
Width: 1729
Flags: W
LayerCount: 2
Fore
SplineSet
1647 125 m 1,0,-1
 1565 125 l 1,1,-1
 1565 0 l 1,2,-1
 1415 0 l 1,3,-1
 1415 125 l 1,4,-1
 1059 125 l 1,5,-1
 1059 270 l 1,6,-1
 1358 874 l 1,7,-1
 1530 874 l 1,8,-1
 1229 270 l 1,9,-1
 1415 270 l 1,10,-1
 1415 440 l 1,11,-1
 1565 440 l 1,12,-1
 1565 270 l 1,13,-1
 1647 270 l 1,14,-1
 1647 125 l 1,0,-1
1307 1458 m 1,15,-1
 621 0 l 1,16,-1
 455 0 l 1,17,-1
 1141 1458 l 1,18,-1
 1307 1458 l 1,15,-1
649 836 m 0,19,20
 649 711 649 711 570.5 642 c 128,-1,21
 492 573 492 573 373 573 c 0,22,23
 319 573 319 573 267.5 588.5 c 128,-1,24
 216 604 216 604 178 634.5 c 128,-1,25
 140 665 140 665 117 714 c 128,-1,26
 94 763 94 763 92 831 c 1,27,-1
 250 831 l 1,28,29
 251 776 251 776 286.5 745.5 c 128,-1,30
 322 715 322 715 373 715 c 0,31,32
 426 715 426 715 459 748 c 128,-1,33
 492 781 492 781 492 840 c 0,34,35
 492 895 492 895 460 929 c 128,-1,36
 428 963 428 963 367 963 c 2,37,-1
 344 963 l 1,38,-1
 344 1098 l 1,39,-1
 367 1098 l 2,40,41
 423 1098 423 1098 452 1129.5 c 128,-1,42
 481 1161 481 1161 481 1210 c 0,43,44
 481 1265 481 1265 449 1295 c 128,-1,45
 417 1325 417 1325 371 1325 c 0,46,47
 323 1325 323 1325 293 1296.5 c 128,-1,48
 263 1268 263 1268 260 1219 c 1,49,-1
 104 1219 l 1,50,51
 107 1295 107 1295 142.5 1351 c 128,-1,52
 178 1407 178 1407 238 1436.5 c 128,-1,53
 298 1466 298 1466 371 1466 c 0,54,55
 487 1466 487 1466 562 1396.5 c 128,-1,56
 637 1327 637 1327 637 1217 c 0,57,58
 637 1088 637 1088 535 1034 c 1,59,60
 649 974 649 974 649 836 c 0,19,20
EndSplineSet
Validated: 1
EndChar

StartChar: threesuperior
Encoding: 179 179 19
Width: 741
Flags: W
LayerCount: 2
Fore
SplineSet
649 836 m 0,0,1
 649 711 649 711 570.5 642 c 128,-1,2
 492 573 492 573 373 573 c 0,3,4
 319 573 319 573 267.5 588.5 c 128,-1,5
 216 604 216 604 178 634.5 c 128,-1,6
 140 665 140 665 117 714 c 128,-1,7
 94 763 94 763 92 831 c 1,8,-1
 250 831 l 1,9,10
 251 776 251 776 286.5 745.5 c 128,-1,11
 322 715 322 715 373 715 c 0,12,13
 426 715 426 715 459 748 c 128,-1,14
 492 781 492 781 492 840 c 0,15,16
 492 895 492 895 460 929 c 128,-1,17
 428 963 428 963 367 963 c 2,18,-1
 344 963 l 1,19,-1
 344 1098 l 1,20,-1
 367 1098 l 2,21,22
 423 1098 423 1098 452 1129.5 c 128,-1,23
 481 1161 481 1161 481 1210 c 0,24,25
 481 1265 481 1265 449 1295 c 128,-1,26
 417 1325 417 1325 371 1325 c 0,27,28
 323 1325 323 1325 293 1296.5 c 128,-1,29
 263 1268 263 1268 260 1219 c 1,30,-1
 104 1219 l 1,31,32
 107 1295 107 1295 142.5 1351 c 128,-1,33
 178 1407 178 1407 238 1436.5 c 128,-1,34
 298 1466 298 1466 371 1466 c 0,35,36
 487 1466 487 1466 562 1396.5 c 128,-1,37
 637 1327 637 1327 637 1217 c 0,38,39
 637 1088 637 1088 535 1034 c 1,40,41
 649 974 649 974 649 836 c 0,0,1
EndSplineSet
Validated: 1
EndChar

StartChar: twosuperior
Encoding: 178 178 20
Width: 717
Flags: W
LayerCount: 2
Fore
SplineSet
625 584 m 1,0,-1
 92 584 l 1,1,-1
 92 725 l 1,2,-1
 422 1106 l 2,3,4
 467 1159 467 1159 467 1212 c 0,5,6
 467 1263 467 1263 438.5 1294 c 128,-1,7
 410 1325 410 1325 358 1325 c 0,8,9
 313 1325 313 1325 281.5 1298 c 128,-1,10
 250 1271 250 1271 250 1212 c 1,11,-1
 92 1212 l 1,12,13
 92 1328 92 1328 167 1397 c 128,-1,14
 242 1466 242 1466 358 1466 c 0,15,16
 476 1466 476 1466 550.5 1398 c 128,-1,17
 625 1330 625 1330 625 1212 c 0,18,19
 625 1154 625 1154 604 1113.5 c 128,-1,20
 583 1073 583 1073 530 1012 c 2,21,-1
 283 725 l 1,22,-1
 625 725 l 1,23,-1
 625 584 l 1,0,-1
EndSplineSet
Validated: 1
EndChar

StartChar: brokenbar
Encoding: 166 166 21
Width: 705
Flags: W
LayerCount: 2
Fore
SplineSet
451 893 m 1,0,-1
 242 893 l 1,1,-1
 242 1610 l 1,2,-1
 451 1610 l 1,3,-1
 451 893 l 1,0,-1
451 -152 m 1,4,-1
 242 -152 l 1,5,-1
 242 565 l 1,6,-1
 451 565 l 1,7,-1
 451 -152 l 1,4,-1
EndSplineSet
Validated: 1
EndChar

StartChar: minus
Encoding: 173 173 22
Width: 1092
Flags: W
LayerCount: 2
Fore
SplineSet
987 471 m 1,0,-1
 104 471 l 1,1,-1
 104 666 l 1,2,-1
 987 666 l 1,3,-1
 987 471 l 1,0,-1
EndSplineSet
Validated: 1
EndChar

StartChar: multiply
Encoding: 215 215 23
Width: 1092
Flags: W
LayerCount: 2
Fore
SplineSet
975 270 m 1,0,-1
 844 141 l 1,1,-1
 545 438 l 1,2,-1
 248 141 l 1,3,-1
 117 270 l 1,4,-1
 416 569 l 1,5,-1
 117 868 l 1,6,-1
 248 999 l 1,7,-1
 545 700 l 1,8,-1
 844 999 l 1,9,-1
 975 868 l 1,10,-1
 676 569 l 1,11,-1
 975 270 l 1,0,-1
EndSplineSet
Validated: 1
EndChar

StartChar: exclam
Encoding: 33 33 25
Width: 1800
Flags: W
LayerCount: 2
Fore
SplineSet
502 1458 m 1,0,-1
 502 434 l 1,1,-1
 248 434 l 1,2,-1
 248 1458 l 1,3,-1
 502 1458 l 1,0,-1
489 0 m 1,4,-1
 260 0 l 1,5,-1
 260 223 l 1,6,-1
 489 223 l 1,7,-1
 489 0 l 1,4,-1
EndSplineSet
Validated: 1
EndChar

StartChar: quotedbl
Encoding: 34 34 26
Width: 1800
Flags: W
LayerCount: 2
Fore
SplineSet
750 1067 m 1,0,-1
 543 1067 l 1,1,-1
 543 1458 l 1,2,-1
 750 1458 l 1,3,-1
 750 1067 l 1,0,-1
367 1067 m 1,4,-1
 160 1067 l 1,5,-1
 160 1458 l 1,6,-1
 367 1458 l 1,7,-1
 367 1067 l 1,4,-1
EndSplineSet
Validated: 1
EndChar

StartChar: numbersign
Encoding: 35 35 27
Width: 1800
Flags: W
LayerCount: 2
Fore
SplineSet
1276 872 m 1,0,-1
 1087 872 l 1,1,-1
 1047 618 l 1,2,-1
 1208 618 l 1,3,-1
 1208 426 l 1,4,-1
 1016 426 l 1,5,-1
 948 0 l 1,6,-1
 731 0 l 1,7,-1
 799 426 l 1,8,-1
 518 426 l 1,9,-1
 453 0 l 1,10,-1
 233 0 l 1,11,-1
 301 426 l 1,12,-1
 139 426 l 1,13,-1
 139 618 l 1,14,-1
 332 618 l 1,15,-1
 373 872 l 1,16,-1
 207 872 l 1,17,-1
 207 1065 l 1,18,-1
 401 1065 l 1,19,-1
 465 1466 l 1,20,-1
 684 1466 l 1,21,-1
 621 1065 l 1,22,-1
 899 1065 l 1,23,-1
 963 1466 l 1,24,-1
 1180 1466 l 1,25,-1
 1116 1065 l 1,26,-1
 1276 1065 l 1,27,-1
 1276 872 l 1,0,-1
868 872 m 1,28,-1
 590 872 l 1,29,-1
 549 618 l 1,30,-1
 829 618 l 1,31,-1
 868 872 l 1,28,-1
EndSplineSet
Validated: 1
EndChar

StartChar: dollar
Encoding: 36 36 28
Width: 1245
Flags: W
LayerCount: 2
Fore
SplineSet
1139 416 m 0,0,1
 1139 297 1139 297 1083.5 205 c 128,-1,2
 1028 113 1028 113 928 59.5 c 128,-1,3
 828 6 828 6 696 -6 c 1,4,-1
 696 -233 l 1,5,-1
 528 -233 l 1,6,-1
 528 -12 l 1,7,8
 455 -11.5 455 -11.5 393.5 0 c 128,-1,9
 332 11.5 332 11.5 272 36.75 c 128,-1,10
 212 62 212 62 162 96.5 c 128,-1,11
 112 131 112 131 61 180 c 1,12,-1
 209 326 l 1,13,14
 280 255 280 255 361 223.5 c 128,-1,15
 442 192 442 192 547 186 c 1,16,-1
 547 641 l 1,17,-1
 494 647 l 2,18,19
 406 659 406 659 337 689.5 c 128,-1,20
 268 720 268 720 219 764 c 0,21,22
 111 864 111 864 111 1042 c 0,23,24
 111 1159 111 1159 161 1250.5 c 128,-1,25
 211 1342 211 1342 306 1398 c 128,-1,26
 401 1454 401 1454 528 1466 c 1,27,-1
 528 1651 l 1,28,-1
 696 1651 l 1,29,-1
 696 1468 l 1,30,31
 816 1461 816 1461 910.5 1421.5 c 128,-1,32
 1005 1382 1005 1382 1087 1305 c 1,33,-1
 946 1165 l 1,34,35
 842 1263 842 1263 678 1276 c 1,36,-1
 678 834 l 1,37,-1
 748 823 l 2,38,39
 817 812 817 812 865 798 c 128,-1,40
 913 784 913 784 950 764 c 128,-1,41
 987 744 987 744 1020 715 c 0,42,43
 1139 611 1139 611 1139 416 c 0,0,1
547 848 m 1,44,-1
 547 1274 l 1,45,46
 442 1264 442 1264 384 1203 c 128,-1,47
 326 1142 326 1142 326 1051 c 0,48,49
 326 964 326 964 381 915 c 0,50,51
 442 861 442 861 547 848 c 1,44,-1
920 410 m 0,52,53
 920 509 920 509 862 561 c 0,54,55
 827 593 827 593 788 604 c 128,-1,56
 749 615 749 615 678 625 c 1,57,-1
 678 190 l 1,58,59
 792 202 792 202 856 259 c 128,-1,60
 920 316 920 316 920 410 c 0,52,53
EndSplineSet
Validated: 524289
EndChar

StartChar: percent
Encoding: 37 37 29
Width: 1724
Flags: W
LayerCount: 2
Fore
SplineSet
1606 266 m 2,0,1
 1606 138 1606 138 1524.5 62 c 128,-1,2
 1443 -14 1443 -14 1319 -14 c 256,3,4
 1195 -14 1195 -14 1113.5 62 c 128,-1,5
 1032 138 1032 138 1032 266 c 2,6,-1
 1032 473 l 2,7,8
 1032 558 1032 558 1069.5 622 c 128,-1,9
 1107 686 1107 686 1173.5 720 c 128,-1,10
 1240 754 1240 754 1319 754 c 256,11,12
 1398 754 1398 754 1464.5 720 c 128,-1,13
 1531 686 1531 686 1568.5 622 c 128,-1,14
 1606 558 1606 558 1606 473 c 2,15,-1
 1606 266 l 2,0,1
1288 1458 m 1,16,-1
 602 0 l 1,17,-1
 434 0 l 1,18,-1
 1122 1458 l 1,19,-1
 1288 1458 l 1,16,-1
692 985 m 2,20,21
 692 899 692 899 654 836.5 c 128,-1,22
 616 774 616 774 551.5 740.5 c 128,-1,23
 487 707 487 707 406 707 c 0,24,25
 324 707 324 707 259.5 740.5 c 128,-1,26
 195 774 195 774 157 836.5 c 128,-1,27
 119 899 119 899 119 985 c 2,28,-1
 119 1192 l 2,29,30
 119 1277 119 1277 156.5 1341 c 128,-1,31
 194 1405 194 1405 260.5 1439 c 128,-1,32
 327 1473 327 1473 406 1473 c 0,33,34
 529 1473 529 1473 610.5 1396.5 c 128,-1,35
 692 1320 692 1320 692 1192 c 2,36,-1
 692 985 l 2,20,21
1448 272 m 2,37,-1
 1448 467 l 2,38,39
 1448 539 1448 539 1415.5 576.5 c 128,-1,40
 1383 614 1383 614 1319 614 c 0,41,42
 1190 614 1190 614 1190 467 c 2,43,-1
 1190 272 l 2,44,45
 1190 125 1190 125 1319 125 c 0,46,47
 1383 125 1383 125 1415.5 162.5 c 128,-1,48
 1448 200 1448 200 1448 272 c 2,37,-1
535 991 m 2,49,-1
 535 1186 l 2,50,51
 535 1258 535 1258 502.5 1295.5 c 128,-1,52
 470 1333 470 1333 406 1333 c 0,53,54
 276 1333 276 1333 276 1186 c 2,55,-1
 276 991 l 2,56,57
 276 846 276 846 406 846 c 0,58,59
 471 846 471 846 503 883 c 128,-1,60
 535 920 535 920 535 991 c 2,49,-1
EndSplineSet
Validated: 1
EndChar

StartChar: ampersand
Encoding: 38 38 30
Width: 1495
Flags: W
LayerCount: 2
Fore
SplineSet
1401 0 m 1,0,-1
 1133 0 l 1,1,-1
 1014 143 l 1,2,3
 935 77 935 77 845 32.5 c 128,-1,4
 755 -12 755 -12 610 -12 c 0,5,6
 387 -12 387 -12 263 105 c 128,-1,7
 139 222 139 222 139 422 c 0,8,9
 139 517 139 517 179 591.5 c 128,-1,10
 219 666 219 666 277 718 c 128,-1,11
 335 770 335 770 428 834 c 1,12,13
 357 915 357 915 316.5 987 c 128,-1,14
 276 1059 276 1059 276 1147 c 0,15,16
 276 1240 276 1240 320 1313.5 c 128,-1,17
 364 1387 364 1387 445 1428.5 c 128,-1,18
 526 1470 526 1470 633 1470 c 0,19,20
 736 1470 736 1470 814 1428 c 128,-1,21
 892 1386 892 1386 935.5 1311.5 c 128,-1,22
 979 1237 979 1237 979 1145 c 0,23,24
 979 1064 979 1064 938.5 1001.5 c 128,-1,25
 898 939 898 939 823 887 c 0,26,27
 821 887 821 887 717 813 c 1,28,-1
 1024 446 l 1,29,30
 1065 503 1065 503 1082.5 570.5 c 128,-1,31
 1100 638 1100 638 1102 739 c 1,32,-1
 1303 739 l 1,33,34
 1300 644 1300 644 1283.5 563.5 c 128,-1,35
 1267 483 1267 483 1235.5 414 c 128,-1,36
 1204 345 1204 345 1157 291 c 1,37,-1
 1401 0 l 1,0,-1
778 1143 m 0,38,39
 778 1204 778 1204 737 1246 c 128,-1,40
 696 1288 696 1288 633 1288 c 0,41,42
 566 1288 566 1288 527.5 1247.5 c 128,-1,43
 489 1207 489 1207 489 1145 c 0,44,45
 489 1103 489 1103 515.5 1058.5 c 128,-1,46
 542 1014 542 1014 602 944 c 1,47,48
 606 946 606 946 633 964.5 c 128,-1,49
 660 983 660 983 672 991 c 0,50,51
 778 1064 778 1064 778 1143 c 0,38,39
889 291 m 1,52,-1
 543 702 l 1,53,54
 483 662 483 662 439.5 623.5 c 128,-1,55
 396 585 396 585 371 537 c 128,-1,56
 346 489 346 489 346 426 c 0,57,58
 346 318 346 318 421.5 248 c 128,-1,59
 497 178 497 178 610 178 c 0,60,61
 686 178 686 178 753.5 204 c 128,-1,62
 821 230 821 230 889 291 c 1,52,-1
EndSplineSet
Validated: 1
EndChar

StartChar: quotesingle
Encoding: 39 39 31
Width: 526
Flags: W
LayerCount: 2
Fore
SplineSet
367 1067 m 1,0,-1
 160 1067 l 1,1,-1
 160 1458 l 1,2,-1
 367 1458 l 1,3,-1
 367 1067 l 1,0,-1
EndSplineSet
Validated: 1
EndChar

StartChar: parenleft
Encoding: 40 40 32
Width: 649
Flags: W
LayerCount: 2
Fore
SplineSet
530 -51 m 1,0,-1
 389 -193 l 1,1,2
 358 -161 358 -161 324 -126.5 c 128,-1,3
 290 -92 290 -92 267 -63.5 c 128,-1,4
 244 -35 244 -35 223 2 c 0,5,6
 194 54 194 54 185 110 c 128,-1,7
 176 166 176 166 176 240 c 2,8,-1
 176 1219 l 2,9,10
 176 1293 176 1293 185 1348.5 c 128,-1,11
 194 1404 194 1404 223 1456 c 0,12,13
 244 1493 244 1493 267 1521.5 c 128,-1,14
 290 1550 290 1550 324 1585 c 128,-1,15
 358 1620 358 1620 389 1651 c 1,16,-1
 530 1509 l 1,17,18
 508 1487 508 1487 485.5 1465 c 128,-1,19
 463 1443 463 1443 447 1423 c 128,-1,20
 431 1403 431 1403 416 1374 c 0,21,22
 385 1316 385 1316 385 1206 c 2,23,-1
 385 252 l 2,24,25
 385 142 385 142 416 84 c 0,26,27
 432 54 432 54 449.5 32.5 c 128,-1,28
 467 11 467 11 486.5 -8.5 c 128,-1,29
 506 -28 506 -28 530 -51 c 1,0,-1
EndSplineSet
Validated: 1
EndChar

StartChar: parenright
Encoding: 41 41 33
Width: 649
Flags: W
LayerCount: 2
Fore
SplineSet
475 240 m 2,0,1
 475 165 475 165 465 109 c 128,-1,2
 455 53 455 53 426 2 c 0,3,4
 387 -68 387 -68 262 -193 c 1,5,-1
 119 -49 l 1,6,7
 136 -32 136 -32 150 -18 c 128,-1,8
 164 -4 164 -4 180 14 c 128,-1,9
 196 32 196 32 210 52 c 128,-1,10
 224 72 224 72 231 86 c 0,11,12
 262 144 262 144 262 252 c 2,13,-1
 262 1206 l 2,14,15
 262 1314 262 1314 231 1372 c 0,16,17
 211 1411 211 1411 185 1440 c 128,-1,18
 159 1469 159 1469 119 1507 c 1,19,-1
 262 1651 l 1,20,21
 387 1526 387 1526 426 1456 c 0,22,23
 455 1405 455 1405 465 1349.5 c 128,-1,24
 475 1294 475 1294 475 1219 c 2,25,-1
 475 240 l 2,0,1
EndSplineSet
Validated: 1
EndChar

StartChar: asterisk
Encoding: 42 42 34
Width: 993
Flags: W
LayerCount: 2
Fore
SplineSet
868 954 m 1,0,-1
 793 821 l 1,1,-1
 565 963 l 1,2,-1
 573 694 l 1,3,-1
 420 694 l 1,4,-1
 428 963 l 1,5,-1
 201 821 l 1,6,-1
 125 954 l 1,7,-1
 360 1079 l 1,8,-1
 125 1206 l 1,9,-1
 201 1339 l 1,10,-1
 428 1198 l 1,11,-1
 420 1464 l 1,12,-1
 573 1464 l 1,13,-1
 565 1198 l 1,14,-1
 793 1339 l 1,15,-1
 868 1206 l 1,16,-1
 633 1079 l 1,17,-1
 868 954 l 1,0,-1
EndSplineSet
Validated: 1
EndChar

StartChar: plus
Encoding: 43 43 35
Width: 1092
Flags: W
LayerCount: 2
Fore
SplineSet
987 461 m 1,0,-1
 643 461 l 1,1,-1
 643 117 l 1,2,-1
 449 117 l 1,3,-1
 449 461 l 1,4,-1
 104 461 l 1,5,-1
 104 655 l 1,6,-1
 449 655 l 1,7,-1
 449 997 l 1,8,-1
 643 997 l 1,9,-1
 643 655 l 1,10,-1
 987 655 l 1,11,-1
 987 461 l 1,0,-1
EndSplineSet
Validated: 1
EndChar

StartChar: comma
Encoding: 44 44 36
Width: 557
Flags: W
LayerCount: 2
Fore
SplineSet
397 -123 m 1,0,-1
 160 -317 l 1,1,-1
 160 238 l 1,2,-1
 397 238 l 1,3,-1
 397 -123 l 1,0,-1
EndSplineSet
Validated: 1
EndChar

StartChar: hyphen
Encoding: 45 45 37
Width: 872
Flags: W
LayerCount: 2
Fore
SplineSet
735 471 m 1,0,-1
 137 471 l 1,1,-1
 137 666 l 1,2,-1
 735 666 l 1,3,-1
 735 471 l 1,0,-1
EndSplineSet
Validated: 1
EndChar

StartChar: period
Encoding: 46 46 38
Width: 569
Flags: W
LayerCount: 2
Fore
SplineSet
410 0 m 1,0,-1
 160 0 l 1,1,-1
 160 250 l 1,2,-1
 410 250 l 1,3,-1
 410 0 l 1,0,-1
EndSplineSet
Validated: 1
EndChar

StartChar: slash
Encoding: 47 47 39
Width: 778
Flags: W
LayerCount: 2
Fore
SplineSet
784 1610 m 1,0,-1
 201 -152 l 1,1,-1
 0 -152 l 1,2,-1
 584 1610 l 1,3,-1
 784 1610 l 1,0,-1
EndSplineSet
Validated: 1
EndChar

StartChar: zero
Encoding: 48 48 40
Width: 1092
Flags: W
LayerCount: 2
Fore
SplineSet
967 406 m 2,0,1
 967 279 967 279 911 184.5 c 128,-1,2
 855 90 855 90 758.5 39 c 128,-1,3
 662 -12 662 -12 545 -12 c 256,4,5
 428 -12 428 -12 332 39 c 128,-1,6
 236 90 236 90 180.5 185 c 128,-1,7
 125 280 125 280 125 406 c 2,8,-1
 125 1053 l 2,9,10
 125 1148 125 1148 157 1225.5 c 128,-1,11
 189 1303 189 1303 247.5 1358.5 c 128,-1,12
 306 1414 306 1414 382.5 1442 c 128,-1,13
 459 1470 459 1470 545 1470 c 256,14,15
 631 1470 631 1470 708.5 1441.5 c 128,-1,16
 786 1413 786 1413 843.5 1358.5 c 128,-1,17
 901 1304 901 1304 934 1226 c 128,-1,18
 967 1148 967 1148 967 1053 c 2,19,-1
 967 406 l 2,0,1
758 412 m 2,20,-1
 758 1047 l 2,21,22
 758 1116 758 1116 732.5 1170 c 128,-1,23
 707 1224 707 1224 657.5 1254 c 128,-1,24
 608 1284 608 1284 545 1284 c 0,25,26
 481 1284 481 1284 432.5 1254 c 128,-1,27
 384 1224 384 1224 359 1170 c 128,-1,28
 334 1116 334 1116 334 1047 c 2,29,-1
 334 412 l 2,30,31
 334 305 334 305 390.5 239.5 c 128,-1,32
 447 174 447 174 545 174 c 0,33,34
 644 174 644 174 701 239.5 c 128,-1,35
 758 305 758 305 758 412 c 2,20,-1
EndSplineSet
Validated: 1
EndChar

StartChar: one
Encoding: 49 49 41
Width: 1092
Flags: W
LayerCount: 2
Fore
SplineSet
727 0 m 1,0,-1
 518 0 l 1,1,-1
 518 1231 l 1,2,-1
 233 981 l 1,3,-1
 233 1212 l 1,4,-1
 518 1458 l 1,5,-1
 727 1458 l 1,6,-1
 727 0 l 1,0,-1
EndSplineSet
Validated: 1
EndChar

StartChar: two
Encoding: 50 50 42
Width: 1092
Flags: W
LayerCount: 2
Fore
SplineSet
977 0 m 1,0,-1
 129 0 l 1,1,-1
 129 186 l 1,2,-1
 690 868 l 2,3,4
 768 964 768 964 768 1063 c 0,5,6
 768 1126 768 1126 743 1177.5 c 128,-1,7
 718 1229 718 1229 669 1256.5 c 128,-1,8
 620 1284 620 1284 555 1284 c 0,9,10
 463 1284 463 1284 401.5 1229 c 128,-1,11
 340 1174 340 1174 340 1059 c 1,12,-1
 131 1059 l 1,13,14
 131 1150 131 1150 162.5 1227 c 128,-1,15
 194 1304 194 1304 251 1358 c 128,-1,16
 308 1412 308 1412 385 1441 c 128,-1,17
 462 1470 462 1470 555 1470 c 0,18,19
 680 1470 680 1470 775.5 1420 c 128,-1,20
 871 1370 871 1370 924 1277 c 128,-1,21
 977 1184 977 1184 977 1061 c 0,22,23
 977 971 977 971 946 904.5 c 128,-1,24
 915 838 915 838 840 745 c 2,25,-1
 383 186 l 1,26,-1
 977 186 l 1,27,-1
 977 0 l 1,0,-1
EndSplineSet
Validated: 1
EndChar

StartChar: three
Encoding: 51 51 43
Width: 1092
Flags: W
LayerCount: 2
Fore
SplineSet
979 410 m 0,0,1
 979 275 979 275 919.5 179 c 128,-1,2
 860 83 860 83 758 34.5 c 128,-1,3
 656 -14 656 -14 532 -14 c 0,4,5
 343 -14 343 -14 217.5 89.5 c 128,-1,6
 92 193 92 193 86 395 c 1,7,-1
 295 395 l 1,8,9
 301 285 301 285 368.5 229.5 c 128,-1,10
 436 174 436 174 532 174 c 0,11,12
 637 174 637 174 703.5 238.5 c 128,-1,13
 770 303 770 303 770 416 c 0,14,15
 770 528 770 528 708 591.5 c 128,-1,16
 646 655 646 655 526 655 c 2,17,-1
 492 655 l 1,18,-1
 492 838 l 1,19,-1
 526 838 l 2,20,21
 638 838 638 838 693 896 c 128,-1,22
 748 954 748 954 748 1059 c 0,23,24
 748 1166 748 1166 687.5 1225 c 128,-1,25
 627 1284 627 1284 532 1284 c 0,26,27
 438 1284 438 1284 380 1228.5 c 128,-1,28
 322 1173 322 1173 313 1075 c 1,29,-1
 104 1075 l 1,30,31
 110 1170 110 1170 143.5 1242.5 c 128,-1,32
 177 1315 177 1315 234.5 1366.5 c 128,-1,33
 292 1418 292 1418 368 1445.5 c 128,-1,34
 444 1473 444 1473 532 1473 c 0,35,36
 656 1473 656 1473 752.5 1421 c 128,-1,37
 849 1369 849 1369 902.5 1276.5 c 128,-1,38
 956 1184 956 1184 956 1065 c 0,39,40
 956 843 956 843 774 754 c 1,41,42
 872 710 872 710 925.5 625 c 128,-1,43
 979 540 979 540 979 410 c 0,0,1
EndSplineSet
Validated: 1
EndChar

StartChar: four
Encoding: 52 52 44
Width: 1092
Flags: W
LayerCount: 2
Fore
SplineSet
1020 219 m 1,0,-1
 864 219 l 1,1,-1
 864 0 l 1,2,-1
 662 0 l 1,3,-1
 662 219 l 1,4,-1
 72 219 l 1,5,-1
 72 414 l 1,6,-1
 586 1458 l 1,7,-1
 811 1458 l 1,8,-1
 299 414 l 1,9,-1
 662 414 l 1,10,-1
 662 754 l 1,11,-1
 864 754 l 1,12,-1
 864 414 l 1,13,-1
 1020 414 l 1,14,-1
 1020 219 l 1,0,-1
EndSplineSet
Validated: 1
EndChar

StartChar: five
Encoding: 53 53 45
Width: 1092
Flags: W
LayerCount: 2
Fore
SplineSet
981 487 m 0,0,1
 981 355 981 355 956 264 c 128,-1,2
 931 173 931 173 858 100 c 0,3,4
 744 -14 744 -14 551 -14 c 0,5,6
 452 -14 452 -14 371.5 17.5 c 128,-1,7
 291 49 291 49 240 98 c 0,8,9
 186 152 186 152 161 220 c 128,-1,10
 136 288 136 288 129 377 c 1,11,-1
 338 377 l 1,12,13
 350 279 350 279 403 226.5 c 128,-1,14
 456 174 456 174 551 174 c 0,15,16
 645 174 645 174 702 231 c 0,17,18
 745 274 745 274 758.5 336.5 c 128,-1,19
 772 399 772 399 772 487 c 0,20,21
 772 633 772 633 724 713 c 128,-1,22
 676 793 676 793 559 793 c 0,23,24
 475 793 475 793 423 756.5 c 128,-1,25
 371 720 371 720 352 662 c 1,26,-1
 162 662 l 1,27,-1
 162 1458 l 1,28,-1
 948 1458 l 1,29,-1
 948 1272 l 1,30,-1
 350 1272 l 1,31,-1
 350 887 l 1,32,33
 431 971 431 971 592 971 c 0,34,35
 760 971 760 971 854 877 c 0,36,37
 929 803 929 803 955 707 c 128,-1,38
 981 611 981 611 981 487 c 0,0,1
EndSplineSet
Validated: 1
EndChar

StartChar: six
Encoding: 54 54 46
Width: 1092
Flags: W
LayerCount: 2
Fore
SplineSet
977 432 m 0,0,1
 977 301 977 301 922.5 199.5 c 128,-1,2
 868 98 868 98 770 43 c 128,-1,3
 672 -12 672 -12 547 -12 c 0,4,5
 421 -12 421 -12 322.5 41 c 128,-1,6
 224 94 224 94 169.5 193 c 128,-1,7
 115 292 115 292 115 424 c 0,8,9
 115 480 115 480 128.5 539 c 128,-1,10
 142 598 142 598 166 657 c 128,-1,11
 190 716 190 716 223 782 c 2,12,-1
 555 1458 l 1,13,-1
 778 1458 l 1,14,-1
 465 831 l 1,15,16
 518 854 518 854 594 854 c 0,17,18
 700 854 700 854 787 801.5 c 128,-1,19
 874 749 874 749 925.5 652.5 c 128,-1,20
 977 556 977 556 977 432 c 0,0,1
768 428 m 0,21,22
 768 538 768 538 707.5 609 c 128,-1,23
 647 680 647 680 545 680 c 0,24,25
 444 680 444 680 384 612 c 128,-1,26
 324 544 324 544 324 428 c 0,27,28
 324 352 324 352 352 294 c 128,-1,29
 380 236 380 236 430.5 205 c 128,-1,30
 481 174 481 174 545 174 c 0,31,32
 643 174 643 174 705.5 243.5 c 128,-1,33
 768 313 768 313 768 428 c 0,21,22
EndSplineSet
Validated: 1
EndChar

StartChar: seven
Encoding: 55 55 47
Width: 1092
Flags: W
LayerCount: 2
Fore
SplineSet
997 1272 m 1,0,-1
 510 0 l 1,1,-1
 285 0 l 1,2,-1
 774 1272 l 1,3,-1
 330 1272 l 1,4,-1
 330 1042 l 1,5,-1
 129 1042 l 1,6,-1
 129 1458 l 1,7,-1
 997 1458 l 1,8,-1
 997 1272 l 1,0,-1
EndSplineSet
Validated: 1
EndChar

StartChar: eight
Encoding: 56 56 48
Width: 1092
Flags: W
LayerCount: 2
Fore
SplineSet
995 412 m 0,0,1
 995 284 995 284 935.5 187 c 128,-1,2
 876 90 876 90 773 39 c 128,-1,3
 670 -12 670 -12 545 -12 c 0,4,5
 422 -12 422 -12 318.5 39 c 128,-1,6
 215 90 215 90 155.5 187 c 128,-1,7
 96 284 96 284 96 412 c 0,8,9
 96 531 96 531 152.5 616 c 128,-1,10
 209 701 209 701 297 754 c 1,11,12
 247 785 247 785 207.5 828.5 c 128,-1,13
 168 872 168 872 144.5 932 c 128,-1,14
 121 992 121 992 121 1067 c 0,15,16
 121 1156 121 1156 153 1231 c 128,-1,17
 185 1306 185 1306 243.5 1360 c 128,-1,18
 302 1414 302 1414 379 1442 c 128,-1,19
 456 1470 456 1470 545 1470 c 256,20,21
 634 1470 634 1470 711 1442 c 128,-1,22
 788 1414 788 1414 847 1360.5 c 128,-1,23
 906 1307 906 1307 938.5 1231.5 c 128,-1,24
 971 1156 971 1156 971 1067 c 0,25,26
 971 958 971 958 922.5 880.5 c 128,-1,27
 874 803 874 803 795 754 c 1,28,29
 883 700 883 700 939 617 c 128,-1,30
 995 534 995 534 995 412 c 0,0,1
762 1061 m 0,31,32
 762 1157 762 1157 701 1220.5 c 128,-1,33
 640 1284 640 1284 545 1284 c 0,34,35
 451 1284 451 1284 390.5 1220.5 c 128,-1,36
 330 1157 330 1157 330 1061 c 0,37,38
 330 964 330 964 390 902 c 128,-1,39
 450 840 450 840 545 840 c 0,40,41
 641 840 641 840 701.5 901.5 c 128,-1,42
 762 963 762 963 762 1061 c 0,31,32
784 416 m 256,43,44
 784 517 784 517 715 588 c 128,-1,45
 646 659 646 659 545 659 c 0,46,47
 445 659 445 659 375 588 c 128,-1,48
 305 517 305 517 305 416 c 0,49,50
 305 350 305 350 337 294 c 128,-1,51
 369 238 369 238 425 206 c 128,-1,52
 481 174 481 174 545 174 c 0,53,54
 645 174 645 174 714.5 244.5 c 128,-1,55
 784 315 784 315 784 416 c 256,43,44
EndSplineSet
Validated: 1
EndChar

StartChar: nine
Encoding: 57 57 49
Width: 1092
Flags: W
LayerCount: 2
Fore
SplineSet
977 1034 m 0,0,1
 977 949 977 949 949.5 867 c 128,-1,2
 922 785 922 785 868 676 c 2,3,-1
 537 0 l 1,4,-1
 313 0 l 1,5,-1
 627 627 l 1,6,7
 574 604 574 604 496 604 c 0,8,9
 390 604 390 604 303 656.5 c 128,-1,10
 216 709 216 709 165.5 805.5 c 128,-1,11
 115 902 115 902 115 1026 c 0,12,13
 115 1157 115 1157 169.5 1258.5 c 128,-1,14
 224 1360 224 1360 322 1415 c 128,-1,15
 420 1470 420 1470 545 1470 c 256,16,17
 670 1470 670 1470 768.5 1417.5 c 128,-1,18
 867 1365 867 1365 922 1265.5 c 128,-1,19
 977 1166 977 1166 977 1034 c 0,0,1
768 1030 m 0,20,21
 768 1106 768 1106 740 1164 c 128,-1,22
 712 1222 712 1222 661 1253 c 128,-1,23
 610 1284 610 1284 545 1284 c 0,24,25
 445 1284 445 1284 384.5 1214.5 c 128,-1,26
 324 1145 324 1145 324 1030 c 0,27,28
 324 922 324 922 383.5 850 c 128,-1,29
 443 778 443 778 545 778 c 0,30,31
 644 778 644 778 706 845.5 c 128,-1,32
 768 913 768 913 768 1030 c 0,20,21
EndSplineSet
Validated: 1
EndChar

StartChar: colon
Encoding: 58 58 50
Width: 621
Flags: W
LayerCount: 2
Fore
SplineSet
461 584 m 1,0,-1
 213 584 l 1,1,-1
 213 834 l 1,2,-1
 461 834 l 1,3,-1
 461 584 l 1,0,-1
461 0 m 1,4,-1
 213 0 l 1,5,-1
 213 250 l 1,6,-1
 461 250 l 1,7,-1
 461 0 l 1,4,-1
EndSplineSet
Validated: 1
EndChar

StartChar: semicolon
Encoding: 59 59 51
Width: 621
Flags: W
LayerCount: 2
Fore
SplineSet
461 584 m 1,0,-1
 213 584 l 1,1,-1
 213 834 l 1,2,-1
 461 834 l 1,3,-1
 461 584 l 1,0,-1
455 -123 m 1,4,-1
 217 -317 l 1,5,-1
 217 238 l 1,6,-1
 455 238 l 1,7,-1
 455 -123 l 1,4,-1
EndSplineSet
Validated: 1
EndChar

StartChar: less
Encoding: 60 60 52
Width: 2103
Flags: W
LayerCount: 2
Fore
SplineSet
1995 469 m 1,0,-1
 471 469 l 1,1,-1
 1178 -233 l 1,2,-1
 909 -233 l 1,3,-1
 106 567 l 1,4,-1
 909 1370 l 1,5,-1
 1178 1370 l 1,6,-1
 471 668 l 1,7,-1
 1995 668 l 1,8,-1
 1995 469 l 1,0,-1
EndSplineSet
Validated: 1
EndChar

StartChar: equal
Encoding: 61 61 53
Width: 1092
Flags: W
LayerCount: 2
Fore
SplineSet
987 670 m 1,0,-1
 104 670 l 1,1,-1
 104 864 l 1,2,-1
 987 864 l 1,3,-1
 987 670 l 1,0,-1
987 272 m 1,4,-1
 104 272 l 1,5,-1
 104 467 l 1,6,-1
 987 467 l 1,7,-1
 987 272 l 1,4,-1
EndSplineSet
Validated: 1
EndChar

StartChar: greater
Encoding: 62 62 54
Width: 2103
Flags: W
LayerCount: 2
Fore
SplineSet
1997 567 m 1,0,-1
 1194 -233 l 1,1,-1
 926 -233 l 1,2,-1
 1632 469 l 1,3,-1
 106 469 l 1,4,-1
 106 668 l 1,5,-1
 1632 668 l 1,6,-1
 926 1370 l 1,7,-1
 1194 1370 l 1,8,-1
 1997 567 l 1,0,-1
EndSplineSet
Validated: 1
EndChar

StartChar: question
Encoding: 63 63 55
Width: 1047
Flags: W
LayerCount: 2
Fore
SplineSet
963 1079 m 0,0,1
 963 1011 963 1011 937.5 951.5 c 128,-1,2
 912 892 912 892 864 827 c 2,3,-1
 707 606 l 2,4,5
 689 582 689 582 679.5 550.5 c 128,-1,6
 670 519 670 519 670 496 c 2,7,-1
 670 434 l 1,8,-1
 461 434 l 1,9,-1
 461 506 l 2,10,11
 461 567 461 567 476 611.5 c 128,-1,12
 491 656 491 656 530 709 c 2,13,-1
 690 924 l 2,14,15
 754 1009 754 1009 754 1079 c 0,16,17
 754 1167 754 1167 698 1225.5 c 128,-1,18
 642 1284 642 1284 553 1284 c 0,19,20
 493 1284 493 1284 447.5 1256.5 c 128,-1,21
 402 1229 402 1229 378 1180.5 c 128,-1,22
 354 1132 354 1132 354 1077 c 1,23,-1
 145 1077 l 1,24,25
 145 1163 145 1163 175 1235 c 128,-1,26
 205 1307 205 1307 262 1360.5 c 128,-1,27
 319 1414 319 1414 393 1442 c 128,-1,28
 467 1470 467 1470 553 1470 c 256,29,30
 639 1470 639 1470 713.5 1442.5 c 128,-1,31
 788 1415 788 1415 843 1365 c 128,-1,32
 898 1315 898 1315 930.5 1241 c 128,-1,33
 963 1167 963 1167 963 1079 c 0,0,1
680 0 m 1,34,-1
 449 0 l 1,35,-1
 449 223 l 1,36,-1
 680 223 l 1,37,-1
 680 0 l 1,34,-1
EndSplineSet
Validated: 1
EndChar

StartChar: at
Encoding: 64 64 56
Width: 1507
Flags: W
LayerCount: 2
Fore
SplineSet
1376 -4 m 1,0,-1
 1180 0 l 1,1,-1
 1180 102 l 1,2,3
 1129 43 1129 43 1067.5 14.5 c 128,-1,4
 1006 -14 1006 -14 920 -14 c 0,5,6
 754 -14 754 -14 651 100 c 0,7,8
 621 135 621 135 604 171.5 c 128,-1,9
 587 208 587 208 576.5 257.5 c 128,-1,10
 566 307 566 307 562.5 356 c 128,-1,11
 559 405 559 405 559 479 c 0,12,13
 559 621 559 621 577 707.5 c 128,-1,14
 595 794 595 794 647 856 c 0,15,16
 692 910 692 910 762.5 941.5 c 128,-1,17
 833 973 833 973 918 973 c 0,18,19
 1076 973 1076 973 1176 858 c 1,20,-1
 1176 983 l 2,21,22
 1176 1057 1176 1057 1159 1109.5 c 128,-1,23
 1142 1162 1142 1162 1100 1204 c 0,24,25
 1024 1280 1024 1280 883 1280 c 2,26,-1
 625 1280 l 2,27,28
 485 1280 485 1280 410 1204 c 0,29,30
 365 1161 365 1161 349.5 1110 c 128,-1,31
 334 1059 334 1059 334 983 c 2,32,-1
 334 344 l 2,33,34
 334 260 334 260 355 213.5 c 128,-1,35
 376 167 376 167 436 119 c 1,36,-1
 293 -25 l 1,37,38
 227 30 227 30 194.5 75 c 128,-1,39
 162 120 162 120 146.5 183 c 128,-1,40
 131 246 131 246 131 334 c 2,41,-1
 131 985 l 2,42,43
 131 1219 131 1219 252 1343 c 0,44,45
 372 1464 372 1464 604 1464 c 2,46,-1
 903 1464 l 2,47,48
 1133 1464 1133 1464 1253 1343 c 0,49,50
 1318 1278 1318 1278 1347 1190.5 c 128,-1,51
 1376 1103 1376 1103 1376 985 c 2,52,-1
 1376 -4 l 1,0,-1
1176 479 m 0,53,54
 1176 576 1176 576 1159 645 c 128,-1,55
 1142 714 1142 714 1095 755.5 c 128,-1,56
 1048 797 1048 797 967 797 c 0,57,58
 847 797 847 797 803.5 713.5 c 128,-1,59
 760 630 760 630 760 479 c 0,60,61
 760 383 760 383 776.5 314 c 128,-1,62
 793 245 793 245 839 204.5 c 128,-1,63
 885 164 885 164 967 164 c 0,64,65
 1086 164 1086 164 1131 246.5 c 128,-1,66
 1176 329 1176 329 1176 479 c 0,53,54
EndSplineSet
Validated: 1
EndChar

StartChar: A
Encoding: 65 65 57
Width: 1800
Flags: W
LayerCount: 2
Back
SplineSet
443.5 0 m 29,0,-1
 836.5 1128 l 1,1,-1
 1057.5 481 l 1,2,-1
 718.5 481 l 1,3,-1
 644.5 292 l 1,4,-1
 1119.5 293 l 1,5,-1
 1219.5 0 l 1,6,-1
 1455.5 0 l 1,7,-1
 920.5 1458 l 1,8,-1
 742.5 1458 l 1,9,-1
 207.5 0 l 1,10,-1
 443.5 0 l 29,0,-1
EndSplineSet
Fore
SplineSet
810 1458 m 25,0,-1
 988 1458 l 1,1,-1
 1524 0 l 1,2,-1
 1288 0 l 1,3,-1
 1188 293 l 1,4,-1
 791 293 l 1,5,-1
 865 481 l 1,6,-1
 1126 481 l 1,7,-1
 904 1128 l 1,8,-1
 514 0 l 1,9,-1
 276 0 l 1,10,-1
 810 1458 l 25,0,-1
EndSplineSet
Validated: 1
EndChar

StartChar: B
Encoding: 66 66 58
Width: 1800
Flags: W
LayerCount: 2
Fore
SplineSet
601 1458 m 1,0,-1
 601 199 l 1,1,-1
 954 199 l 2,2,3
 1028 199 1028 199 1084 228 c 0,4,5
 1138 256 1138 256 1166 306 c 128,-1,6
 1194 356 1194 356 1194 422 c 0,7,8
 1194 491 1194 491 1166 538 c 0,9,10
 1138 587 1138 587 1083 615 c 128,-1,11
 1028 643 1028 643 954 643 c 2,12,-1
 809 643 l 1,13,-1
 809 842 l 17,14,-1
 934 842 l 2,15,16
 1016 842 1016 842 1108 897 c 0,17,18
 1172 936 1172 936 1172 1051 c 0,19,20
 1172 1116 1172 1116 1142 1163.5 c 128,-1,21
 1112 1211 1112 1211 1059 1235.5 c 128,-1,22
 1006 1260 1006 1260 934 1260 c 1,23,-1
 800 1260 l 1,24,-1
 800 1452 l 17,25,-1
 952 1452 l 2,26,-1
 1069 1452 l 0,27,28
 1240 1452 1240 1452 1339 1270 c 0,29,30
 1392 1173 1392 1173 1392 1059 c 0,31,32
 1392 984 1392 984 1365 920 c 0,33,34
 1338 858 1338 858 1292 814 c 0,35,36
 1245 769 1245 769 1196 750 c 1,37,38
 1287 715 1287 715 1352 627 c 0,39,40
 1416 540 1416 540 1416 412 c 0,41,42
 1416 278 1416 278 1360 188 c 0,43,44
 1304 96 1304 96 1204 48 c 128,-1,45
 1104 0 1104 0 974 0 c 2,46,-1
 384 0 l 1,47,-1
 384 1458 l 1,48,-1
 601 1458 l 1,0,-1
EndSplineSet
Validated: 1
EndChar

StartChar: C
Encoding: 67 67 59
Width: 1800
Flags: W
LayerCount: 2
Fore
SplineSet
1422 436 m 1,0,1
 1404 329 1404 329 1358 244 c 0,2,3
 1311 157 1311 157 1244 102 c 0,4,5
 1176 46 1176 46 1089 17 c 128,-1,6
 1002 -12 1002 -12 902 -12 c 0,7,8
 831 -12 831 -12 759 6 c 0,9,10
 692 23 692 23 630 59 c 0,11,12
 569 95 569 95 520 143 c 0,13,14
 487 175 487 175 422 292 c 0,15,16
 391 347 391 347 384 464 c 0,17,18
 376.307692308 594 376.307692308 594 376.307692308 642.343195266 c 0,19,20
 376.307692308 656.846153846 376.307692308 656.846153846 377 664 c 0,21,22
 378 673 378 673 378 729 c 0,23,24
 381 897 381 897 381 940 c 0,25,26
 381 1045 381 1045 397 1083 c 0,27,28
 413 1152 413 1152 438 1204 c 0,29,30
 466 1261 466 1261 520 1315 c 0,31,32
 594 1391 594 1391 692.5 1430.5 c 128,-1,33
 791 1470 791 1470 902 1470 c 0,34,35
 1108 1470 1108 1470 1246 1354 c 128,-1,36
 1384 1238 1384 1238 1422 1022 c 1,37,-1
 1196 1022 l 1,38,39
 1170 1136 1170 1136 1095 1204 c 128,-1,40
 1020 1272 1020 1272 902 1272 c 0,41,42
 839 1272 839 1272 782 1249 c 0,43,44
 722 1225 722 1225 686 1184 c 0,45,46
 657 1151 657 1151 642 1120 c 0,47,48
 634 1101 634 1101 616 1034 c 0,49,50
 607 1011 607 1011 602 913 c 0,51,52
 596.555555556 812.666666667 596.555555556 812.666666667 596.555555556 779.481481481 c 0,53,54
 596.555555556 770 596.555555556 770 597 766 c 0,55,56
 598 756 598 756 598 729 c 0,57,58
 602 621 602 621 602 546 c 0,59,60
 602 482 602 482 616 426 c 0,61,62
 632 360 632 360 642 340 c 0,63,64
 657 307 657 307 686 274 c 0,65,66
 718 238 718 238 782 210 c 0,67,68
 838 186 838 186 902 186 c 0,69,70
 982 186 982 186 1042 217 c 0,71,72
 1103 249 1103 249 1142 305 c 0,73,74
 1182 363 1182 363 1198 436 c 1,75,-1
 1422 436 l 1,0,1
EndSplineSet
EndChar

StartChar: D
Encoding: 68 68 60
Width: 1800
Flags: W
LayerCount: 2
Fore
SplineSet
604 620 m 9,0,-1
 382 620 l 1,1,-1
 382 1458 l 1,2,-1
 894 1458 l 2,3,4
 1134 1458 1134 1458 1270 1321 c 0,5,6
 1334 1257 1334 1257 1368 1175 c 0,7,8
 1410 1074 1410 1074 1410 1010 c 0,9,10
 1410 823 1410 823 1418 813 c 2,11,-1
 1418 739 l 1,12,-1
 1418 666 l 1,13,14
 1410 548 1410 548 1410 460 c 0,15,16
 1410 357 1410 357 1368 287 c 0,17,18
 1291 158 1291 158 1270 137 c 0,19,20
 1134 0 1134 0 894 0 c 2,21,-1
 382 0 l 1,22,-1
 382 196 l 1,23,-1
 876 196 l 1,24,25
 996 196 996 196 1120 297 c 0,26,27
 1184 349 1184 349 1184 452 c 0,28,29
 1184 634 1184 634 1198 739 c 0,30,31
 1198 781 1198 781 1198 781 c 0,32,33
 1196 799 1196 799 1196 934 c 0,34,35
 1196 1001 1196 1001 1174 1062 c 0,36,37
 1150 1128 1150 1128 1120 1161 c 0,38,39
 1030 1260 1030 1260 872 1260 c 2,40,-1
 604 1260 l 1,41,-1
 604 620 l 9,0,-1
EndSplineSet
EndChar

StartChar: E
Encoding: 69 69 61
Width: 1800
Flags: W
LayerCount: 2
Fore
SplineSet
1366 0 m 1,0,-1
 434 0 l 1,1,-1
 434 1458 l 1,2,-1
 1366 1458 l 1,3,-1
 1366 1260 l 1,4,-1
 656 1260 l 1,5,-1
 656 834 l 1,6,-1
 1262 834 l 1,7,-1
 1262 637 l 1,8,-1
 656 637 l 1,9,-1
 656 199 l 1,10,-1
 1366 199 l 1,11,-1
 1366 0 l 1,0,-1
EndSplineSet
Validated: 1
EndChar

StartChar: F
Encoding: 70 70 62
Width: 1800
Flags: W
LayerCount: 2
Fore
SplineSet
1366 1260 m 1,0,-1
 656 1260 l 1,1,-1
 656 815 l 1,2,-1
 1262 815 l 1,3,-1
 1262 616 l 1,4,-1
 656 616 l 1,5,-1
 656 0 l 1,6,-1
 434 0 l 1,7,-1
 434 1458 l 1,8,-1
 1366 1458 l 1,9,-1
 1366 1260 l 1,0,-1
EndSplineSet
Validated: 1
EndChar

StartChar: G
Encoding: 71 71 63
Width: 1800
Flags: W
LayerCount: 2
Fore
SplineSet
1428 565 m 2,0,1
 1428 423 1428 423 1399 326 c 0,2,3
 1370 230 1370 230 1297.5 154 c 0,4,5
 1139 -12 1139 -12 896.5 -12 c 0,6,7
 820.5 -12 820.5 -12 753 5.5 c 128,-1,8
 685.5 23 685.5 23 623.5 59 c 128,-1,9
 561.5 95 561.5 95 513.5 143 c 0,10,11
 445.5 213 445.5 213 415.5 292 c 128,-1,12
 385.5 371 385.5 371 378.5 463.5 c 128,-1,13
 371.5 556 371.5 556 371.5 729 c 0,14,15
 371.5 862 371.5 862 375 940 c 128,-1,16
 378.5 1018 378.5 1018 391 1083 c 128,-1,17
 403.5 1148 403.5 1148 432 1204.5 c 128,-1,18
 460.5 1261 460.5 1261 513.5 1315 c 0,19,20
 668.5 1470 668.5 1470 896.5 1470 c 0,21,22
 1045.5 1470 1045.5 1470 1158 1411 c 128,-1,23
 1270.5 1352 1270.5 1352 1337.5 1249 c 128,-1,24
 1404.5 1146 1404.5 1146 1426.5 1018 c 1,25,-1
 1203.5 1018 l 1,26,27
 1185.5 1097 1185.5 1097 1144.5 1154 c 128,-1,28
 1103.5 1211 1103.5 1211 1041 1241.5 c 128,-1,29
 978.5 1272 978.5 1272 896.5 1272 c 0,30,31
 834.5 1272 834.5 1272 777 1248 c 128,-1,32
 719.5 1224 719.5 1224 680.5 1182 c 0,33,34
 627.5 1123 627.5 1123 610 1035.5 c 128,-1,35
 592.5 948 592.5 948 592.5 729 c 0,36,37
 592.5 613 592.5 613 596 546.5 c 128,-1,38
 599.5 480 599.5 480 609.5 426 c 128,-1,39
 619.5 372 619.5 372 635.5 340.5 c 128,-1,40
 651.5 309 651.5 309 680.5 274 c 0,41,42
 719.5 233 719.5 233 776 209.5 c 128,-1,43
 832.5 186 832.5 186 896.5 186 c 0,44,45
 1044.5 186 1044.5 186 1133.5 289 c 0,46,47
 1207.5 374 1207.5 374 1207.5 518 c 2,48,-1
 1207.5 600 l 1,49,-1
 896.5 600 l 1,50,-1
 896.5 788 l 1,51,-1
 1428.5 788 l 1,52,-1
 1428 565 l 2,0,1
EndSplineSet
Validated: 524289
EndChar

StartChar: H
Encoding: 72 72 64
Width: 1800
Flags: W
LayerCount: 2
Fore
SplineSet
1417.5 0 m 1,0,-1
 1196.5 0 l 1,1,-1
 1196.5 637 l 1,2,-1
 604.5 637 l 1,3,-1
 604.5 0 l 1,4,-1
 382.5 0 l 1,5,-1
 382.5 1458 l 1,6,-1
 604.5 1458 l 1,7,-1
 604.5 836 l 1,8,-1
 1196.5 836 l 1,9,-1
 1196.5 1458 l 1,10,-1
 1417.5 1458 l 1,11,-1
 1417.5 0 l 1,0,-1
EndSplineSet
Validated: 1
EndChar

StartChar: I
Encoding: 73 73 65
Width: 1800
Flags: W
LayerCount: 2
Fore
SplineSet
1011 0 m 1,0,-1
 789 0 l 1,1,-1
 789 1458 l 1,2,-1
 1011 1458 l 1,3,-1
 1011 0 l 1,0,-1
EndSplineSet
Validated: 1
EndChar

StartChar: J
Encoding: 74 74 66
Width: 1800
Flags: W
LayerCount: 2
Fore
SplineSet
1319.5 461 m 2,0,1
 1319.5 313 1319.5 313 1255 206.5 c 128,-1,2
 1190.5 100 1190.5 100 1079.5 44 c 128,-1,3
 968.5 -12 968.5 -12 834.5 -12 c 0,4,5
 762.5 -12 762.5 -12 699 2.5 c 128,-1,6
 635.5 17 635.5 17 583 48 c 128,-1,7
 530.5 79 530.5 79 480.5 129 c 1,8,-1
 627.5 274 l 1,9,10
 674.5 229 674.5 229 717.5 207.5 c 128,-1,11
 760.5 186 760.5 186 834.5 186 c 0,12,13
 916.5 186 916.5 186 976 219.5 c 128,-1,14
 1035.5 253 1035.5 253 1067 318.5 c 128,-1,15
 1098.5 384 1098.5 384 1098.5 477 c 2,16,-1
 1098.5 1458 l 1,17,-1
 1319.5 1458 l 1,18,-1
 1319.5 461 l 2,0,1
EndSplineSet
Validated: 1
EndChar

StartChar: K
Encoding: 75 75 67
Width: 1800
Flags: W
LayerCount: 2
Fore
SplineSet
1468.5 0 m 1,0,-1
 1208.5 0 l 1,1,-1
 798.5 719 l 1,2,-1
 553.5 424 l 1,3,-1
 553.5 0 l 1,4,-1
 331.5 0 l 1,5,-1
 331.5 1458 l 1,6,-1
 553.5 1458 l 1,7,-1
 553.5 725 l 1,8,-1
 1149.5 1458 l 1,9,-1
 1419.5 1458 l 1,10,-1
 946.5 887 l 1,11,-1
 1468.5 0 l 1,0,-1
EndSplineSet
Validated: 1
EndChar

StartChar: L
Encoding: 76 76 68
Width: 1800
Flags: W
LayerCount: 2
Fore
SplineSet
1362 0 m 1,0,-1
 438 0 l 1,1,-1
 438 1458 l 1,2,-1
 660 1458 l 1,3,-1
 660 199 l 1,4,-1
 1362 199 l 1,5,-1
 1362 0 l 1,0,-1
EndSplineSet
Validated: 1
EndChar

StartChar: M
Encoding: 77 77 69
Width: 1800
Flags: W
LayerCount: 2
Fore
SplineSet
1543.5 0 m 1,0,-1
 1321.5 0 l 1,1,-1
 1321.5 975 l 1,2,-1
 986.5 264 l 1,3,-1
 822.5 264 l 1,4,-1
 478.5 975 l 1,5,-1
 478.5 0 l 1,6,-1
 256.5 0 l 1,7,-1
 256.5 1458 l 1,8,-1
 478.5 1458 l 1,9,-1
 904.5 551 l 1,10,-1
 1321.5 1458 l 1,11,-1
 1543.5 1458 l 1,12,-1
 1543.5 0 l 1,0,-1
EndSplineSet
Validated: 1
EndChar

StartChar: N
Encoding: 78 78 70
Width: 1800
Flags: W
LayerCount: 2
Fore
SplineSet
1449 0 m 1,0,-1
 1246 0 l 1,1,-1
 573 1026 l 1,2,-1
 573 0 l 1,3,-1
 351 0 l 1,4,-1
 351 1458 l 1,5,-1
 554 1458 l 1,6,-1
 1228 434 l 1,7,-1
 1228 1458 l 1,8,-1
 1449 1458 l 1,9,-1
 1449 0 l 1,0,-1
EndSplineSet
Validated: 1
EndChar

StartChar: O
Encoding: 79 79 71
Width: 1800
Flags: W
LayerCount: 2
Fore
SplineSet
534 166 m 1,0,1
 672 306 l 0,2,-1
 711 260 l 0,3,4
 737 232 737 232 781 218 c 0,5,6
 838 200 838 200 900 200 c 0,7,8
 1034 200 1034 200 1118 290 c 0,9,10
 1154 330 1154 330 1175.5 379 c 0,11,12
 1190 413 1190 413 1197 515 c 0,13,14
 1204.36363636 625.454545455 1204.36363636 625.454545455 1204.36363636 707.79338843 c 0,15,16
 1204.36363636 726.090909091 1204.36363636 726.090909091 1204 743 c 0,17,18
 1201 890 1201 890 1201 1038 c 9,19,-1
 1373 1203 l 1,20,21
 1378 1192 1378 1192 1382 1180 c 0,22,23
 1410 1122 1410 1122 1418 1008 c 0,24,25
 1426 902.666666667 1426 902.666666667 1426 820 c 0,26,27
 1426 778.666666667 1426 778.666666667 1424 743 c 256,28,29
 1418 628 1418 628 1418 478 c 0,30,31
 1418 389 1418 389 1382 306 c 0,32,33
 1342 214 1342 214 1286 157 c 0,34,35
 1132 0 1132 0 900 0 c 256,36,37
 709 0 709 0 534 166 c 1,0,1
600 503 m 1,38,-1
 426 340 l 1,39,40
 404 406 404 406 394 466 c 0,41,42
 375.625 580.625 375.625 580.625 375.625 706.734375 c 0,43,44
 375.625 724.75 375.625 724.75 376 743 c 0,45,46
 379 876 379 876 379 954 c 128,-1,47
 379 1032 379 1032 393.5 1097 c 128,-1,48
 408 1162 408 1162 436 1218 c 0,49,50
 463 1273 463 1273 518 1329 c 0,51,52
 670 1484 670 1484 900 1484 c 256,53,54
 1115 1484 1115 1484 1256 1365 c 9,55,-1
 1092 1210 l 1,56,57
 1053 1249 1053 1249 1020 1262 c 0,58,59
 960 1286 960 1286 900 1286 c 0,60,61
 838 1286 838 1286 779 1261.5 c 128,-1,62
 720 1237 720 1237 682 1196 c 0,63,64
 630 1137 630 1137 613 1049 c 0,65,66
 590.775510204 933.163265306 590.775510204 933.163265306 590.775510204 834.561849229 c 0,67,68
 590.775510204 786.755102041 590.775510204 786.755102041 596 743 c 0,69,70
 600 709 600 709 600 558 c 0,71,-1
 600 503 l 1,38,-1
EndSplineSet
EndChar

StartChar: P
Encoding: 80 80 72
Width: 1800
Flags: W
LayerCount: 2
Fore
SplineSet
392 774 m 1,0,-1
 932 774 l 2,1,2
 1051 774 1051 774 1120 838 c 0,3,4
 1190 903 1190 903 1190 1016 c 0,5,6
 1190 1130 1190 1130 1119.5 1195 c 128,-1,7
 1049 1260 1049 1260 932 1260 c 2,8,-1
 390 1260 l 1,9,-1
 390 1458 l 1,10,-1
 944 1458 l 2,11,12
 1043 1458 1043 1458 1135 1424 c 0,13,14
 1226 1390 1226 1390 1285 1332 c 128,-1,15
 1344 1274 1344 1274 1378 1192 c 0,16,17
 1410 1115 1410 1115 1410 1016 c 0,18,19
 1410 890 1410 890 1354 788 c 0,20,21
 1300 690 1300 690 1189.5 630.5 c 0,22,23
 1082 573 1082 573 944 573 c 2,24,-1
 612 573 l 1,25,-1
 612 0 l 1,26,-1
 390 0 l 1,27,-1
 392 774 l 1,0,-1
EndSplineSet
EndChar

StartChar: Q
Encoding: 81 81 73
Width: 1800
Flags: W
LayerCount: 2
Fore
SplineSet
620 257 m 24,0,1
 667 212 l 1,2,-1
 525 58 l 1,3,4
 517 67 517 67 493 89 c 0,5,6
 439 137 439 137 396 238 c 0,7,8
 381 274 381 274 359 410 c 0,9,10
 352 453 352 453 352 675 c 0,11,12
 351 707 351 707 351 719 c 0,13,14
 351 729 l 0,15,16
 354 780 354 780 354 886 c 128,-1,17
 354 992 354 992 370 1029 c 0,18,19
 395 1115 395 1115 412 1150 c 0,20,21
 441 1206 441 1206 494 1261 c 0,22,23
 646 1416 646 1416 877 1416 c 256,24,25
 1106 1416 1106 1416 1262 1261 c 0,26,27
 1325 1198 1325 1198 1360 1112 c 128,-1,28
 1395 1026 1395 1026 1395 940 c 0,29,30
 1401 935 1401 935 1401 675 c 0,31,32
 1402 632 1402 632 1402 621 c 0,33,34
 1402 594 1402 594 1403 587 c 0,35,36
 1399 567 1399 567 1399 438 c 0,37,38
 1399 350 1399 350 1374 282 c 0,39,40
 1341 193 1341 193 1307 145 c 1,41,-1
 1450 3 l 1,42,-1
 1327 -120 l 1,43,-1
 872 333 l 17,44,-1
 995 456 l 1,45,-1
 1137 315 l 1,46,47
 1147 330 1147 330 1171 448 c 0,48,49
 1180 493 1180 493 1180 675 c 0,50,51
 1183 711 1183 711 1183 763 c 0,52,53
 1183 804 1183 804 1163 984 c 0,54,55
 1154 1066 1154 1066 1094 1128 c 0,56,57
 1052 1171 1052 1171 997 1194 c 0,58,59
 939 1218 939 1218 877 1218 c 0,60,61
 814 1218 814 1218 755 1194 c 128,-1,62
 696 1170 696 1170 659 1128 c 0,63,64
 601 1062 601 1062 589 981 c 0,65,66
 572 870 572 870 572 720 c 0,67,68
 572 677 572 677 573 675 c 0,69,70
 575 671 575 671 575 490 c 0,71,72
 575 347 575 347 588 308 c 0,73,-1
 620 257 l 24,0,1
EndSplineSet
EndChar

StartChar: R
Encoding: 82 82 74
Width: 1800
Flags: WO
HStem: 1262 196<1081 1235.44>
VStem: 1329 221<889.447 1173.31>
LayerCount: 2
Fore
SplineSet
368 1262 m 1,0,-1
 368 1458 l 1,1,-1
 934 1458 l 2,2,3
 1068 1458 1068 1458 1171 1403.5 c 128,-1,4
 1274 1349 1274 1349 1329 1252 c 0,5,6
 1386 1152 1386 1152 1386 1032 c 0,7,8
 1386 1025 1386 1025 1386 1025 c 0,9,10
 1386 885 1386 885 1306 782 c 0,11,12
 1228 682 1228 682 1096 645 c 1,13,-1
 1432 0 l 1,14,-1
 1174 0 l 1,15,-1
 866 614 l 1,16,-1
 590 614 l 1,17,-1
 590 0 l 1,18,-1
 370 0 l 1,19,-1
 370 803 l 1,20,-1
 918 803 l 2,21,22
 1030 803 1030 803 1098 864 c 128,-1,23
 1166 925 1166 925 1166 1030 c 0,24,25
 1166 1132 1166 1132 1098 1198 c 0,26,27
 1032 1262 1032 1262 918 1262 c 2,28,-1
 368 1262 l 1,0,-1
EndSplineSet
EndChar

StartChar: S
Encoding: 83 83 75
Width: 1800
Flags: W
LayerCount: 2
Fore
SplineSet
1420.5 428 m 0,0,1
 1420.5 331 1420.5 331 1382.5 250.5 c 128,-1,2
 1344.5 170 1344.5 170 1273 113.5 c 128,-1,3
 1201.5 57 1201.5 57 1106.5 28.5 c 128,-1,4
 1011.5 0 1011.5 0 896.5 0 c 0,5,6
 729.5 0 729.5 0 606 44.5 c 128,-1,7
 482.5 89 482.5 89 379.5 192 c 1,8,-1
 527.5 338 l 1,9,10
 576.5 288 576.5 288 635 256 c 128,-1,11
 693.5 224 693.5 224 759.5 211 c 128,-1,12
 825.5 198 825.5 198 900.5 198 c 0,13,14
 1041.5 198 1041.5 198 1121.5 257 c 128,-1,15
 1201.5 316 1201.5 316 1201.5 422 c 0,16,17
 1201.5 521 1201.5 521 1143.5 573 c 0,18,19
 1117.5 599 1117.5 599 1083 612.5 c 128,-1,20
 1048.5 626 1048.5 626 984.5 635 c 2,21,-1
 812.5 659 l 2,22,23
 634.5 684 634.5 684 535.5 776 c 0,24,25
 429.5 875 429.5 875 429.5 1054 c 0,26,27
 429.5 1181 429.5 1181 488.5 1278 c 128,-1,28
 547.5 1375 547.5 1375 657.5 1428.5 c 128,-1,29
 767.5 1482 767.5 1482 916.5 1482 c 0,30,31
 1063.5 1482 1063.5 1482 1170.5 1442.5 c 128,-1,32
 1277.5 1403 1277.5 1403 1369.5 1317 c 1,33,-1
 1227.5 1177 l 1,34,35
 1183.5 1220 1183.5 1220 1133.5 1244.5 c 128,-1,36
 1083.5 1269 1083.5 1269 1029.5 1279.5 c 128,-1,37
 975.5 1290 975.5 1290 910.5 1290 c 0,38,39
 827.5 1290 827.5 1290 767.5 1261 c 128,-1,40
 707.5 1232 707.5 1232 676 1180.5 c 128,-1,41
 644.5 1129 644.5 1129 644.5 1063 c 0,42,43
 644.5 976 644.5 976 699.5 927 c 0,44,45
 726.5 904 726.5 904 770.5 885.5 c 128,-1,46
 814.5 867 814.5 867 863.5 860 c 2,47,-1
 1029.5 835 l 2,48,49
 1129.5 820 1129.5 820 1193 794.5 c 128,-1,50
 1256.5 769 1256.5 769 1301.5 727 c 0,51,52
 1420.5 623 1420.5 623 1420.5 428 c 0,0,1
EndSplineSet
Validated: 1
EndChar

StartChar: T
Encoding: 84 84 76
Width: 1800
Flags: W
LayerCount: 2
Fore
SplineSet
1412 1260 m 1,0,-1
 1011 1260 l 1,1,-1
 1011 0 l 1,2,-1
 790 0 l 1,3,-1
 790 1260 l 1,4,-1
 388 1260 l 1,5,-1
 388 1458 l 1,6,-1
 1412 1458 l 1,7,-1
 1412 1260 l 1,0,-1
EndSplineSet
Validated: 1
EndChar

StartChar: U
Encoding: 85 85 77
Width: 1800
Flags: W
LayerCount: 2
Fore
SplineSet
1423 492 m 2,0,1
 1423 344 1423 344 1355 229 c 128,-1,2
 1287 114 1287 114 1167.5 51 c 128,-1,3
 1048 -12 1048 -12 899 -12 c 0,4,5
 751 -12 751 -12 632 51 c 128,-1,6
 513 114 513 114 445 229 c 128,-1,7
 377 344 377 344 377 492 c 2,8,-1
 377 1458 l 1,9,-1
 598 1458 l 1,10,-1
 598 502 l 2,11,12
 598 406 598 406 635 334.5 c 128,-1,13
 672 263 672 263 740 224.5 c 128,-1,14
 808 186 808 186 899 186 c 256,15,16
 990 186 990 186 1058.5 224.5 c 128,-1,17
 1127 263 1127 263 1164.5 334 c 128,-1,18
 1202 405 1202 405 1202 502 c 2,19,-1
 1202 1458 l 1,20,-1
 1423 1458 l 1,21,-1
 1423 492 l 2,0,1
EndSplineSet
Validated: 1
EndChar

StartChar: V
Encoding: 86 86 78
Width: 1800
Flags: W
LayerCount: 2
Fore
SplineSet
1467.5 1458 m 1,0,-1
 984.5 0 l 1,1,-1
 811.5 0 l 1,2,-1
 332.5 1458 l 1,3,-1
 562.5 1458 l 1,4,-1
 897.5 397 l 1,5,-1
 1233.5 1458 l 1,6,-1
 1467.5 1458 l 1,0,-1
EndSplineSet
Validated: 1
EndChar

StartChar: W
Encoding: 87 87 79
Width: 1800
Flags: W
LayerCount: 2
Fore
SplineSet
1769 1458 m 1,0,-1
 1388 0 l 1,1,-1
 1196 0 l 1,2,-1
 899 1022 l 1,3,-1
 604 0 l 1,4,-1
 411 0 l 1,5,-1
 31 1458 l 1,6,-1
 264 1458 l 1,7,-1
 518 416 l 1,8,-1
 811 1458 l 1,9,-1
 989 1458 l 1,10,-1
 1282 416 l 1,11,-1
 1536 1458 l 1,12,-1
 1769 1458 l 1,0,-1
EndSplineSet
Validated: 1
EndChar

StartChar: X
Encoding: 88 88 80
Width: 1800
Flags: W
LayerCount: 2
Fore
SplineSet
1471.5 0 m 1,0,-1
 1215.5 0 l 1,1,-1
 898.5 559 l 1,2,-1
 582.5 0 l 1,3,-1
 328.5 0 l 1,4,-1
 779.5 748 l 1,5,-1
 357.5 1458 l 1,6,-1
 611.5 1458 l 1,7,-1
 898.5 936 l 1,8,-1
 1187.5 1458 l 1,9,-1
 1441.5 1458 l 1,10,-1
 1019.5 748 l 1,11,-1
 1471.5 0 l 1,0,-1
EndSplineSet
Validated: 1
EndChar

StartChar: Y
Encoding: 89 89 81
Width: 1800
Flags: W
LayerCount: 2
Fore
SplineSet
1447 1458 m 1,0,-1
 1011 600 l 1,1,-1
 1011 0 l 1,2,-1
 789 0 l 1,3,-1
 789 600 l 1,4,-1
 353 1458 l 1,5,-1
 595 1458 l 1,6,-1
 900 817 l 1,7,-1
 1205 1458 l 1,8,-1
 1447 1458 l 1,0,-1
EndSplineSet
Validated: 1
EndChar

StartChar: Z
Encoding: 90 90 82
Width: 1800
Flags: W
LayerCount: 2
Fore
SplineSet
1367 0 m 1,0,-1
 433 0 l 1,1,-1
 433 190 l 1,2,-1
 1107 1260 l 1,3,-1
 462 1260 l 1,4,-1
 462 1458 l 1,5,-1
 1367 1458 l 1,6,-1
 1367 1278 l 1,7,-1
 689 199 l 1,8,-1
 1367 199 l 1,9,-1
 1367 0 l 1,0,-1
EndSplineSet
Validated: 1
EndChar

StartChar: bracketleft
Encoding: 91 91 83
Width: 711
Flags: W
LayerCount: 2
Fore
SplineSet
623 -152 m 1,0,-1
 176 -152 l 1,1,-1
 176 1610 l 1,2,-1
 623 1610 l 1,3,-1
 623 1423 l 1,4,-1
 385 1423 l 1,5,-1
 385 35 l 1,6,-1
 623 35 l 1,7,-1
 623 -152 l 1,0,-1
EndSplineSet
Validated: 1
EndChar

StartChar: backslash
Encoding: 92 92 84
Width: 778
Flags: W
LayerCount: 2
Fore
SplineSet
778 -152 m 1,0,-1
 578 -152 l 1,1,-1
 0 1593 l 1,2,-1
 201 1593 l 1,3,-1
 778 -152 l 1,0,-1
EndSplineSet
Validated: 1
EndChar

StartChar: bracketright
Encoding: 93 93 85
Width: 711
Flags: W
LayerCount: 2
Fore
SplineSet
535 -152 m 1,0,-1
 88 -152 l 1,1,-1
 88 33 l 1,2,-1
 330 33 l 1,3,-1
 330 1425 l 1,4,-1
 88 1425 l 1,5,-1
 88 1610 l 1,6,-1
 535 1610 l 1,7,-1
 535 -152 l 1,0,-1
EndSplineSet
Validated: 1
EndChar

StartChar: asciicircum
Encoding: 94 94 86
Width: 1169
Flags: W
LayerCount: 2
Fore
SplineSet
1030 821 m 1,0,-1
 813 821 l 1,1,-1
 584 1245 l 1,2,-1
 354 821 l 1,3,-1
 137 821 l 1,4,-1
 489 1473 l 1,5,-1
 680 1473 l 1,6,-1
 1030 821 l 1,0,-1
EndSplineSet
Validated: 1
EndChar

StartChar: underscore
Encoding: 95 95 87
Width: 1169
Flags: W
LayerCount: 2
Fore
SplineSet
1169 -352 m 1,0,-1
 0 -352 l 1,1,-1
 0 -209 l 1,2,-1
 1169 -209 l 1,3,-1
 1169 -352 l 1,0,-1
EndSplineSet
Validated: 1
EndChar

StartChar: grave
Encoding: 96 96 88
Width: 1024
Flags: W
LayerCount: 2
Fore
SplineSet
618 1227 m 1,0,-1
 461 1227 l 1,1,-1
 233 1559 l 1,2,-1
 465 1559 l 1,3,-1
 618 1227 l 1,0,-1
EndSplineSet
Validated: 1
EndChar

StartChar: a
Encoding: 97 97 89
Width: 1085
Flags: W
LayerCount: 2
Fore
SplineSet
930 0 m 1,0,-1
 725 0 l 1,1,-1
 725 94 l 1,2,3
 668 37 668 37 606 12.5 c 128,-1,4
 544 -12 544 -12 449 -12 c 0,5,6
 355 -12 355 -12 286 11.5 c 128,-1,7
 217 35 217 35 170 82 c 0,8,9
 88 167 88 167 88 305 c 0,10,11
 88 394 88 394 129 461.5 c 128,-1,12
 170 529 170 529 250.5 566.5 c 128,-1,13
 331 604 331 604 446 604 c 2,14,-1
 721 604 l 1,15,-1
 721 678 l 2,16,17
 721 778 721 778 667 825 c 128,-1,18
 613 872 613 872 494 872 c 0,19,20
 407 872 407 872 358.5 850 c 128,-1,21
 310 828 310 828 266 772 c 1,22,-1
 129 901 l 1,23,24
 200 985 200 985 285 1018 c 128,-1,25
 370 1051 370 1051 502 1051 c 0,26,27
 930 1051 930 1051 930 694 c 2,28,-1
 930 0 l 1,0,-1
721 375 m 2,29,-1
 721 459 l 1,30,-1
 477 459 l 2,31,32
 386 459 386 459 338.5 420 c 128,-1,33
 291 381 291 381 291 309 c 0,34,35
 291 162 291 162 481 162 c 0,36,37
 548 162 548 162 593 173.5 c 128,-1,38
 638 185 638 185 676 221 c 0,39,40
 721 266 721 266 721 375 c 2,29,-1
EndSplineSet
Validated: 1
EndChar

StartChar: b
Encoding: 98 98 90
Width: 1133
Flags: W
LayerCount: 2
Fore
SplineSet
1016 520 m 256,0,1
 1016 422 1016 422 1008 346 c 128,-1,2
 1000 270 1000 270 973.5 199 c 128,-1,3
 947 128 947 128 899 80 c 0,4,5
 857 38 857 38 790 13 c 128,-1,6
 723 -12 723 -12 645 -12 c 0,7,8
 557 -12 557 -12 492.5 15 c 128,-1,9
 428 42 428 42 371 111 c 1,10,-1
 371 0 l 1,11,-1
 166 0 l 1,12,-1
 166 1458 l 1,13,-1
 375 1458 l 1,14,-1
 375 934 l 1,15,16
 429 998 429 998 494.5 1024.5 c 128,-1,17
 560 1051 560 1051 647 1051 c 0,18,19
 724 1051 724 1051 790.5 1026 c 128,-1,20
 857 1001 857 1001 899 958 c 0,21,22
 947 910 947 910 973.5 839.5 c 128,-1,23
 1000 769 1000 769 1008 693.5 c 128,-1,24
 1016 618 1016 618 1016 520 c 256,0,1
807 520 m 0,25,26
 807 626 807 626 791 700.5 c 128,-1,27
 775 775 775 775 727.5 819.5 c 128,-1,28
 680 864 680 864 592 864 c 0,29,30
 503 864 503 864 455 819 c 128,-1,31
 407 774 407 774 391 700 c 128,-1,32
 375 626 375 626 375 520 c 256,33,34
 375 414 375 414 391 339.5 c 128,-1,35
 407 265 407 265 455 219.5 c 128,-1,36
 503 174 503 174 592 174 c 0,37,38
 720 174 720 174 763.5 265.5 c 128,-1,39
 807 357 807 357 807 520 c 0,25,26
EndSplineSet
Validated: 1
EndChar

StartChar: c
Encoding: 99 99 91
Width: 993
Flags: W
LayerCount: 2
Fore
SplineSet
918 135 m 1,0,1
 871 85 871 85 818 51.5 c 128,-1,2
 765 18 765 18 706 3 c 128,-1,3
 647 -12 647 -12 575 -12 c 0,4,5
 453 -12 453 -12 347.5 42 c 128,-1,6
 242 96 242 96 177.5 216 c 128,-1,7
 113 336 113 336 113 520 c 0,8,9
 113 661 113 661 151 763 c 128,-1,10
 189 865 189 865 254 929 c 128,-1,11
 319 993 319 993 402 1022 c 128,-1,12
 485 1051 485 1051 575 1051 c 0,13,14
 685 1051 685 1051 765.5 1017 c 128,-1,15
 846 983 846 983 918 905 c 1,16,-1
 774 766 l 1,17,18
 726 820 726 820 682 842 c 128,-1,19
 638 864 638 864 575 864 c 0,20,21
 453 864 453 864 383 772 c 0,22,23
 349 729 349 729 335.5 671 c 128,-1,24
 322 613 322 613 322 520 c 0,25,26
 322 345 322 345 383 266 c 0,27,28
 453 174 453 174 575 174 c 0,29,30
 636 174 636 174 681 196.5 c 128,-1,31
 726 219 726 219 774 272 c 1,32,-1
 918 135 l 1,0,1
EndSplineSet
Validated: 1
EndChar

StartChar: d
Encoding: 100 100 92
Width: 1133
Flags: W
LayerCount: 2
Fore
SplineSet
967 0 m 1,0,-1
 762 0 l 1,1,-1
 762 111 l 1,2,3
 723 63 723 63 682 37 c 128,-1,4
 641 11 641 11 594 -0.5 c 128,-1,5
 547 -12 547 -12 487 -12 c 0,6,7
 410 -12 410 -12 343.5 13 c 128,-1,8
 277 38 277 38 233 80 c 0,9,10
 184 129 184 129 158.5 199.5 c 128,-1,11
 133 270 133 270 125 346 c 128,-1,12
 117 422 117 422 117 520 c 256,13,14
 117 618 117 618 125 693.5 c 128,-1,15
 133 769 133 769 158.5 839 c 128,-1,16
 184 909 184 909 233 958 c 0,17,18
 277 1002 277 1002 343 1026.5 c 128,-1,19
 409 1051 409 1051 485 1051 c 0,20,21
 572 1051 572 1051 637.5 1025 c 128,-1,22
 703 999 703 999 758 934 c 1,23,-1
 758 1458 l 1,24,-1
 967 1458 l 1,25,-1
 967 0 l 1,0,-1
758 520 m 0,26,27
 758 626 758 626 742 700.5 c 128,-1,28
 726 775 726 775 678.5 819.5 c 128,-1,29
 631 864 631 864 543 864 c 0,30,31
 454 864 454 864 406 819 c 128,-1,32
 358 774 358 774 342 700 c 128,-1,33
 326 626 326 626 326 520 c 256,34,35
 326 414 326 414 342 339.5 c 128,-1,36
 358 265 358 265 406 219.5 c 128,-1,37
 454 174 454 174 543 174 c 0,38,39
 671 174 671 174 714.5 265.5 c 128,-1,40
 758 357 758 357 758 520 c 0,26,27
EndSplineSet
Validated: 1
EndChar

StartChar: e
Encoding: 101 101 93
Width: 1104
Flags: W
LayerCount: 2
Fore
SplineSet
993 459 m 1,0,-1
 319 459 l 1,1,2
 319 368 319 368 350 303.5 c 128,-1,3
 381 239 381 239 439.5 203.5 c 128,-1,4
 498 168 498 168 584 168 c 256,5,6
 670 168 670 168 723 192 c 128,-1,7
 776 216 776 216 836 274 c 1,8,-1
 969 150 l 1,9,10
 884 65 884 65 797 26.5 c 128,-1,11
 710 -12 710 -12 580 -12 c 0,12,13
 480 -12 480 -12 394.5 17 c 128,-1,14
 309 46 309 46 246 109 c 128,-1,15
 183 172 183 172 148 274 c 128,-1,16
 113 376 113 376 113 520 c 0,17,18
 113 687 113 687 167.5 806 c 128,-1,19
 222 925 222 925 321 988 c 128,-1,20
 420 1051 420 1051 553 1051 c 0,21,22
 689 1051 689 1051 789 988 c 128,-1,23
 889 925 889 925 941 811.5 c 128,-1,24
 993 698 993 698 993 551 c 2,25,-1
 993 459 l 1,0,-1
786 604 m 1,26,27
 783 685 783 685 758 745 c 128,-1,28
 733 805 733 805 679.5 841 c 128,-1,29
 626 877 626 877 553 877 c 0,30,31
 481 877 481 877 426.5 841 c 128,-1,32
 372 805 372 805 346 745 c 0,33,34
 332 713 332 713 327.5 688.5 c 128,-1,35
 323 664 323 664 319 604 c 1,36,-1
 786 604 l 1,26,27
EndSplineSet
Validated: 1
EndChar

StartChar: f
Encoding: 102 102 94
Width: 672
Flags: W
LayerCount: 2
Fore
SplineSet
614 860 m 1,0,-1
 408 860 l 1,1,-1
 408 0 l 1,2,-1
 199 0 l 1,3,-1
 199 860 l 1,4,-1
 80 860 l 1,5,-1
 80 1020 l 1,6,-1
 199 1020 l 1,7,-1
 199 1180 l 2,8,9
 199 1257 199 1257 230.5 1323 c 128,-1,10
 262 1389 262 1389 326 1428.5 c 128,-1,11
 390 1468 390 1468 483 1468 c 2,12,-1
 614 1468 l 1,13,-1
 614 1290 l 1,14,-1
 522 1290 l 2,15,16
 408 1290 408 1290 408 1169 c 2,17,-1
 408 1020 l 1,18,-1
 614 1020 l 1,19,-1
 614 860 l 1,0,-1
EndSplineSet
Validated: 1
EndChar

StartChar: g
Encoding: 103 103 95
Width: 1124
Flags: W
LayerCount: 2
Fore
SplineSet
958 6 m 2,0,1
 958 -122 958 -122 904.5 -220.5 c 128,-1,2
 851 -319 851 -319 751 -375.5 c 128,-1,3
 651 -432 651 -432 514 -432 c 0,4,5
 434 -432 434 -432 372 -418.5 c 128,-1,6
 310 -405 310 -405 255.5 -374.5 c 128,-1,7
 201 -344 201 -344 147 -295 c 1,8,-1
 281 -162 l 1,9,10
 335 -211 335 -211 384.5 -232.5 c 128,-1,11
 434 -254 434 -254 506 -254 c 0,12,13
 630 -254 630 -254 690 -179 c 128,-1,14
 750 -104 750 -104 750 10 c 2,15,-1
 750 143 l 1,16,17
 696 79 696 79 631 52 c 128,-1,18
 566 25 566 25 481 25 c 0,19,20
 407 25 407 25 342 49 c 128,-1,21
 277 73 277 73 233 117 c 0,22,23
 163 187 163 187 140 287 c 128,-1,24
 117 387 117 387 117 539 c 0,25,26
 117 690 117 690 140.5 791 c 128,-1,27
 164 892 164 892 233 961 c 0,28,29
 276 1004 276 1004 340 1027.5 c 128,-1,30
 404 1051 404 1051 483 1051 c 0,31,32
 570 1051 570 1051 634.5 1024 c 128,-1,33
 699 997 699 997 756 928 c 1,34,-1
 756 1038 l 1,35,-1
 958 1038 l 1,36,-1
 958 6 l 2,0,1
750 539 m 256,37,38
 750 689 750 689 708.5 776.5 c 128,-1,39
 667 864 667 864 539 864 c 0,40,41
 410 864 410 864 368 777 c 128,-1,42
 326 690 326 690 326 539 c 256,43,44
 326 388 326 388 368 300.5 c 128,-1,45
 410 213 410 213 539 213 c 0,46,47
 667 213 667 213 708.5 301 c 128,-1,48
 750 389 750 389 750 539 c 256,37,38
EndSplineSet
Validated: 1
EndChar

StartChar: h
Encoding: 104 104 96
Width: 1159
Flags: W
LayerCount: 2
Fore
SplineSet
1004 0 m 1,0,-1
 795 0 l 1,1,-1
 795 637 l 2,2,3
 795 751 795 751 737 807.5 c 128,-1,4
 679 864 679 864 586 864 c 256,5,6
 493 864 493 864 434 806.5 c 128,-1,7
 375 749 375 749 375 637 c 2,8,-1
 375 0 l 1,9,-1
 166 0 l 1,10,-1
 166 1458 l 1,11,-1
 375 1458 l 1,12,-1
 375 934 l 1,13,14
 481 1051 481 1051 643 1051 c 0,15,16
 755 1051 755 1051 837 1003.5 c 128,-1,17
 919 956 919 956 961.5 870 c 128,-1,18
 1004 784 1004 784 1004 670 c 2,19,-1
 1004 0 l 1,0,-1
EndSplineSet
Validated: 1
EndChar

StartChar: i
Encoding: 105 105 97
Width: 541
Flags: W
LayerCount: 2
Fore
SplineSet
381 1243 m 1,0,-1
 160 1243 l 1,1,-1
 160 1464 l 1,2,-1
 381 1464 l 1,3,-1
 381 1243 l 1,0,-1
375 0 m 1,4,-1
 166 0 l 1,5,-1
 166 1038 l 1,6,-1
 375 1038 l 1,7,-1
 375 0 l 1,4,-1
EndSplineSet
Validated: 1
EndChar

StartChar: j
Encoding: 106 106 98
Width: 541
Flags: W
LayerCount: 2
Fore
SplineSet
381 1243 m 1,0,-1
 160 1243 l 1,1,-1
 160 1464 l 1,2,-1
 381 1464 l 1,3,-1
 381 1243 l 1,0,-1
375 -137 m 2,4,5
 375 -263 375 -263 303.5 -343.5 c 128,-1,6
 232 -424 232 -424 90 -424 c 2,7,-1
 -39 -424 l 1,8,-1
 -39 -246 l 1,9,-1
 53 -246 l 2,10,11
 114 -246 114 -246 140 -216.5 c 128,-1,12
 166 -187 166 -187 166 -125 c 2,13,-1
 166 1038 l 1,14,-1
 375 1038 l 1,15,-1
 375 -137 l 2,4,5
EndSplineSet
Validated: 1
EndChar

StartChar: k
Encoding: 107 107 99
Width: 1122
Flags: W
LayerCount: 2
Fore
SplineSet
1077 0 m 1,0,-1
 819 0 l 1,1,-1
 528 479 l 1,2,-1
 375 305 l 1,3,-1
 375 0 l 1,4,-1
 166 0 l 1,5,-1
 166 1458 l 1,6,-1
 375 1458 l 1,7,-1
 375 559 l 1,8,-1
 778 1038 l 1,9,-1
 1032 1038 l 1,10,-1
 672 631 l 1,11,-1
 1077 0 l 1,0,-1
EndSplineSet
Validated: 1
EndChar

StartChar: l
Encoding: 108 108 100
Width: 637
Flags: W
LayerCount: 2
Fore
SplineSet
573 0 m 1,0,-1
 444 0 l 2,1,2
 303 0 303 0 231.5 81.5 c 128,-1,3
 160 163 160 163 160 287 c 2,4,-1
 160 1458 l 1,5,-1
 369 1458 l 1,6,-1
 369 299 l 2,7,8
 369 237 369 237 394 207.5 c 128,-1,9
 419 178 419 178 481 178 c 2,10,-1
 573 178 l 1,11,-1
 573 0 l 1,0,-1
EndSplineSet
Validated: 1
EndChar

StartChar: m
Encoding: 109 109 101
Width: 1796
Flags: W
LayerCount: 2
Fore
SplineSet
1640 0 m 1,0,-1
 1432 0 l 1,1,-1
 1432 633 l 2,2,3
 1432 750 1432 750 1374 807 c 128,-1,4
 1316 864 1316 864 1223 864 c 0,5,6
 1133 864 1133 864 1070.5 806 c 128,-1,7
 1008 748 1008 748 1008 643 c 2,8,-1
 1008 0 l 1,9,-1
 799 0 l 1,10,-1
 799 633 l 2,11,12
 799 711 799 711 771.5 763 c 128,-1,13
 744 815 744 815 697 839.5 c 128,-1,14
 650 864 650 864 590 864 c 0,15,16
 496 864 496 864 435.5 805.5 c 128,-1,17
 375 747 375 747 375 633 c 2,18,-1
 375 0 l 1,19,-1
 166 0 l 1,20,-1
 166 1038 l 1,21,-1
 371 1038 l 1,22,-1
 371 934 l 1,23,24
 422 990 422 990 494 1020.5 c 128,-1,25
 566 1051 566 1051 647 1051 c 0,26,27
 843 1051 843 1051 942 899 c 1,28,29
 1067 1051 1067 1051 1268 1051 c 0,30,31
 1432 1051 1432 1051 1530 956 c 0,32,33
 1640 850 1640 850 1640 664 c 2,34,-1
 1640 0 l 1,0,-1
EndSplineSet
Validated: 1
EndChar

StartChar: n
Encoding: 110 110 102
Width: 1163
Flags: W
LayerCount: 2
Fore
SplineSet
1008 0 m 1,0,-1
 799 0 l 1,1,-1
 799 633 l 2,2,3
 799 711 799 711 771.5 763 c 128,-1,4
 744 815 744 815 697 839.5 c 128,-1,5
 650 864 650 864 590 864 c 0,6,7
 496 864 496 864 435.5 805.5 c 128,-1,8
 375 747 375 747 375 633 c 2,9,-1
 375 0 l 1,10,-1
 166 0 l 1,11,-1
 166 1038 l 1,12,-1
 371 1038 l 1,13,-1
 371 934 l 1,14,15
 423 991 423 991 496 1021 c 128,-1,16
 569 1051 569 1051 647 1051 c 0,17,18
 806 1051 806 1051 903 956 c 0,19,20
 1008 855 1008 855 1008 664 c 2,21,-1
 1008 0 l 1,0,-1
EndSplineSet
Validated: 1
EndChar

StartChar: o
Encoding: 111 111 103
Width: 1100
Flags: W
LayerCount: 2
Fore
SplineSet
983 520 m 0,0,1
 983 376 983 376 957 280 c 128,-1,2
 931 184 931 184 860 111 c 0,3,4
 742 -12 742 -12 549 -12 c 0,5,6
 358 -12 358 -12 240 111 c 0,7,8
 170 184 170 184 143.5 280.5 c 128,-1,9
 117 377 117 377 117 520 c 0,10,11
 117 660 117 660 144 758 c 128,-1,12
 171 856 171 856 240 928 c 0,13,14
 274 964 274 964 319 991 c 128,-1,15
 364 1018 364 1018 423.5 1034.5 c 128,-1,16
 483 1051 483 1051 549 1051 c 0,17,18
 652 1051 652 1051 730 1017 c 128,-1,19
 808 983 808 983 860 928 c 0,20,21
 930 855 930 855 956.5 758.5 c 128,-1,22
 983 662 983 662 983 520 c 0,0,1
774 520 m 0,23,24
 774 622 774 622 760 691.5 c 128,-1,25
 746 761 746 761 702 805 c 0,26,27
 645 864 645 864 549 864 c 0,28,29
 456 864 456 864 397 805 c 0,30,31
 354 761 354 761 340 691.5 c 128,-1,32
 326 622 326 622 326 520 c 0,33,34
 326 419 326 419 340 349.5 c 128,-1,35
 354 280 354 280 397 236 c 0,36,37
 459 174 459 174 549 174 c 0,38,39
 642 174 642 174 702 236 c 0,40,41
 746 280 746 280 760 349.5 c 128,-1,42
 774 419 774 419 774 520 c 0,23,24
EndSplineSet
Validated: 1
EndChar

StartChar: p
Encoding: 112 112 104
Width: 1133
Flags: W
LayerCount: 2
Fore
SplineSet
1016 520 m 256,0,1
 1016 422 1016 422 1008 346 c 128,-1,2
 1000 270 1000 270 973.5 199 c 128,-1,3
 947 128 947 128 899 80 c 0,4,5
 856 37 856 37 790 12.5 c 128,-1,6
 724 -12 724 -12 647 -12 c 0,7,8
 561 -12 561 -12 494.5 15.5 c 128,-1,9
 428 43 428 43 375 106 c 1,10,-1
 375 -420 l 1,11,-1
 166 -420 l 1,12,-1
 166 1038 l 1,13,-1
 371 1038 l 1,14,-1
 371 928 l 1,15,16
 428 997 428 997 492.5 1024 c 128,-1,17
 557 1051 557 1051 645 1051 c 0,18,19
 723 1051 723 1051 790.5 1026 c 128,-1,20
 858 1001 858 1001 899 958 c 0,21,22
 947 910 947 910 973.5 839.5 c 128,-1,23
 1000 769 1000 769 1008 693.5 c 128,-1,24
 1016 618 1016 618 1016 520 c 256,0,1
807 520 m 0,25,26
 807 626 807 626 791 700.5 c 128,-1,27
 775 775 775 775 727.5 819.5 c 128,-1,28
 680 864 680 864 592 864 c 0,29,30
 503 864 503 864 455 819 c 128,-1,31
 407 774 407 774 391 700 c 128,-1,32
 375 626 375 626 375 520 c 256,33,34
 375 414 375 414 391 339.5 c 128,-1,35
 407 265 407 265 455 219.5 c 128,-1,36
 503 174 503 174 592 174 c 0,37,38
 720 174 720 174 763.5 265.5 c 128,-1,39
 807 357 807 357 807 520 c 0,25,26
EndSplineSet
Validated: 1
EndChar

StartChar: q
Encoding: 113 113 105
Width: 1133
Flags: W
LayerCount: 2
Fore
SplineSet
967 -420 m 1,0,-1
 758 -420 l 1,1,-1
 758 106 l 1,2,3
 722 63 722 63 679.5 36.5 c 128,-1,4
 637 10 637 10 590.5 -1 c 128,-1,5
 544 -12 544 -12 485 -12 c 0,6,7
 409 -12 409 -12 343.5 12.5 c 128,-1,8
 278 37 278 37 233 80 c 0,9,10
 184 129 184 129 158.5 199.5 c 128,-1,11
 133 270 133 270 125 346 c 128,-1,12
 117 422 117 422 117 520 c 256,13,14
 117 618 117 618 125 693.5 c 128,-1,15
 133 769 133 769 158.5 839 c 128,-1,16
 184 909 184 909 233 958 c 0,17,18
 276 1001 276 1001 343 1026 c 128,-1,19
 410 1051 410 1051 487 1051 c 0,20,21
 576 1051 576 1051 640.5 1024 c 128,-1,22
 705 997 705 997 762 928 c 1,23,-1
 762 1038 l 1,24,-1
 967 1038 l 1,25,-1
 967 -420 l 1,0,-1
758 520 m 0,26,27
 758 626 758 626 742 700.5 c 128,-1,28
 726 775 726 775 678.5 819.5 c 128,-1,29
 631 864 631 864 543 864 c 0,30,31
 454 864 454 864 406 819 c 128,-1,32
 358 774 358 774 342 700 c 128,-1,33
 326 626 326 626 326 520 c 256,34,35
 326 414 326 414 342 339.5 c 128,-1,36
 358 265 358 265 406 219.5 c 128,-1,37
 454 174 454 174 543 174 c 0,38,39
 671 174 671 174 714.5 265.5 c 128,-1,40
 758 357 758 357 758 520 c 0,26,27
EndSplineSet
Validated: 1
EndChar

StartChar: r
Encoding: 114 114 106
Width: 899
Flags: W
LayerCount: 2
Fore
SplineSet
895 952 m 1,0,-1
 737 795 l 1,1,2
 701 832 701 832 668 848 c 128,-1,3
 635 864 635 864 582 864 c 0,4,5
 526 864 526 864 478.5 835 c 128,-1,6
 431 806 431 806 403 753.5 c 128,-1,7
 375 701 375 701 375 631 c 2,8,-1
 375 0 l 1,9,-1
 166 0 l 1,10,-1
 166 1038 l 1,11,-1
 371 1038 l 1,12,-1
 371 926 l 1,13,14
 412 983 412 983 486.5 1017 c 128,-1,15
 561 1051 561 1051 647 1051 c 0,16,17
 724 1051 724 1051 782.5 1028.5 c 128,-1,18
 841 1006 841 1006 895 952 c 1,0,-1
EndSplineSet
Validated: 1
EndChar

StartChar: s
Encoding: 115 115 107
Width: 1022
Flags: W
LayerCount: 2
Fore
SplineSet
934 317 m 0,0,1
 934 211 934 211 879 137 c 128,-1,2
 824 63 824 63 727 25.5 c 128,-1,3
 630 -12 630 -12 502 -12 c 0,4,5
 409 -12 409 -12 333.5 1 c 128,-1,6
 258 14 258 14 192.5 46 c 128,-1,7
 127 78 127 78 66 137 c 1,8,-1
 203 274 l 1,9,10
 308 166 308 166 502 166 c 0,11,12
 566 166 566 166 618.5 182 c 128,-1,13
 671 198 671 198 700 230 c 128,-1,14
 729 262 729 262 729 309 c 0,15,16
 729 421 729 421 590 432 c 2,17,-1
 424 446 l 2,18,19
 325 455 325 455 256.5 488 c 128,-1,20
 188 521 188 521 152.5 582 c 128,-1,21
 117 643 117 643 117 733 c 0,22,23
 117 880 117 880 228.5 965.5 c 128,-1,24
 340 1051 340 1051 508 1051 c 0,25,26
 759 1051 759 1051 893 934 c 1,27,-1
 762 801 l 1,28,29
 671 877 671 877 506 877 c 0,30,31
 414 877 414 877 365.5 841 c 128,-1,32
 317 805 317 805 317 743 c 0,33,34
 317 638 317 638 461 625 c 2,35,-1
 625 610 l 2,36,37
 722 602 722 602 791.5 568 c 128,-1,38
 861 534 861 534 897.5 471 c 128,-1,39
 934 408 934 408 934 317 c 0,0,1
EndSplineSet
Validated: 1
EndChar

StartChar: t
Encoding: 116 116 108
Width: 700
Flags: W
LayerCount: 2
Fore
SplineSet
600 0 m 1,0,-1
 475 0 l 2,1,2
 383 0 383 0 318.5 40 c 128,-1,3
 254 80 254 80 222 145.5 c 128,-1,4
 190 211 190 211 190 289 c 2,5,-1
 190 860 l 1,6,-1
 72 860 l 1,7,-1
 72 1020 l 1,8,-1
 190 1020 l 1,9,-1
 190 1335 l 1,10,-1
 399 1335 l 1,11,-1
 399 1020 l 1,12,-1
 600 1020 l 1,13,-1
 600 860 l 1,14,-1
 399 860 l 1,15,-1
 399 299 l 2,16,17
 399 178 399 178 514 178 c 2,18,-1
 600 178 l 1,19,-1
 600 0 l 1,0,-1
EndSplineSet
Validated: 1
EndChar

StartChar: u
Encoding: 117 117 109
Width: 1163
Flags: W
LayerCount: 2
Fore
SplineSet
997 0 m 1,0,-1
 793 0 l 1,1,-1
 793 104 l 1,2,3
 740 48 740 48 667.5 18 c 128,-1,4
 595 -12 595 -12 516 -12 c 0,5,6
 359 -12 359 -12 260 82 c 0,7,8
 203 138 203 138 179.5 209.5 c 128,-1,9
 156 281 156 281 156 375 c 2,10,-1
 156 1038 l 1,11,-1
 365 1038 l 1,12,-1
 365 406 l 2,13,14
 365 290 365 290 423 232 c 128,-1,15
 481 174 481 174 573 174 c 0,16,17
 667 174 667 174 727.5 232.5 c 128,-1,18
 788 291 788 291 788 406 c 2,19,-1
 788 1038 l 1,20,-1
 997 1038 l 1,21,-1
 997 0 l 1,0,-1
EndSplineSet
Validated: 1
EndChar

StartChar: v
Encoding: 118 118 110
Width: 965
Flags: W
LayerCount: 2
Fore
SplineSet
948 1038 m 1,0,-1
 567 0 l 1,1,-1
 397 0 l 1,2,-1
 16 1038 l 1,3,-1
 238 1038 l 1,4,-1
 483 307 l 1,5,-1
 727 1038 l 1,6,-1
 948 1038 l 1,0,-1
EndSplineSet
Validated: 1
EndChar

StartChar: w
Encoding: 119 119 111
Width: 1522
Flags: W
LayerCount: 2
Fore
SplineSet
1505 1038 m 1,0,-1
 1182 0 l 1,1,-1
 1004 0 l 1,2,-1
 760 725 l 1,3,-1
 518 0 l 1,4,-1
 338 0 l 1,5,-1
 16 1038 l 1,6,-1
 238 1038 l 1,7,-1
 438 307 l 1,8,-1
 680 1038 l 1,9,-1
 842 1038 l 1,10,-1
 1081 307 l 1,11,-1
 1282 1038 l 1,12,-1
 1505 1038 l 1,0,-1
EndSplineSet
Validated: 1
EndChar

StartChar: x
Encoding: 120 120 112
Width: 1030
Flags: W
LayerCount: 2
Fore
SplineSet
985 0 m 1,0,-1
 733 0 l 1,1,-1
 516 354 l 1,2,-1
 297 0 l 1,3,-1
 45 0 l 1,4,-1
 401 530 l 1,5,-1
 59 1038 l 1,6,-1
 311 1038 l 1,7,-1
 516 700 l 1,8,-1
 719 1038 l 1,9,-1
 971 1038 l 1,10,-1
 631 530 l 1,11,-1
 985 0 l 1,0,-1
EndSplineSet
Validated: 1
EndChar

StartChar: y
Encoding: 121 121 113
Width: 958
Flags: W
LayerCount: 2
Fore
SplineSet
950 1038 m 1,0,-1
 492 -207 l 2,1,2
 462 -288 462 -288 416 -336 c 0,3,4
 339 -412 339 -412 203 -412 c 2,5,-1
 119 -412 l 1,6,-1
 119 -223 l 1,7,-1
 172 -223 l 2,8,9
 237 -223 237 -223 268.5 -199.5 c 128,-1,10
 300 -176 300 -176 322 -113 c 2,11,-1
 379 49 l 1,12,-1
 16 1038 l 1,13,-1
 238 1038 l 1,14,-1
 485 307 l 1,15,-1
 727 1038 l 1,16,-1
 950 1038 l 1,0,-1
EndSplineSet
Validated: 1
EndChar

StartChar: z
Encoding: 122 122 114
Width: 961
Flags: W
LayerCount: 2
Fore
SplineSet
862 0 m 1,0,-1
 88 0 l 1,1,-1
 88 166 l 1,2,-1
 604 852 l 1,3,-1
 117 852 l 1,4,-1
 117 1038 l 1,5,-1
 862 1038 l 1,6,-1
 862 872 l 1,7,-1
 342 186 l 1,8,-1
 862 186 l 1,9,-1
 862 0 l 1,0,-1
EndSplineSet
Validated: 1
EndChar

StartChar: braceleft
Encoding: 123 123 115
Width: 834
Flags: W
LayerCount: 2
Fore
SplineSet
741 -152 m 1,0,-1
 596 -152 l 2,1,2
 447 -152 447 -152 377 -82 c 0,3,4
 337 -40 337 -40 320 9.5 c 128,-1,5
 303 59 303 59 303 133 c 2,6,-1
 303 475 l 2,7,8
 303 561 303 561 266 598 c 0,9,10
 229 637 229 637 168 637 c 2,11,-1
 92 637 l 1,12,-1
 92 821 l 1,13,-1
 168 821 l 2,14,15
 227 821 227 821 266 860 c 0,16,17
 303 897 303 897 303 983 c 2,18,-1
 303 1325 l 2,19,20
 303 1401 303 1401 320.5 1451 c 128,-1,21
 338 1501 338 1501 377 1540 c 0,22,23
 447 1610 447 1610 596 1610 c 2,24,-1
 741 1610 l 1,25,-1
 741 1423 l 1,26,-1
 662 1423 l 2,27,28
 568 1423 568 1423 543 1395 c 0,29,30
 512 1364 512 1364 512 1264 c 2,31,-1
 512 934 l 2,32,33
 512 844 512 844 475.5 800.5 c 128,-1,34
 439 757 439 757 377 729 c 1,35,36
 438 703 438 703 475 659 c 128,-1,37
 512 615 512 615 512 524 c 2,38,-1
 512 195 l 2,39,40
 512 94 512 94 543 63 c 0,41,42
 568 35 568 35 662 35 c 2,43,-1
 741 35 l 1,44,-1
 741 -152 l 1,0,-1
EndSplineSet
Validated: 1
EndChar

StartChar: bar
Encoding: 124 124 116
Width: 692
Flags: W
LayerCount: 2
Fore
SplineSet
451 -152 m 1,0,-1
 242 -152 l 1,1,-1
 242 1610 l 1,2,-1
 451 1610 l 1,3,-1
 451 -152 l 1,0,-1
EndSplineSet
Validated: 1
EndChar

StartChar: braceright
Encoding: 125 125 117
Width: 834
Flags: W
LayerCount: 2
Fore
SplineSet
741 637 m 1,0,-1
 668 637 l 2,1,2
 606 637 606 637 567 598 c 0,3,4
 530 559 530 559 530 475 c 2,5,-1
 530 133 l 2,6,7
 530 59 530 59 513.5 8.5 c 128,-1,8
 497 -42 497 -42 457 -82 c 0,9,10
 387 -152 387 -152 238 -152 c 2,11,-1
 92 -152 l 1,12,-1
 92 35 l 1,13,-1
 172 35 l 2,14,15
 264 35 264 35 291 63 c 0,16,17
 322 95 322 95 322 195 c 2,18,-1
 322 524 l 2,19,20
 322 614 322 614 359.5 658.5 c 128,-1,21
 397 703 397 703 459 729 c 1,22,23
 395 758 395 758 358.5 801.5 c 128,-1,24
 322 845 322 845 322 934 c 2,25,-1
 322 1264 l 2,26,27
 322 1363 322 1363 291 1395 c 0,28,29
 264 1423 264 1423 172 1423 c 2,30,-1
 92 1423 l 1,31,-1
 92 1610 l 1,32,-1
 238 1610 l 2,33,34
 387 1610 387 1610 457 1540 c 0,35,36
 496 1502 496 1502 513 1451.5 c 128,-1,37
 530 1401 530 1401 530 1325 c 2,38,-1
 530 983 l 2,39,40
 530 899 530 899 567 860 c 0,41,42
 608 821 608 821 668 821 c 2,43,-1
 741 821 l 1,44,-1
 741 637 l 1,0,-1
EndSplineSet
Validated: 1
EndChar

StartChar: asciitilde
Encoding: 126 126 118
Width: 1176
Flags: W
LayerCount: 2
Fore
SplineSet
1087 573 m 1,0,1
 996 482 996 482 930 448 c 128,-1,2
 864 414 864 414 784 414 c 0,3,4
 732 414 732 414 679.5 430.5 c 128,-1,5
 627 447 627 447 555 481 c 0,6,7
 459 530 459 530 393 530 c 0,8,9
 347 530 347 530 311.5 513.5 c 128,-1,10
 276 497 276 497 219 440 c 1,11,-1
 88 571 l 1,12,13
 147 630 147 630 195 665.5 c 128,-1,14
 243 701 243 701 288 716 c 128,-1,15
 333 731 333 731 389 731 c 0,16,17
 447 731 447 731 499.5 713.5 c 128,-1,18
 552 696 552 696 616 664 c 0,19,20
 637 654 637 654 654.5 646 c 128,-1,21
 672 638 672 638 699.5 629 c 128,-1,22
 727 620 727 620 741.5 617 c 128,-1,23
 756 614 756 614 780 614 c 0,24,25
 827 614 827 614 863 631.5 c 128,-1,26
 899 649 899 649 954 705 c 1,27,-1
 1087 573 l 1,0,1
EndSplineSet
Validated: 1
EndChar

StartChar: dagger
Encoding: 8224 8224 151
Width: 1210
Flags: W
LayerCount: 2
Fore
SplineSet
1077 874 m 1,0,-1
 709 874 l 1,1,-1
 709 0 l 1,2,-1
 500 0 l 1,3,-1
 500 874 l 1,4,-1
 133 874 l 1,5,-1
 133 1061 l 1,6,-1
 500 1061 l 1,7,-1
 500 1458 l 1,8,-1
 709 1458 l 1,9,-1
 709 1061 l 1,10,-1
 1077 1061 l 1,11,-1
 1077 874 l 1,0,-1
EndSplineSet
Validated: 1
EndChar

StartChar: degree
Encoding: 176 176 152
Width: 965
Flags: W
LayerCount: 2
Fore
SplineSet
840 1124 m 0,0,1
 840 1029 840 1029 792 946.5 c 128,-1,2
 744 864 744 864 660 816 c 128,-1,3
 576 768 576 768 481 768 c 0,4,5
 408 768 408 768 344.5 795 c 128,-1,6
 281 822 281 822 230 873 c 128,-1,7
 179 924 179 924 152 987.5 c 128,-1,8
 125 1051 125 1051 125 1124 c 0,9,10
 125 1219 125 1219 173 1303 c 128,-1,11
 221 1387 221 1387 303.5 1435 c 128,-1,12
 386 1483 386 1483 481 1483 c 0,13,14
 577 1483 577 1483 660 1434.5 c 128,-1,15
 743 1386 743 1386 791.5 1303 c 128,-1,16
 840 1220 840 1220 840 1124 c 0,0,1
668 1124 m 256,17,18
 668 1204 668 1204 613.5 1259.5 c 128,-1,19
 559 1315 559 1315 481 1315 c 256,20,21
 403 1315 403 1315 350 1259.5 c 128,-1,22
 297 1204 297 1204 297 1124 c 0,23,24
 297 1045 297 1045 350.5 990.5 c 128,-1,25
 404 936 404 936 481 936 c 256,26,27
 558 936 558 936 613 990 c 128,-1,28
 668 1044 668 1044 668 1124 c 256,17,18
EndSplineSet
Validated: 1
EndChar

StartChar: cent
Encoding: 162 162 153
Width: 1020
Flags: W
LayerCount: 2
Fore
SplineSet
940 377 m 1,0,1
 876 309 876 309 807 273 c 128,-1,2
 738 237 738 237 651 225 c 1,3,-1
 651 0 l 1,4,-1
 487 0 l 1,5,-1
 487 227 l 1,6,7
 377 245 377 245 292 311 c 128,-1,8
 207 377 207 377 160 489.5 c 128,-1,9
 113 602 113 602 113 750 c 0,10,11
 113 899 113 899 160 1010.5 c 128,-1,12
 207 1122 207 1122 292.5 1188 c 128,-1,13
 378 1254 378 1254 487 1272 c 1,14,-1
 487 1458 l 1,15,-1
 651 1458 l 1,16,-1
 651 1274 l 1,17,18
 738 1264 738 1264 806 1228.5 c 128,-1,19
 874 1193 874 1193 940 1122 c 1,20,-1
 801 987 l 1,21,22
 727 1071 727 1071 633 1085 c 1,23,-1
 633 414 l 1,24,25
 682 421 682 421 722 445 c 128,-1,26
 762 469 762 469 801 512 c 1,27,-1
 940 377 l 1,0,1
506 418 m 1,28,-1
 506 1081 l 1,29,30
 437 1067 437 1067 387 1001 c 0,31,32
 353 954 353 954 337.5 894 c 128,-1,33
 322 834 322 834 322 750 c 0,34,35
 322 663 322 663 337.5 603.5 c 128,-1,36
 353 544 353 544 385 498 c 0,37,38
 434 433 434 433 506 418 c 1,28,-1
EndSplineSet
Validated: 1
EndChar

StartChar: sterling
Encoding: 163 163 154
Width: 1155
Flags: W
LayerCount: 2
Fore
SplineSet
1057 0 m 1,0,-1
 215 0 l 1,1,-1
 215 641 l 1,2,-1
 88 641 l 1,3,-1
 88 801 l 1,4,-1
 215 801 l 1,5,-1
 215 997 l 2,6,7
 215 1145 215 1145 279.5 1251.5 c 128,-1,8
 344 1358 344 1358 455.5 1414 c 128,-1,9
 567 1470 567 1470 702 1470 c 0,10,11
 816 1470 816 1470 899.5 1437 c 128,-1,12
 983 1404 983 1404 1057 1329 c 1,13,-1
 909 1184 l 1,14,15
 866 1229 866 1229 821.5 1250.5 c 128,-1,16
 777 1272 777 1272 702 1272 c 0,17,18
 621 1272 621 1272 561.5 1238.5 c 128,-1,19
 502 1205 502 1205 470 1139.5 c 128,-1,20
 438 1074 438 1074 438 981 c 2,21,-1
 438 801 l 1,22,-1
 702 801 l 1,23,-1
 702 641 l 1,24,-1
 438 641 l 1,25,-1
 438 199 l 1,26,-1
 1057 199 l 1,27,-1
 1057 0 l 1,0,-1
EndSplineSet
Validated: 1
EndChar

StartChar: section
Encoding: 167 167 155
Width: 1112
Flags: W
LayerCount: 2
Fore
SplineSet
967 541 m 0,0,1
 967 431 967 431 908 347 c 128,-1,2
 849 263 849 263 768 221 c 1,3,4
 850 185 850 185 899 114 c 128,-1,5
 948 43 948 43 948 -68 c 0,6,7
 948 -180 948 -180 894.5 -263 c 128,-1,8
 841 -346 841 -346 752 -389 c 128,-1,9
 663 -432 663 -432 557 -432 c 0,10,11
 394 -432 394 -432 280 -343 c 128,-1,12
 166 -254 166 -254 160 -84 c 1,13,-1
 365 -84 l 1,14,15
 371 -160 371 -160 422 -203 c 128,-1,16
 473 -246 473 -246 557 -246 c 0,17,18
 643 -246 643 -246 693 -200 c 128,-1,19
 743 -154 743 -154 743 -74 c 0,20,21
 743 -14 743 -14 704.5 33.5 c 128,-1,22
 666 81 666 81 584 106 c 2,23,-1
 440 150 l 2,24,25
 152 237 152 237 152 530 c 0,26,27
 152 641 152 641 211.5 726 c 128,-1,28
 271 811 271 811 350 850 c 1,29,30
 267 891 267 891 222.5 955 c 128,-1,31
 178 1019 178 1019 178 1124 c 0,32,33
 178 1221 178 1221 223.5 1299.5 c 128,-1,34
 269 1378 269 1378 355.5 1424 c 128,-1,35
 442 1470 442 1470 559 1470 c 0,36,37
 675 1470 675 1470 762 1427.5 c 128,-1,38
 849 1385 849 1385 895 1308.5 c 128,-1,39
 941 1232 941 1232 944 1133 c 1,40,-1
 743 1133 l 1,41,42
 732 1288 732 1288 559 1288 c 0,43,44
 473 1288 473 1288 426 1247 c 128,-1,45
 379 1206 379 1206 379 1130 c 0,46,47
 379 1011 379 1011 532 965 c 2,48,-1
 676 922 l 2,49,50
 967 832 967 832 967 541 c 0,0,1
762 535 m 0,51,52
 762 641 762 641 702 698 c 0,53,54
 642 756 642 756 559 756 c 0,55,56
 469 756 469 756 414 698 c 0,57,58
 356 637 356 637 356 535 c 0,59,60
 356 435 356 435 414 373 c 0,61,62
 469 315 469 315 559 315 c 256,63,64
 649 315 649 315 702 373 c 0,65,66
 762 437 762 437 762 535 c 0,51,52
EndSplineSet
Validated: 1
EndChar

StartChar: bullet
Encoding: 8226 8226 156
Width: 1049
Flags: W
LayerCount: 2
Fore
SplineSet
858 684 m 256,0,1
 858 594 858 594 813 516.5 c 128,-1,2
 768 439 768 439 690.5 394.5 c 128,-1,3
 613 350 613 350 524 350 c 0,4,5
 458 350 458 350 396.5 376.5 c 128,-1,6
 335 403 335 403 289 449 c 128,-1,7
 243 495 243 495 216.5 556.5 c 128,-1,8
 190 618 190 618 190 684 c 256,9,10
 190 750 190 750 216.5 812.5 c 128,-1,11
 243 875 243 875 288.5 920.5 c 128,-1,12
 334 966 334 966 394.5 992 c 128,-1,13
 455 1018 455 1018 524 1018 c 0,14,15
 613 1018 613 1018 690.5 973.5 c 128,-1,16
 768 929 768 929 813 851.5 c 128,-1,17
 858 774 858 774 858 684 c 256,0,1
EndSplineSet
Validated: 1
EndChar

StartChar: paragraph
Encoding: 182 182 157
Width: 1305
Flags: W
LayerCount: 2
Fore
SplineSet
1114 -420 m 1,0,-1
 905 -420 l 1,1,-1
 905 1260 l 1,2,-1
 684 1260 l 1,3,-1
 684 -420 l 1,4,-1
 475 -420 l 1,5,-1
 475 649 l 1,6,7
 393 649 393 649 321 680.5 c 128,-1,8
 249 712 249 712 193.5 769 c 128,-1,9
 138 826 138 826 108 900 c 128,-1,10
 78 974 78 974 78 1051 c 0,11,12
 78 1172 78 1172 134.5 1264 c 128,-1,13
 191 1356 191 1356 296.5 1407 c 128,-1,14
 402 1458 402 1458 539 1458 c 2,15,-1
 1114 1458 l 1,16,-1
 1114 -420 l 1,0,-1
EndSplineSet
Validated: 1
EndChar

StartChar: germandbls
Encoding: 223 223 158
Width: 1157
Flags: W
LayerCount: 2
Fore
SplineSet
1026 311 m 2,0,1
 1026 158 1026 158 942 80 c 0,2,3
 856 0 856 0 709 0 c 2,4,-1
 600 0 l 1,5,-1
 600 178 l 1,6,-1
 666 178 l 2,7,8
 701 178 701 178 725.5 186 c 128,-1,9
 750 194 750 194 772 213 c 0,10,11
 815 247 815 247 815 330 c 2,12,-1
 815 649 l 2,13,14
 815 724 815 724 778 758 c 0,15,16
 739 797 739 797 672 797 c 2,17,-1
 600 797 l 1,18,-1
 600 963 l 1,19,-1
 664 963 l 2,20,21
 731 963 731 963 773 1003 c 128,-1,22
 815 1043 815 1043 815 1116 c 0,23,24
 815 1191 815 1191 764 1239 c 0,25,26
 712 1288 712 1288 598 1288 c 0,27,28
 377 1288 377 1288 377 1057 c 2,29,-1
 377 0 l 1,30,-1
 166 0 l 1,31,-1
 166 1069 l 2,32,33
 166 1200 166 1200 221 1291.5 c 128,-1,34
 276 1383 276 1383 375 1428 c 128,-1,35
 474 1473 474 1473 604 1473 c 0,36,37
 726 1473 726 1473 820.5 1435 c 128,-1,38
 915 1397 915 1397 969.5 1318 c 128,-1,39
 1024 1239 1024 1239 1024 1122 c 0,40,41
 1024 966 1024 966 897 885 c 1,42,43
 964 851 964 851 995 798 c 128,-1,44
 1026 745 1026 745 1026 649 c 2,45,-1
 1026 311 l 2,0,1
EndSplineSet
Validated: 1
EndChar

StartChar: registered
Encoding: 174 174 159
Width: 1765
Flags: W
LayerCount: 2
Fore
SplineSet
1624 729 m 256,0,1
 1624 580 1624 580 1566 443 c 128,-1,2
 1508 306 1508 306 1407 205 c 128,-1,3
 1306 104 1306 104 1169 46 c 128,-1,4
 1032 -12 1032 -12 883 -12 c 256,5,6
 734 -12 734 -12 597.5 45.5 c 128,-1,7
 461 103 461 103 359 204.5 c 128,-1,8
 257 306 257 306 199 443 c 128,-1,9
 141 580 141 580 141 729 c 256,10,11
 141 878 141 878 199 1015 c 128,-1,12
 257 1152 257 1152 359 1253.5 c 128,-1,13
 461 1355 461 1355 597.5 1412.5 c 128,-1,14
 734 1470 734 1470 883 1470 c 256,15,16
 1032 1470 1032 1470 1169 1412 c 128,-1,17
 1306 1354 1306 1354 1407 1253 c 128,-1,18
 1508 1152 1508 1152 1566 1015 c 128,-1,19
 1624 878 1624 878 1624 729 c 256,0,1
1475 729 m 256,20,21
 1475 894 1475 894 1396.5 1033 c 128,-1,22
 1318 1172 1318 1172 1182 1252.5 c 128,-1,23
 1046 1333 1046 1333 883 1333 c 0,24,25
 759 1333 759 1333 651 1287 c 128,-1,26
 543 1241 543 1241 461 1157.5 c 128,-1,27
 379 1074 379 1074 334 963 c 128,-1,28
 289 852 289 852 289 729 c 0,29,30
 289 563 289 563 368 424.5 c 128,-1,31
 447 286 447 286 583 205.5 c 128,-1,32
 719 125 719 125 883 125 c 0,33,34
 1046 125 1046 125 1182 205.5 c 128,-1,35
 1318 286 1318 286 1396.5 425 c 128,-1,36
 1475 564 1475 564 1475 729 c 256,20,21
1204 330 m 1,37,-1
 1038 330 l 1,38,-1
 874 647 l 1,39,-1
 772 647 l 1,40,-1
 772 330 l 1,41,-1
 625 330 l 1,42,-1
 625 1130 l 1,43,-1
 926 1130 l 2,44,45
 1000 1130 1000 1130 1059 1096.5 c 128,-1,46
 1118 1063 1118 1063 1151 1006.5 c 128,-1,47
 1184 950 1184 950 1184 885 c 0,48,49
 1184 804 1184 804 1140.5 748 c 128,-1,50
 1097 692 1097 692 1026 668 c 1,51,-1
 1204 330 l 1,37,-1
1038 885 m 256,52,53
 1038 937 1038 937 1001.5 971.5 c 128,-1,54
 965 1006 965 1006 907 1006 c 2,55,-1
 772 1006 l 1,56,-1
 772 764 l 1,57,-1
 907 764 l 2,58,59
 965 764 965 764 1001.5 798.5 c 128,-1,60
 1038 833 1038 833 1038 885 c 256,52,53
EndSplineSet
Validated: 1
EndChar

StartChar: copyright
Encoding: 169 169 160
Width: 1765
Flags: W
LayerCount: 2
Fore
SplineSet
1624 729 m 256,0,1
 1624 580 1624 580 1566 443 c 128,-1,2
 1508 306 1508 306 1407 205 c 128,-1,3
 1306 104 1306 104 1169 46 c 128,-1,4
 1032 -12 1032 -12 883 -12 c 256,5,6
 734 -12 734 -12 597.5 45.5 c 128,-1,7
 461 103 461 103 359 204.5 c 128,-1,8
 257 306 257 306 199 443 c 128,-1,9
 141 580 141 580 141 729 c 256,10,11
 141 878 141 878 199 1015 c 128,-1,12
 257 1152 257 1152 359 1253.5 c 128,-1,13
 461 1355 461 1355 597.5 1412.5 c 128,-1,14
 734 1470 734 1470 883 1470 c 256,15,16
 1032 1470 1032 1470 1169 1412 c 128,-1,17
 1306 1354 1306 1354 1407 1253 c 128,-1,18
 1508 1152 1508 1152 1566 1015 c 128,-1,19
 1624 878 1624 878 1624 729 c 256,0,1
1475 729 m 256,20,21
 1475 894 1475 894 1395.5 1033.5 c 128,-1,22
 1316 1173 1316 1173 1180 1252 c 128,-1,23
 1044 1331 1044 1331 883 1331 c 0,24,25
 720 1331 720 1331 584.5 1251.5 c 128,-1,26
 449 1172 449 1172 370 1033 c 128,-1,27
 291 894 291 894 291 729 c 256,28,29
 291 564 291 564 370 425 c 128,-1,30
 449 286 449 286 584.5 206.5 c 128,-1,31
 720 127 720 127 883 127 c 0,32,33
 1044 127 1044 127 1180 206 c 128,-1,34
 1316 285 1316 285 1395.5 424.5 c 128,-1,35
 1475 564 1475 564 1475 729 c 256,20,21
1163 426 m 1,36,37
 1101 370 1101 370 1040 344.5 c 128,-1,38
 979 319 979 319 895 319 c 0,39,40
 788 319 788 319 703.5 369 c 128,-1,41
 619 419 619 419 573.5 512.5 c 128,-1,42
 528 606 528 606 528 729 c 0,43,44
 528 823 528 823 555 899.5 c 128,-1,45
 582 976 582 976 629 1028.5 c 128,-1,46
 676 1081 676 1081 745 1110 c 128,-1,47
 814 1139 814 1139 895 1139 c 0,48,49
 979 1139 979 1139 1039 1113.5 c 128,-1,50
 1099 1088 1099 1088 1163 1032 c 1,51,-1
 1069 936 l 1,52,53
 1024 977 1024 977 985 992.5 c 128,-1,54
 946 1008 946 1008 895 1008 c 0,55,56
 784 1008 784 1008 729 932.5 c 128,-1,57
 674 857 674 857 674 729 c 0,58,59
 674 602 674 602 729 526.5 c 128,-1,60
 784 451 784 451 895 451 c 0,61,62
 946 451 946 451 984.5 466.5 c 128,-1,63
 1023 482 1023 482 1069 522 c 1,64,-1
 1163 426 l 1,36,37
EndSplineSet
Validated: 1
EndChar

StartChar: trademark
Encoding: 8482 8482 161
Width: 1808
Flags: W
LayerCount: 2
Fore
SplineSet
1683 584 m 1,0,-1
 1526 584 l 1,1,-1
 1526 1155 l 1,2,-1
 1341 788 l 1,3,-1
 1196 788 l 1,4,-1
 1012 1155 l 1,5,-1
 1012 584 l 1,6,-1
 854 584 l 1,7,-1
 854 1458 l 1,8,-1
 1012 1458 l 1,9,-1
 1268 961 l 1,10,-1
 1526 1458 l 1,11,-1
 1683 1458 l 1,12,-1
 1683 584 l 1,0,-1
709 1317 m 1,13,-1
 473 1317 l 1,14,-1
 473 584 l 1,15,-1
 317 584 l 1,16,-1
 317 1317 l 1,17,-1
 84 1317 l 1,18,-1
 84 1458 l 1,19,-1
 709 1458 l 1,20,-1
 709 1317 l 1,13,-1
EndSplineSet
Validated: 1
EndChar

StartChar: acute
Encoding: 180 180 162
Width: 1024
Flags: W
LayerCount: 2
Fore
SplineSet
791 1559 m 1,0,-1
 563 1227 l 1,1,-1
 406 1227 l 1,2,-1
 559 1559 l 1,3,-1
 791 1559 l 1,0,-1
EndSplineSet
Validated: 1
EndChar

StartChar: dieresis
Encoding: 168 168 163
Width: 1024
Flags: W
LayerCount: 2
Fore
SplineSet
827 1237 m 1,0,-1
 639 1237 l 1,1,-1
 639 1458 l 1,2,-1
 827 1458 l 1,3,-1
 827 1237 l 1,0,-1
385 1237 m 1,4,-1
 197 1237 l 1,5,-1
 197 1458 l 1,6,-1
 385 1458 l 1,7,-1
 385 1237 l 1,4,-1
EndSplineSet
Validated: 1
EndChar

StartChar: notequal
Encoding: 65543 -1 164
Width: 1169
Flags: W
LayerCount: 2
Fore
SplineSet
1065 272 m 1,0,-1
 444 272 l 1,1,-1
 233 27 l 1,2,-1
 104 131 l 1,3,-1
 229 272 l 1,4,-1
 104 272 l 1,5,-1
 104 467 l 1,6,-1
 387 467 l 1,7,-1
 567 670 l 1,8,-1
 104 670 l 1,9,-1
 104 864 l 1,10,-1
 723 864 l 1,11,-1
 936 1110 l 1,12,-1
 1065 1006 l 1,13,-1
 940 864 l 1,14,-1
 1065 864 l 1,15,-1
 1065 670 l 1,16,-1
 782 670 l 1,17,-1
 602 467 l 1,18,-1
 1065 467 l 1,19,-1
 1065 272 l 1,0,-1
EndSplineSet
Validated: 1
EndChar

StartChar: AE
Encoding: 198 198 165
Width: 1950
Flags: W
LayerCount: 2
Fore
SplineSet
1837 0 m 1,0,-1
 905 0 l 1,1,-1
 905 332 l 1,2,-1
 424 332 l 1,3,-1
 252 0 l 1,4,-1
 10 0 l 1,5,-1
 776 1458 l 1,6,-1
 1837 1458 l 1,7,-1
 1837 1260 l 1,8,-1
 1126 1260 l 1,9,-1
 1126 831 l 1,10,-1
 1733 831 l 1,11,-1
 1733 633 l 1,12,-1
 1126 633 l 1,13,-1
 1126 199 l 1,14,-1
 1837 199 l 1,15,-1
 1837 0 l 1,0,-1
905 520 m 1,16,-1
 905 1260 l 1,17,-1
 520 520 l 1,18,-1
 905 520 l 1,16,-1
EndSplineSet
Validated: 1
EndChar

StartChar: Oslash
Encoding: 216 216 166
Width: 1335
Flags: W
LayerCount: 2
Fore
SplineSet
1186 729 m 256,0,1
 1186 556 1186 556 1179.5 464.5 c 128,-1,2
 1173 373 1173 373 1143 292.5 c 128,-1,3
 1113 212 1113 212 1047 143 c 0,4,5
 890 -12 890 -12 662 -12 c 0,6,7
 530 -12 530 -12 418 43 c 1,8,-1
 354 -90 l 1,9,-1
 186 -90 l 1,10,-1
 291 131 l 2,11,12
 288 134 288 134 285 137 c 128,-1,13
 282 140 282 140 279 143 c 0,14,15
 211 213 211 213 181 292 c 128,-1,16
 151 371 151 371 144 463.5 c 128,-1,17
 137 556 137 556 137 729 c 0,18,19
 137 862 137 862 140.5 940 c 128,-1,20
 144 1018 144 1018 156.5 1083 c 128,-1,21
 169 1148 169 1148 197.5 1204.5 c 128,-1,22
 226 1261 226 1261 279 1315 c 0,23,24
 434 1470 434 1470 662 1470 c 0,25,26
 795 1470 795 1470 907 1415 c 1,27,-1
 969 1548 l 1,28,-1
 1139 1548 l 1,29,-1
 1032 1327 l 1,30,31
 1032 1327 1032 1327 1047 1315 c 0,32,33
 1114 1245 1114 1245 1143.5 1165.5 c 128,-1,34
 1173 1086 1173 1086 1179.5 994 c 128,-1,35
 1186 902 1186 902 1186 729 c 256,0,1
825 1227 m 1,36,37
 749 1272 749 1272 662 1272 c 0,38,39
 600 1272 600 1272 542.5 1248 c 128,-1,40
 485 1224 485 1224 446 1182 c 0,41,42
 393 1123 393 1123 376.5 1035 c 128,-1,43
 360 947 360 947 360 729 c 0,44,45
 360 562 360 562 369 476 c 128,-1,46
 378 390 378 390 401 340 c 1,47,-1
 825 1227 l 1,36,37
965 729 m 0,48,49
 965 898 965 898 956.5 984 c 128,-1,50
 948 1070 948 1070 924 1118 c 1,51,-1
 500 231 l 1,52,53
 572 186 572 186 662 186 c 0,54,55
 794 186 794 186 879 276 c 0,56,57
 915 315 915 315 933.5 365 c 128,-1,58
 952 415 952 415 958.5 501 c 128,-1,59
 965 587 965 587 965 729 c 0,48,49
EndSplineSet
Validated: 1
EndChar

StartChar: infinity
Encoding: 65544 -1 167
Width: 1700
Flags: W
LayerCount: 2
Fore
SplineSet
1575 565 m 0,0,1
 1575 464 1575 464 1532 382.5 c 128,-1,2
 1489 301 1489 301 1408 255 c 128,-1,3
 1327 209 1327 209 1217 209 c 0,4,5
 1114 209 1114 209 1027.5 258 c 128,-1,6
 941 307 941 307 850 412 c 1,7,8
 788 340 788 340 733 297 c 128,-1,9
 678 254 678 254 615 230.5 c 128,-1,10
 552 207 552 207 483 207 c 0,11,12
 318 207 318 207 221.5 309 c 128,-1,13
 125 411 125 411 125 565 c 0,14,15
 125 720 125 720 221 822 c 128,-1,16
 317 924 317 924 483 924 c 0,17,18
 586 924 586 924 675 873 c 128,-1,19
 764 822 764 822 850 719 c 1,20,21
 939 824 939 824 1025.5 874 c 128,-1,22
 1112 924 1112 924 1217 924 c 0,23,24
 1301 924 1301 924 1368 897 c 128,-1,25
 1435 870 1435 870 1480.5 822 c 128,-1,26
 1526 774 1526 774 1550.5 708 c 128,-1,27
 1575 642 1575 642 1575 565 c 0,0,1
1374 561 m 0,28,29
 1374 633 1374 633 1328 677 c 128,-1,30
 1282 721 1282 721 1212 721 c 0,31,32
 1155 721 1155 721 1108.5 684 c 128,-1,33
 1062 647 1062 647 989 561 c 1,34,35
 1062 475 1062 475 1108.5 437 c 128,-1,36
 1155 399 1155 399 1212 399 c 0,37,38
 1281 399 1281 399 1327.5 444.5 c 128,-1,39
 1374 490 1374 490 1374 561 c 0,28,29
711 561 m 1,40,41
 638 647 638 647 591 685 c 128,-1,42
 544 723 544 723 485 723 c 0,43,44
 416 723 416 723 371 679 c 128,-1,45
 326 635 326 635 326 561 c 0,46,47
 326 515 326 515 347 477 c 128,-1,48
 368 439 368 439 404.5 419 c 128,-1,49
 441 399 441 399 485 399 c 0,50,51
 543 399 543 399 591.5 438.5 c 128,-1,52
 640 478 640 478 711 561 c 1,40,41
EndSplineSet
Validated: 1
EndChar

StartChar: plusminus
Encoding: 177 177 168
Width: 1092
Flags: W
LayerCount: 2
Fore
SplineSet
987 647 m 1,0,-1
 643 647 l 1,1,-1
 643 301 l 1,2,-1
 449 301 l 1,3,-1
 449 647 l 1,4,-1
 104 647 l 1,5,-1
 104 842 l 1,6,-1
 449 842 l 1,7,-1
 449 1186 l 1,8,-1
 643 1186 l 1,9,-1
 643 842 l 1,10,-1
 987 842 l 1,11,-1
 987 647 l 1,0,-1
987 0 m 1,12,-1
 104 0 l 1,13,-1
 104 195 l 1,14,-1
 987 195 l 1,15,-1
 987 0 l 1,12,-1
EndSplineSet
Validated: 1
EndChar

StartChar: lessequal
Encoding: 65545 -1 169
Width: 2103
Flags: W
LayerCount: 2
Fore
SplineSet
1788 -29 m 1,0,-1
 1649 -170 l 1,1,-1
 571 909 l 1,2,-1
 571 -88 l 1,3,-1
 383 100 l 1,4,-1
 383 1235 l 1,5,-1
 1520 1235 l 1,6,-1
 1708 1047 l 1,7,-1
 711 1049 l 1,8,-1
 1788 -29 l 1,0,-1
EndSplineSet
Validated: 1
EndChar

StartChar: greaterequal
Encoding: 65546 -1 170
Width: 2103
Flags: W
LayerCount: 2
Fore
SplineSet
1718 100 m 1,0,-1
 1530 -88 l 1,1,-1
 1532 909 l 1,2,-1
 455 -170 l 1,3,-1
 313 -29 l 1,4,-1
 1393 1051 l 1,5,-1
 395 1047 l 1,6,-1
 584 1235 l 1,7,-1
 1718 1235 l 1,8,-1
 1718 100 l 1,0,-1
EndSplineSet
Validated: 1
EndChar

StartChar: yen
Encoding: 165 165 171
Width: 1114
Flags: W
LayerCount: 2
Fore
SplineSet
1102 1458 m 1,0,-1
 803 864 l 1,1,-1
 981 864 l 1,2,-1
 981 705 l 1,3,-1
 721 705 l 1,4,-1
 668 600 l 1,5,-1
 668 494 l 1,6,-1
 981 494 l 1,7,-1
 981 334 l 1,8,-1
 668 334 l 1,9,-1
 668 0 l 1,10,-1
 446 0 l 1,11,-1
 446 334 l 1,12,-1
 133 334 l 1,13,-1
 133 494 l 1,14,-1
 446 494 l 1,15,-1
 446 600 l 1,16,-1
 393 705 l 1,17,-1
 133 705 l 1,18,-1
 133 864 l 1,19,-1
 311 864 l 1,20,-1
 10 1458 l 1,21,-1
 252 1458 l 1,22,-1
 559 815 l 1,23,-1
 862 1458 l 1,24,-1
 1102 1458 l 1,0,-1
EndSplineSet
Validated: 1
EndChar

StartChar: mu
Encoding: 181 181 172
Width: 1165
Flags: W
LayerCount: 2
Fore
SplineSet
997 0 m 1,0,-1
 793 0 l 1,1,-1
 793 104 l 1,2,3
 685 -12 685 -12 518 -12 c 0,4,5
 424 -12 424 -12 365 39 c 1,6,-1
 365 -420 l 1,7,-1
 156 -420 l 1,8,-1
 156 1038 l 1,9,-1
 365 1038 l 1,10,-1
 365 406 l 2,11,12
 365 291 365 291 424 232.5 c 128,-1,13
 483 174 483 174 575 174 c 0,14,15
 669 174 669 174 728.5 232.5 c 128,-1,16
 788 291 788 291 788 406 c 2,17,-1
 788 1038 l 1,18,-1
 997 1038 l 1,19,-1
 997 0 l 1,0,-1
EndSplineSet
Validated: 1
EndChar

StartChar: partialdiff
Encoding: 65547 -1 173
Width: 1124
Flags: W
LayerCount: 2
Fore
SplineSet
958 510 m 2,0,1
 958 415 958 415 948 344.5 c 128,-1,2
 938 274 938 274 912 214 c 128,-1,3
 886 154 886 154 842 109 c 0,4,5
 728 -12 728 -12 543 -12 c 0,6,7
 354 -12 354 -12 242 109 c 0,8,9
 195 157 195 157 169.5 216 c 128,-1,10
 144 275 144 275 134.5 345 c 128,-1,11
 125 415 125 415 125 510 c 0,12,13
 125 609 125 609 135 679 c 128,-1,14
 145 749 145 749 170 808 c 128,-1,15
 195 867 195 867 242 915 c 0,16,17
 353 1032 353 1032 530 1032 c 0,18,19
 600 1032 600 1032 652.5 1014.5 c 128,-1,20
 705 997 705 997 750 946 c 1,21,-1
 750 1042 l 2,22,23
 750 1105 750 1105 725.5 1161.5 c 128,-1,24
 701 1218 701 1218 646 1255 c 128,-1,25
 591 1292 591 1292 506 1292 c 0,26,27
 432 1292 432 1292 383 1272 c 128,-1,28
 334 1252 334 1252 281 1202 c 1,29,-1
 150 1333 l 1,30,31
 203 1383 203 1383 257 1413.5 c 128,-1,32
 311 1444 311 1444 373 1457 c 128,-1,33
 435 1470 435 1470 514 1470 c 0,34,35
 658 1470 658 1470 757.5 1412 c 128,-1,36
 857 1354 857 1354 907.5 1249.5 c 128,-1,37
 958 1145 958 1145 958 1006 c 2,38,-1
 958 510 l 2,0,1
750 510 m 0,39,40
 750 716 750 716 684 786 c 0,41,42
 624 846 624 846 543 846 c 0,43,44
 459 846 459 846 399 786 c 0,45,46
 359 743 359 743 346.5 674 c 128,-1,47
 334 605 334 605 334 510 c 0,48,49
 334 414 334 414 346 346 c 128,-1,50
 358 278 358 278 399 233 c 0,51,52
 460 174 460 174 543 174 c 0,53,54
 623 174 623 174 684 233 c 0,55,56
 724 276 724 276 737 344 c 128,-1,57
 750 412 750 412 750 510 c 0,39,40
EndSplineSet
Validated: 1
EndChar

StartChar: summation
Encoding: 65548 -1 174
Width: 1130
Flags: W
LayerCount: 2
Fore
SplineSet
1040 -420 m 1,0,-1
 98 -420 l 1,1,-1
 98 -240 l 1,2,-1
 498 592 l 1,3,-1
 102 1376 l 1,4,-1
 102 1556 l 1,5,-1
 1034 1556 l 1,6,-1
 1034 1358 l 1,7,-1
 360 1358 l 1,8,-1
 690 692 l 1,9,-1
 690 487 l 1,10,-1
 354 -221 l 1,11,-1
 1040 -221 l 1,12,-1
 1040 -420 l 1,0,-1
EndSplineSet
Validated: 1
EndChar

StartChar: product
Encoding: 65549 -1 175
Width: 1413
Flags: W
LayerCount: 2
Fore
SplineSet
1225 -420 m 1,0,-1
 1001 -420 l 1,1,-1
 1001 1360 l 1,2,-1
 412 1360 l 1,3,-1
 412 -420 l 1,4,-1
 190 -420 l 1,5,-1
 190 1556 l 1,6,-1
 1225 1556 l 1,7,-1
 1225 -420 l 1,0,-1
EndSplineSet
Validated: 1
EndChar

StartChar: pi
Encoding: 65550 -1 176
Width: 1210
Flags: W
LayerCount: 2
Fore
SplineSet
1030 0 m 1,0,-1
 825 0 l 1,1,-1
 825 844 l 1,2,-1
 387 844 l 1,3,-1
 387 0 l 1,4,-1
 180 0 l 1,5,-1
 180 1038 l 1,6,-1
 1030 1038 l 1,7,-1
 1030 0 l 1,0,-1
EndSplineSet
Validated: 1
EndChar

StartChar: integral
Encoding: 65551 -1 177
Width: 887
Flags: W
LayerCount: 2
Fore
SplineSet
788 1296 m 1,0,-1
 698 1296 l 2,1,2
 551 1296 551 1296 551 1145 c 2,3,-1
 551 -82 l 2,4,5
 551 -235 551 -235 460.5 -324.5 c 128,-1,6
 370 -414 370 -414 215 -414 c 2,7,-1
 98 -414 l 1,8,-1
 98 -236 l 1,9,-1
 188 -236 l 2,10,11
 261 -236 261 -236 297.5 -198 c 128,-1,12
 334 -160 334 -160 334 -84 c 2,13,-1
 334 1143 l 2,14,15
 334 1244 334 1244 375.5 1319.5 c 128,-1,16
 417 1395 417 1395 494 1435 c 128,-1,17
 571 1475 571 1475 672 1475 c 2,18,-1
 788 1475 l 1,19,-1
 788 1296 l 1,0,-1
EndSplineSet
Validated: 1
EndChar

StartChar: ordfeminine
Encoding: 170 170 178
Width: 926
Flags: W
LayerCount: 2
Fore
SplineSet
776 629 m 1,0,-1
 610 629 l 1,1,-1
 610 702 l 1,2,3
 565 657 565 657 515.5 639 c 128,-1,4
 466 621 466 621 393 621 c 256,5,6
 320 621 320 621 266.5 638 c 128,-1,7
 213 655 213 655 172 694 c 0,8,9
 106 760 106 760 106 872 c 0,10,11
 106 980 106 980 180.5 1046 c 128,-1,12
 255 1112 255 1112 391 1112 c 2,13,-1
 606 1112 l 1,14,-1
 606 1169 l 2,15,16
 606 1247 606 1247 564 1284 c 128,-1,17
 522 1321 522 1321 428 1321 c 0,18,19
 360 1321 360 1321 323.5 1304 c 128,-1,20
 287 1287 287 1287 250 1241 c 1,21,-1
 137 1348 l 1,22,23
 194 1415 194 1415 261 1440.5 c 128,-1,24
 328 1466 328 1466 436 1466 c 0,25,26
 606 1466 606 1466 691 1394 c 128,-1,27
 776 1322 776 1322 776 1182 c 2,28,-1
 776 629 l 1,0,-1
606 928 m 2,29,-1
 606 993 l 1,30,-1
 416 993 l 2,31,32
 345 993 345 993 308.5 963.5 c 128,-1,33
 272 934 272 934 272 877 c 0,34,35
 272 764 272 764 418 764 c 0,36,37
 474 764 474 764 508 772 c 128,-1,38
 542 780 542 780 571 809 c 0,39,40
 606 840 606 840 606 928 c 2,29,-1
EndSplineSet
Validated: 1
EndChar

StartChar: ordmasculine
Encoding: 186 186 179
Width: 938
Flags: W
LayerCount: 2
Fore
SplineSet
815 1044 m 0,0,1
 815 968 815 968 806.5 910.5 c 128,-1,2
 798 853 798 853 775.5 804 c 128,-1,3
 753 755 753 755 717 719 c 0,4,5
 623 621 623 621 469 621 c 0,6,7
 317 621 317 621 223 719 c 0,8,9
 187 755 187 755 164.5 804 c 128,-1,10
 142 853 142 853 133.5 910.5 c 128,-1,11
 125 968 125 968 125 1044 c 256,12,13
 125 1120 125 1120 133.5 1176.5 c 128,-1,14
 142 1233 142 1233 164.5 1282.5 c 128,-1,15
 187 1332 187 1332 223 1368 c 0,16,17
 317 1466 317 1466 469 1466 c 0,18,19
 623 1466 623 1466 717 1368 c 0,20,21
 775 1309 775 1309 795 1235 c 128,-1,22
 815 1161 815 1161 815 1044 c 0,0,1
643 1044 m 0,23,24
 643 1132 643 1132 633.5 1183.5 c 128,-1,25
 624 1235 624 1235 590 1268 c 0,26,27
 541 1315 541 1315 469 1315 c 0,28,29
 399 1315 399 1315 350 1268 c 0,30,31
 316 1234 316 1234 305.5 1180.5 c 128,-1,32
 295 1127 295 1127 295 1044 c 0,33,34
 295 963 295 963 305.5 908.5 c 128,-1,35
 316 854 316 854 350 819 c 0,36,37
 397 772 397 772 469 772 c 0,38,39
 543 772 543 772 590 819 c 0,40,41
 624 853 624 853 633.5 905 c 128,-1,42
 643 957 643 957 643 1044 c 0,23,24
EndSplineSet
Validated: 1
EndChar

StartChar: Omega
Encoding: 65552 -1 180
Width: 1325
Flags: W
LayerCount: 2
Fore
SplineSet
1186 0 m 1,0,-1
 762 0 l 1,1,-1
 762 178 l 1,2,3
 861 227 861 227 909 301 c 0,4,5
 941 350 941 350 953 441.5 c 128,-1,6
 965 533 965 533 965 719 c 0,7,8
 965 938 965 938 948 1030.5 c 128,-1,9
 931 1123 931 1123 879 1180 c 0,10,11
 838 1223 838 1223 782 1247.5 c 128,-1,12
 726 1272 726 1272 662 1272 c 0,13,14
 536 1272 536 1272 446 1180 c 0,15,16
 393 1121 393 1121 376.5 1029.5 c 128,-1,17
 360 938 360 938 360 719 c 0,18,19
 360 536 360 536 371 443.5 c 128,-1,20
 382 351 382 351 414 301 c 0,21,22
 462 227 462 227 561 178 c 1,23,-1
 561 0 l 1,24,-1
 137 0 l 1,25,-1
 137 197 l 1,26,-1
 281 197 l 1,27,28
 223 249 223 249 188 322 c 0,29,30
 156 395 156 395 146.5 493 c 128,-1,31
 137 591 137 591 137 729 c 0,32,33
 137 862 137 862 140.5 940 c 128,-1,34
 144 1018 144 1018 156.5 1083 c 128,-1,35
 169 1148 169 1148 197.5 1204.5 c 128,-1,36
 226 1261 226 1261 279 1315 c 0,37,38
 434 1470 434 1470 662 1470 c 256,39,40
 890 1470 890 1470 1047 1315 c 0,41,42
 1114 1245 1114 1245 1143.5 1165.5 c 128,-1,43
 1173 1086 1173 1086 1179.5 994 c 128,-1,44
 1186 902 1186 902 1186 729 c 0,45,46
 1186 579 1186 579 1178 486 c 128,-1,47
 1170 393 1170 393 1137 322 c 0,48,49
 1103 253 1103 253 1042 197 c 1,50,-1
 1186 197 l 1,51,-1
 1186 0 l 1,0,-1
EndSplineSet
Validated: 1
EndChar

StartChar: ae
Encoding: 230 230 181
Width: 1714
Flags: W
LayerCount: 2
Fore
SplineSet
1602 459 m 1,0,-1
 928 459 l 1,1,2
 928 323 928 323 996 245.5 c 128,-1,3
 1064 168 1064 168 1192 168 c 0,4,5
 1278 168 1278 168 1331 192 c 128,-1,6
 1384 216 1384 216 1444 274 c 1,7,-1
 1577 150 l 1,8,9
 1492 65 1492 65 1405 26.5 c 128,-1,10
 1318 -12 1318 -12 1188 -12 c 0,11,12
 941 -12 941 -12 821 150 c 1,13,14
 766 83 766 83 713.5 49.5 c 128,-1,15
 661 16 661 16 596 2 c 128,-1,16
 531 -12 531 -12 449 -12 c 0,17,18
 353 -12 353 -12 285.5 11 c 128,-1,19
 218 34 218 34 170 82 c 0,20,21
 88 167 88 167 88 305 c 0,22,23
 88 394 88 394 129 461.5 c 128,-1,24
 170 529 170 529 250.5 566.5 c 128,-1,25
 331 604 331 604 446 604 c 2,26,-1
 721 604 l 1,27,-1
 721 678 l 2,28,29
 721 778 721 778 667 825 c 128,-1,30
 613 872 613 872 494 872 c 0,31,32
 407 872 407 872 358.5 850 c 128,-1,33
 310 828 310 828 266 772 c 1,34,-1
 129 901 l 1,35,36
 200 985 200 985 285 1018 c 128,-1,37
 370 1051 370 1051 502 1051 c 0,38,39
 629 1051 629 1051 718.5 1016 c 128,-1,40
 808 981 808 981 854 913 c 1,41,42
 966 1051 966 1051 1161 1051 c 0,43,44
 1296 1051 1296 1051 1397 988 c 128,-1,45
 1498 925 1498 925 1550 811.5 c 128,-1,46
 1602 698 1602 698 1602 551 c 2,47,-1
 1602 459 l 1,0,-1
1395 604 m 1,48,49
 1392 691 1392 691 1368 745 c 0,50,51
 1343 805 1343 805 1289 841 c 128,-1,52
 1235 877 1235 877 1161 877 c 0,53,54
 1088 877 1088 877 1035.5 841.5 c 128,-1,55
 983 806 983 806 956 745 c 0,56,57
 943 716 943 716 936.5 684 c 128,-1,58
 930 652 930 652 928 604 c 1,59,-1
 1395 604 l 1,48,49
721 375 m 2,60,-1
 721 459 l 1,61,-1
 477 459 l 2,62,63
 386 459 386 459 338.5 420 c 128,-1,64
 291 381 291 381 291 309 c 0,65,66
 291 162 291 162 481 162 c 0,67,68
 548 162 548 162 593 173.5 c 128,-1,69
 638 185 638 185 676 221 c 0,70,71
 721 266 721 266 721 375 c 2,60,-1
EndSplineSet
Validated: 1
EndChar

StartChar: oslash
Encoding: 248 248 182
Width: 1100
Flags: W
LayerCount: 2
Fore
SplineSet
983 520 m 0,0,1
 983 376 983 376 957 280 c 128,-1,2
 931 184 931 184 860 111 c 0,3,4
 742 -12 742 -12 549 -12 c 0,5,6
 430 -12 430 -12 336 39 c 1,7,-1
 260 -90 l 1,8,-1
 119 -90 l 1,9,-1
 238 113 l 1,10,11
 191 162 191 162 164 223.5 c 128,-1,12
 137 285 137 285 127 354 c 128,-1,13
 117 423 117 423 117 520 c 0,14,15
 117 660 117 660 144 758 c 128,-1,16
 171 856 171 856 240 928 c 0,17,18
 274 964 274 964 319 991 c 128,-1,19
 364 1018 364 1018 423.5 1034.5 c 128,-1,20
 483 1051 483 1051 549 1051 c 0,21,22
 668 1051 668 1051 764 999 c 1,23,-1
 840 1128 l 1,24,-1
 981 1128 l 1,25,-1
 860 928 l 1,26,27
 930 855 930 855 956.5 758.5 c 128,-1,28
 983 662 983 662 983 520 c 0,0,1
672 829 m 1,29,30
 619 864 619 864 549 864 c 0,31,32
 456 864 456 864 397 805 c 0,33,34
 354 761 354 761 340 691.5 c 128,-1,35
 326 622 326 622 326 520 c 0,36,37
 326 367 326 367 356 297 c 1,38,-1
 672 829 l 1,29,30
774 520 m 0,39,40
 774 673 774 673 743 743 c 1,41,-1
 428 211 l 1,42,43
 481 174 481 174 549 174 c 0,44,45
 642 174 642 174 702 236 c 0,46,47
 746 280 746 280 760 349.5 c 128,-1,48
 774 419 774 419 774 520 c 0,39,40
EndSplineSet
Validated: 1
EndChar

StartChar: questiondown
Encoding: 191 191 183
Width: 1047
Flags: W
LayerCount: 2
Fore
SplineSet
596 815 m 1,0,-1
 367 815 l 1,1,-1
 367 1038 l 1,2,-1
 596 1038 l 1,3,-1
 596 815 l 1,0,-1
901 -39 m 1,4,5
 901 -151 901 -151 847.5 -241.5 c 128,-1,6
 794 -332 794 -332 700 -382 c 128,-1,7
 606 -432 606 -432 492 -432 c 0,8,9
 381 -432 381 -432 287 -384 c 128,-1,10
 193 -336 193 -336 138.5 -247 c 128,-1,11
 84 -158 84 -158 84 -39 c 256,12,13
 84 80 84 80 180 213 c 2,14,-1
 340 434 l 2,15,16
 356 457 356 457 366.5 489.5 c 128,-1,17
 377 522 377 522 377 545 c 2,18,-1
 377 606 l 1,19,-1
 586 606 l 1,20,-1
 586 532 l 2,21,22
 586 472 586 472 570 427 c 128,-1,23
 554 382 554 382 514 330 c 2,24,-1
 356 115 l 2,25,26
 293 32 293 32 293 -41 c 0,27,28
 293 -128 293 -128 348.5 -186 c 128,-1,29
 404 -244 404 -244 492 -244 c 0,30,31
 553 -244 553 -244 598 -217 c 128,-1,32
 643 -190 643 -190 667.5 -143 c 128,-1,33
 692 -96 692 -96 692 -39 c 1,34,-1
 901 -39 l 1,4,5
EndSplineSet
Validated: 1
EndChar

StartChar: exclamdown
Encoding: 161 161 184
Width: 680
Flags: W
LayerCount: 2
Fore
SplineSet
420 815 m 1,0,-1
 190 815 l 1,1,-1
 190 1038 l 1,2,-1
 420 1038 l 1,3,-1
 420 815 l 1,0,-1
432 -420 m 1,4,-1
 178 -420 l 1,5,-1
 223 604 l 1,6,-1
 387 604 l 1,7,-1
 432 -420 l 1,4,-1
EndSplineSet
Validated: 1
EndChar

StartChar: logicalnot
Encoding: 172 172 185
Width: 1092
Flags: W
LayerCount: 2
Fore
SplineSet
991 201 m 1,0,-1
 797 201 l 1,1,-1
 797 489 l 1,2,-1
 98 489 l 1,3,-1
 98 684 l 1,4,-1
 991 684 l 1,5,-1
 991 201 l 1,0,-1
EndSplineSet
Validated: 1
EndChar

StartChar: radical
Encoding: 65553 -1 186
Width: 1188
Flags: W
LayerCount: 2
Fore
SplineSet
1126 1260 m 1,0,-1
 940 1260 l 1,1,-1
 526 0 l 1,2,-1
 354 0 l 1,3,-1
 10 1038 l 1,4,-1
 238 1038 l 1,5,-1
 440 397 l 1,6,-1
 774 1458 l 1,7,-1
 1126 1458 l 1,8,-1
 1126 1260 l 1,0,-1
EndSplineSet
Validated: 1
EndChar

StartChar: florin
Encoding: 402 402 187
Width: 850
Flags: W
LayerCount: 2
Fore
SplineSet
788 1290 m 1,0,-1
 668 1290 l 2,1,2
 556 1290 556 1290 532 1169 c 2,3,-1
 467 801 l 1,4,-1
 674 801 l 1,5,-1
 674 641 l 1,6,-1
 438 641 l 1,7,-1
 252 -420 l 1,8,-1
 43 -420 l 1,9,-1
 229 641 l 1,10,-1
 61 641 l 1,11,-1
 61 801 l 1,12,-1
 258 801 l 1,13,-1
 326 1180 l 2,14,15
 340 1258 340 1258 382.5 1323.5 c 128,-1,16
 425 1389 425 1389 495.5 1428.5 c 128,-1,17
 566 1468 566 1468 659 1468 c 2,18,-1
 788 1468 l 1,19,-1
 788 1290 l 1,0,-1
EndSplineSet
Validated: 1
EndChar

StartChar: approxequal
Encoding: 65554 -1 188
Width: 1176
Flags: W
LayerCount: 2
Fore
SplineSet
1087 778 m 1,0,1
 995 686 995 686 930.5 653.5 c 128,-1,2
 866 621 866 621 784 621 c 0,3,4
 728 621 728 621 678.5 636 c 128,-1,5
 629 651 629 651 555 686 c 0,6,7
 459 735 459 735 393 735 c 0,8,9
 345 735 345 735 309.5 718.5 c 128,-1,10
 274 702 274 702 219 647 c 1,11,-1
 88 778 l 1,12,13
 178 868 178 868 242.5 902 c 128,-1,14
 307 936 307 936 389 936 c 0,15,16
 447 936 447 936 498.5 919.5 c 128,-1,17
 550 903 550 903 616 870 c 0,18,19
 717 821 717 821 780 821 c 0,20,21
 826 821 826 821 863 837.5 c 128,-1,22
 900 854 900 854 954 909 c 1,23,-1
 1087 778 l 1,0,1
1087 365 m 1,24,25
 996 274 996 274 932 239.5 c 128,-1,26
 868 205 868 205 786 205 c 0,27,28
 734 205 734 205 681.5 221.5 c 128,-1,29
 629 238 629 238 557 272 c 0,30,31
 459 322 459 322 395 322 c 0,32,33
 348 322 348 322 311.5 304.5 c 128,-1,34
 275 287 275 287 219 231 c 1,35,-1
 88 362 l 1,36,37
 181 455 181 455 246 488.5 c 128,-1,38
 311 522 311 522 391 522 c 0,39,40
 449 522 449 522 502.5 504.5 c 128,-1,41
 556 487 556 487 618 455 c 0,42,43
 716 406 716 406 782 406 c 0,44,45
 829 406 829 406 866 424 c 128,-1,46
 903 442 903 442 956 496 c 1,47,-1
 1087 365 l 1,24,25
EndSplineSet
Validated: 1
EndChar

StartChar: Delta
Encoding: 65555 -1 189
Width: 1268
Flags: W
LayerCount: 2
Fore
SplineSet
1255 0 m 1,0,-1
 10 0 l 1,1,-1
 545 1458 l 1,2,-1
 723 1458 l 1,3,-1
 1255 0 l 1,0,-1
967 188 m 1,4,-1
 637 1128 l 1,5,-1
 305 188 l 1,6,-1
 967 188 l 1,4,-1
EndSplineSet
Validated: 1
EndChar

StartChar: guillemotleft
Encoding: 171 171 190
Width: 1212
Flags: W
LayerCount: 2
Fore
SplineSet
1065 86 m 1,0,-1
 594 557 l 1,1,-1
 1065 1026 l 1,2,-1
 1065 774 l 1,3,-1
 844 557 l 1,4,-1
 1065 338 l 1,5,-1
 1065 86 l 1,0,-1
547 86 m 1,6,-1
 76 557 l 1,7,-1
 547 1026 l 1,8,-1
 547 774 l 1,9,-1
 328 557 l 1,10,-1
 547 338 l 1,11,-1
 547 86 l 1,6,-1
EndSplineSet
Validated: 1
EndChar

StartChar: guillemotright
Encoding: 187 187 191
Width: 1212
Flags: W
LayerCount: 2
Fore
SplineSet
1139 557 m 1,0,-1
 666 86 l 1,1,-1
 666 338 l 1,2,-1
 885 557 l 1,3,-1
 666 774 l 1,4,-1
 666 1026 l 1,5,-1
 1139 557 l 1,0,-1
621 557 m 1,6,-1
 147 86 l 1,7,-1
 147 338 l 1,8,-1
 369 557 l 1,9,-1
 147 774 l 1,10,-1
 147 1026 l 1,11,-1
 621 557 l 1,6,-1
EndSplineSet
Validated: 1
EndChar

StartChar: ellipsis
Encoding: 8230 8230 192
Width: 1645
Flags: W
LayerCount: 2
Fore
SplineSet
1485 0 m 1,0,-1
 1245 0 l 1,1,-1
 1245 240 l 1,2,-1
 1485 240 l 1,3,-1
 1485 0 l 1,0,-1
942 0 m 1,4,-1
 702 0 l 1,5,-1
 702 240 l 1,6,-1
 942 240 l 1,7,-1
 942 0 l 1,4,-1
399 0 m 1,8,-1
 160 0 l 1,9,-1
 160 240 l 1,10,-1
 399 240 l 1,11,-1
 399 0 l 1,8,-1
EndSplineSet
Validated: 1
EndChar

StartChar: OE
Encoding: 338 338 197
Width: 2001
Flags: W
LayerCount: 2
Fore
SplineSet
1888 0 m 1,0,-1
 965 0 l 1,1,-1
 965 119 l 1,2,3
 908 53 908 53 826 20.5 c 128,-1,4
 744 -12 744 -12 657 -12 c 0,5,6
 543 -12 543 -12 449 25.5 c 128,-1,7
 355 63 355 63 279 139 c 0,8,9
 211 207 211 207 181 287.5 c 128,-1,10
 151 368 151 368 144 461.5 c 128,-1,11
 137 555 137 555 137 729 c 256,12,13
 137 903 137 903 144 997 c 128,-1,14
 151 1091 151 1091 181 1171 c 128,-1,15
 211 1251 211 1251 279 1319 c 0,16,17
 355 1395 355 1395 449 1432.5 c 128,-1,18
 543 1470 543 1470 657 1470 c 0,19,20
 852 1470 852 1470 965 1339 c 1,21,-1
 965 1458 l 1,22,-1
 1886 1458 l 1,23,-1
 1886 1262 l 1,24,-1
 1186 1262 l 1,25,-1
 1186 831 l 1,26,-1
 1782 831 l 1,27,-1
 1782 639 l 1,28,-1
 1186 639 l 1,29,-1
 1186 197 l 1,30,-1
 1888 197 l 1,31,-1
 1888 0 l 1,0,-1
965 729 m 0,32,33
 965 947 965 947 948.5 1036 c 128,-1,34
 932 1125 932 1125 879 1182 c 0,35,36
 841 1223 841 1223 782.5 1247.5 c 128,-1,37
 724 1272 724 1272 662 1272 c 256,38,39
 600 1272 600 1272 542.5 1248 c 128,-1,40
 485 1224 485 1224 446 1182 c 0,41,42
 393 1123 393 1123 376.5 1035 c 128,-1,43
 360 947 360 947 360 729 c 0,44,45
 360 613 360 613 363.5 543.5 c 128,-1,46
 367 474 367 474 377 422 c 128,-1,47
 387 370 387 370 401 341 c 128,-1,48
 415 312 415 312 446 276 c 0,49,50
 531 186 531 186 662 186 c 0,51,52
 794 186 794 186 879 276 c 0,53,54
 915 315 915 315 933.5 365 c 128,-1,55
 952 415 952 415 958.5 501 c 128,-1,56
 965 587 965 587 965 729 c 0,32,33
EndSplineSet
Validated: 1
EndChar

StartChar: oe
Encoding: 339 339 198
Width: 1765
Flags: W
LayerCount: 2
Fore
SplineSet
1653 459 m 1,0,-1
 979 459 l 1,1,2
 979 370 979 370 1009.5 304.5 c 128,-1,3
 1040 239 1040 239 1098.5 203.5 c 128,-1,4
 1157 168 1157 168 1243 168 c 256,5,6
 1329 168 1329 168 1382 192 c 128,-1,7
 1435 216 1435 216 1495 274 c 1,8,-1
 1628 150 l 1,9,10
 1576 97 1576 97 1519 60 c 128,-1,11
 1462 23 1462 23 1396.5 5.5 c 128,-1,12
 1331 -12 1331 -12 1241 -12 c 0,13,14
 1167 -12 1167 -12 1099.5 5.5 c 128,-1,15
 1032 23 1032 23 977.5 59.5 c 128,-1,16
 923 96 923 96 883 152 c 1,17,18
 833 76 833 76 746 32 c 128,-1,19
 659 -12 659 -12 549 -12 c 0,20,21
 358 -12 358 -12 240 111 c 0,22,23
 170 184 170 184 143.5 280.5 c 128,-1,24
 117 377 117 377 117 520 c 0,25,26
 117 660 117 660 144 758 c 128,-1,27
 171 856 171 856 240 928 c 0,28,29
 274 964 274 964 319 991 c 128,-1,30
 364 1018 364 1018 423.5 1034.5 c 128,-1,31
 483 1051 483 1051 549 1051 c 0,32,33
 661 1051 661 1051 747.5 1007.5 c 128,-1,34
 834 964 834 964 885 885 c 1,35,36
 940 967 940 967 1022 1009 c 128,-1,37
 1104 1051 1104 1051 1212 1051 c 0,38,39
 1347 1051 1347 1051 1448 988 c 128,-1,40
 1549 925 1549 925 1601 811.5 c 128,-1,41
 1653 698 1653 698 1653 551 c 2,42,-1
 1653 459 l 1,0,-1
1446 604 m 1,43,44
 1443 691 1443 691 1419 745 c 0,45,46
 1394 805 1394 805 1340 841 c 128,-1,47
 1286 877 1286 877 1212 877 c 0,48,49
 1139 877 1139 877 1085.5 840.5 c 128,-1,50
 1032 804 1032 804 1008 745 c 0,51,52
 993 711 993 711 987 681.5 c 128,-1,53
 981 652 981 652 979 604 c 1,54,-1
 1446 604 l 1,43,44
774 520 m 0,55,56
 774 622 774 622 760 691.5 c 128,-1,57
 746 761 746 761 702 805 c 0,58,59
 645 864 645 864 549 864 c 0,60,61
 456 864 456 864 397 805 c 0,62,63
 354 761 354 761 340 691.5 c 128,-1,64
 326 622 326 622 326 520 c 0,65,66
 326 419 326 419 340 349.5 c 128,-1,67
 354 280 354 280 397 236 c 0,68,69
 459 174 459 174 549 174 c 0,70,71
 642 174 642 174 702 236 c 0,72,73
 746 280 746 280 760 349.5 c 128,-1,74
 774 419 774 419 774 520 c 0,55,56
EndSplineSet
Validated: 1
EndChar

StartChar: emdash
Encoding: 8211 8211 199
Width: 1092
Flags: W
LayerCount: 2
Fore
SplineSet
987 471 m 1,0,-1
 104 471 l 1,1,-1
 104 666 l 1,2,-1
 987 666 l 1,3,-1
 987 471 l 1,0,-1
EndSplineSet
Validated: 1
EndChar

StartChar: endash
Encoding: 8212 8212 200
Width: 1991
Flags: W
LayerCount: 2
Fore
SplineSet
1853 473 m 1,0,-1
 137 473 l 1,1,-1
 137 672 l 1,2,-1
 1853 672 l 1,3,-1
 1853 473 l 1,0,-1
EndSplineSet
Validated: 1
EndChar

StartChar: quotedblleft
Encoding: 8220 8220 201
Width: 940
Flags: W
LayerCount: 2
Fore
SplineSet
780 1245 m 1,0,-1
 551 1245 l 1,1,-1
 551 1458 l 1,2,-1
 780 1649 l 1,3,-1
 780 1245 l 1,0,-1
389 1245 m 1,4,-1
 160 1245 l 1,5,-1
 160 1458 l 1,6,-1
 389 1649 l 1,7,-1
 389 1245 l 1,4,-1
EndSplineSet
Validated: 1
EndChar

StartChar: quotedblright
Encoding: 8221 8221 202
Width: 940
Flags: W
LayerCount: 2
Fore
SplineSet
780 1243 m 1,0,-1
 551 1057 l 1,1,-1
 551 1458 l 1,2,-1
 780 1458 l 1,3,-1
 780 1243 l 1,0,-1
389 1243 m 1,4,-1
 160 1057 l 1,5,-1
 160 1458 l 1,6,-1
 389 1458 l 1,7,-1
 389 1243 l 1,4,-1
EndSplineSet
Validated: 1
EndChar

StartChar: quoteleft
Encoding: 8216 8216 203
Width: 549
Flags: W
LayerCount: 2
Fore
SplineSet
389 1245 m 1,0,-1
 160 1245 l 1,1,-1
 160 1458 l 1,2,-1
 389 1649 l 1,3,-1
 389 1245 l 1,0,-1
EndSplineSet
Validated: 1
EndChar

StartChar: quoteright
Encoding: 8217 8217 204
Width: 549
Flags: W
LayerCount: 2
Fore
SplineSet
389 1243 m 1,0,-1
 160 1057 l 1,1,-1
 160 1458 l 1,2,-1
 389 1458 l 1,3,-1
 389 1243 l 1,0,-1
EndSplineSet
Validated: 1
EndChar

StartChar: divide
Encoding: 247 247 205
Width: 1092
Flags: W
LayerCount: 2
Fore
SplineSet
657 848 m 1,0,-1
 434 848 l 1,1,-1
 434 1071 l 1,2,-1
 657 1071 l 1,3,-1
 657 848 l 1,0,-1
991 471 m 1,4,-1
 98 471 l 1,5,-1
 98 666 l 1,6,-1
 991 666 l 1,7,-1
 991 471 l 1,4,-1
657 68 m 1,8,-1
 434 68 l 1,9,-1
 434 291 l 1,10,-1
 657 291 l 1,11,-1
 657 68 l 1,8,-1
EndSplineSet
Validated: 1
EndChar

StartChar: lozenge
Encoding: 65556 -1 206
Width: 1315
Flags: W
LayerCount: 2
Fore
SplineSet
1192 709 m 1,0,-1
 657 -39 l 1,1,-1
 125 709 l 1,2,-1
 657 1456 l 1,3,-1
 1192 709 l 1,0,-1
956 709 m 1,4,-1
 657 1133 l 1,5,-1
 358 709 l 1,6,-1
 657 283 l 1,7,-1
 956 709 l 1,4,-1
EndSplineSet
Validated: 1
EndChar

StartChar: fraction
Encoding: 65557 -1 209
Width: 403
Flags: W
LayerCount: 2
Fore
SplineSet
629 1458 m 1,0,-1
 -57 0 l 1,1,-1
 -225 0 l 1,2,-1
 461 1458 l 1,3,-1
 629 1458 l 1,0,-1
EndSplineSet
Validated: 1
EndChar

StartChar: currency
Encoding: 164 164 210
Width: 1362
Flags: W
LayerCount: 2
Fore
SplineSet
1223 166 m 1,0,-1
 1085 29 l 1,1,-1
 934 180 l 1,2,3
 819 102 819 102 680 102 c 256,4,5
 541 102 541 102 426 180 c 1,6,-1
 276 29 l 1,7,-1
 139 166 l 1,8,-1
 289 317 l 1,9,10
 211 432 211 432 211 571 c 0,11,12
 211 712 211 712 289 825 c 1,13,-1
 139 975 l 1,14,-1
 276 1112 l 1,15,-1
 426 963 l 1,16,17
 536 1038 536 1038 680 1038 c 256,18,19
 824 1038 824 1038 934 963 c 1,20,-1
 1085 1112 l 1,21,-1
 1223 975 l 1,22,-1
 1071 825 l 1,23,24
 1149 712 1149 712 1149 571 c 0,25,26
 1149 432 1149 432 1071 317 c 1,27,-1
 1223 166 l 1,0,-1
958 571 m 256,28,29
 958 646 958 646 920.5 710.5 c 128,-1,30
 883 775 883 775 818.5 811.5 c 128,-1,31
 754 848 754 848 680 848 c 0,32,33
 564 848 564 848 482.5 767.5 c 128,-1,34
 401 687 401 687 401 571 c 0,35,36
 401 516 401 516 422.5 465 c 128,-1,37
 444 414 444 414 483 375 c 128,-1,38
 522 336 522 336 573 314.5 c 128,-1,39
 624 293 624 293 680 293 c 0,40,41
 755 293 755 293 819 330 c 128,-1,42
 883 367 883 367 920.5 431.5 c 128,-1,43
 958 496 958 496 958 571 c 256,28,29
EndSplineSet
Validated: 1
EndChar

StartChar: guilsinglleft
Encoding: 8249 8249 211
Width: 694
Flags: W
LayerCount: 2
Fore
SplineSet
547 86 m 1,0,-1
 76 557 l 1,1,-1
 547 1026 l 1,2,-1
 547 774 l 1,3,-1
 328 557 l 1,4,-1
 547 338 l 1,5,-1
 547 86 l 1,0,-1
EndSplineSet
Validated: 1
EndChar

StartChar: guilsinglright
Encoding: 8250 8250 212
Width: 694
Flags: W
LayerCount: 2
Fore
SplineSet
621 557 m 1,0,-1
 147 86 l 1,1,-1
 147 338 l 1,2,-1
 369 557 l 1,3,-1
 147 774 l 1,4,-1
 147 1026 l 1,5,-1
 621 557 l 1,0,-1
EndSplineSet
Validated: 1
EndChar

StartChar: fi
Encoding: 65558 -1 213
Width: 1194
Flags: W
LayerCount: 2
Fore
SplineSet
1034 1278 m 1,0,-1
 811 1278 l 1,1,-1
 811 1464 l 1,2,-1
 1034 1464 l 1,3,-1
 1034 1278 l 1,0,-1
1026 0 m 1,4,-1
 817 0 l 1,5,-1
 817 1020 l 1,6,-1
 1026 1020 l 1,7,-1
 1026 0 l 1,4,-1
608 860 m 1,8,-1
 403 860 l 1,9,-1
 403 0 l 1,10,-1
 195 0 l 1,11,-1
 195 860 l 1,12,-1
 76 860 l 1,13,-1
 76 1020 l 1,14,-1
 195 1020 l 1,15,-1
 195 1180 l 2,16,17
 195 1257 195 1257 226.5 1323 c 128,-1,18
 258 1389 258 1389 322 1428.5 c 128,-1,19
 386 1468 386 1468 479 1468 c 2,20,-1
 608 1468 l 1,21,-1
 608 1290 l 1,22,-1
 516 1290 l 2,23,24
 403 1290 403 1290 403 1169 c 2,25,-1
 403 1020 l 1,26,-1
 608 1020 l 1,27,-1
 608 860 l 1,8,-1
EndSplineSet
Validated: 1
EndChar

StartChar: fl
Encoding: 65559 -1 214
Width: 1282
Flags: W
LayerCount: 2
Fore
SplineSet
1227 0 m 1,0,-1
 1098 0 l 2,1,2
 956 0 956 0 884.5 81.5 c 128,-1,3
 813 163 813 163 813 287 c 2,4,-1
 813 1458 l 1,5,-1
 1022 1458 l 1,6,-1
 1022 299 l 2,7,8
 1022 237 1022 237 1048 207.5 c 128,-1,9
 1074 178 1074 178 1135 178 c 2,10,-1
 1227 178 l 1,11,-1
 1227 0 l 1,0,-1
608 860 m 1,12,-1
 403 860 l 1,13,-1
 403 0 l 1,14,-1
 195 0 l 1,15,-1
 195 860 l 1,16,-1
 76 860 l 1,17,-1
 76 1020 l 1,18,-1
 195 1020 l 1,19,-1
 195 1180 l 2,20,21
 195 1257 195 1257 226.5 1323 c 128,-1,22
 258 1389 258 1389 322 1428.5 c 128,-1,23
 386 1468 386 1468 479 1468 c 2,24,-1
 608 1468 l 1,25,-1
 608 1290 l 1,26,-1
 516 1290 l 2,27,28
 403 1290 403 1290 403 1169 c 2,29,-1
 403 1020 l 1,30,-1
 608 1020 l 1,31,-1
 608 860 l 1,12,-1
EndSplineSet
Validated: 1
EndChar

StartChar: daggerdbl
Encoding: 8225 8225 215
Width: 1210
Flags: W
LayerCount: 2
Fore
SplineSet
1077 -23 m 1,0,-1
 709 -23 l 1,1,-1
 709 -420 l 1,2,-1
 500 -420 l 1,3,-1
 500 -23 l 1,4,-1
 133 -23 l 1,5,-1
 133 166 l 1,6,-1
 500 166 l 1,7,-1
 500 874 l 1,8,-1
 133 874 l 1,9,-1
 133 1061 l 1,10,-1
 500 1061 l 1,11,-1
 500 1458 l 1,12,-1
 709 1458 l 1,13,-1
 709 1061 l 1,14,-1
 1077 1061 l 1,15,-1
 1077 874 l 1,16,-1
 709 874 l 1,17,-1
 709 166 l 1,18,-1
 1077 166 l 1,19,-1
 1077 -23 l 1,0,-1
EndSplineSet
Validated: 1
EndChar

StartChar: periodcentered
Encoding: 8729 8729 216
Width: 569
Flags: W
LayerCount: 2
Fore
SplineSet
410 444 m 1,0,-1
 160 444 l 1,1,-1
 160 694 l 1,2,-1
 410 694 l 1,3,-1
 410 444 l 1,0,-1
EndSplineSet
Validated: 1
EndChar

StartChar: quotesinglbase
Encoding: 8218 8218 217
Width: 547
Flags: W
LayerCount: 2
Fore
SplineSet
389 0 m 1,0,-1
 160 -188 l 1,1,-1
 160 215 l 1,2,-1
 389 215 l 1,3,-1
 389 0 l 1,0,-1
EndSplineSet
Validated: 1
EndChar

StartChar: quotedblbase
Encoding: 8222 8222 218
Width: 942
Flags: W
LayerCount: 2
Fore
SplineSet
780 0 m 1,0,-1
 551 -188 l 1,1,-1
 551 215 l 1,2,-1
 780 215 l 1,3,-1
 780 0 l 1,0,-1
389 0 m 1,4,-1
 160 -188 l 1,5,-1
 160 215 l 1,6,-1
 389 215 l 1,7,-1
 389 0 l 1,4,-1
EndSplineSet
Validated: 1
EndChar

StartChar: perthousand
Encoding: 8240 8240 219
Width: 2449
Flags: W
LayerCount: 2
Fore
SplineSet
1606 266 m 2,0,1
 1606 138 1606 138 1524.5 62 c 128,-1,2
 1443 -14 1443 -14 1319 -14 c 256,3,4
 1195 -14 1195 -14 1113.5 62 c 128,-1,5
 1032 138 1032 138 1032 266 c 2,6,-1
 1032 473 l 2,7,8
 1032 558 1032 558 1069.5 622 c 128,-1,9
 1107 686 1107 686 1173.5 720 c 128,-1,10
 1240 754 1240 754 1319 754 c 256,11,12
 1398 754 1398 754 1464.5 720 c 128,-1,13
 1531 686 1531 686 1568.5 622 c 128,-1,14
 1606 558 1606 558 1606 473 c 2,15,-1
 1606 266 l 2,0,1
1288 1458 m 1,16,-1
 602 0 l 1,17,-1
 434 0 l 1,18,-1
 1122 1458 l 1,19,-1
 1288 1458 l 1,16,-1
692 985 m 2,20,21
 692 899 692 899 654 836.5 c 128,-1,22
 616 774 616 774 551.5 740.5 c 128,-1,23
 487 707 487 707 406 707 c 0,24,25
 324 707 324 707 259.5 740.5 c 128,-1,26
 195 774 195 774 157 836.5 c 128,-1,27
 119 899 119 899 119 985 c 2,28,-1
 119 1192 l 2,29,30
 119 1277 119 1277 156.5 1341 c 128,-1,31
 194 1405 194 1405 260.5 1439 c 128,-1,32
 327 1473 327 1473 406 1473 c 0,33,34
 529 1473 529 1473 610.5 1396.5 c 128,-1,35
 692 1320 692 1320 692 1192 c 2,36,-1
 692 985 l 2,20,21
1448 272 m 2,37,-1
 1448 467 l 2,38,39
 1448 539 1448 539 1415.5 576.5 c 128,-1,40
 1383 614 1383 614 1319 614 c 0,41,42
 1190 614 1190 614 1190 467 c 2,43,-1
 1190 272 l 2,44,45
 1190 125 1190 125 1319 125 c 0,46,47
 1383 125 1383 125 1415.5 162.5 c 128,-1,48
 1448 200 1448 200 1448 272 c 2,37,-1
535 991 m 2,49,-1
 535 1186 l 2,50,51
 535 1258 535 1258 502.5 1295.5 c 128,-1,52
 470 1333 470 1333 406 1333 c 0,53,54
 276 1333 276 1333 276 1186 c 2,55,-1
 276 991 l 2,56,57
 276 846 276 846 406 846 c 0,58,59
 471 846 471 846 503 883 c 128,-1,60
 535 920 535 920 535 991 c 2,49,-1
2331 266 m 2,61,62
 2331 138 2331 138 2249.5 62 c 128,-1,63
 2168 -14 2168 -14 2044 -14 c 256,64,65
 1920 -14 1920 -14 1838.5 62 c 128,-1,66
 1757 138 1757 138 1757 266 c 2,67,-1
 1757 473 l 2,68,69
 1757 558 1757 558 1794.5 622 c 128,-1,70
 1832 686 1832 686 1898.5 720 c 128,-1,71
 1965 754 1965 754 2044 754 c 256,72,73
 2123 754 2123 754 2189.5 720 c 128,-1,74
 2256 686 2256 686 2293.5 622 c 128,-1,75
 2331 558 2331 558 2331 473 c 2,76,-1
 2331 266 l 2,61,62
2173 272 m 2,77,-1
 2173 467 l 2,78,79
 2173 539 2173 539 2140.5 576.5 c 128,-1,80
 2108 614 2108 614 2044 614 c 0,81,82
 1915 614 1915 614 1915 467 c 2,83,-1
 1915 272 l 2,84,85
 1915 125 1915 125 2044 125 c 0,86,87
 2108 125 2108 125 2140.5 162.5 c 128,-1,88
 2173 200 2173 200 2173 272 c 2,77,-1
EndSplineSet
Validated: 1
EndChar

StartChar: dotlessi
Encoding: 65560 -1 235
Width: 541
Flags: W
LayerCount: 2
Fore
SplineSet
375 0 m 1,0,-1
 166 0 l 1,1,-1
 166 1038 l 1,2,-1
 375 1038 l 1,3,-1
 375 0 l 1,0,-1
EndSplineSet
Validated: 1
EndChar

StartChar: circumflex
Encoding: 710 710 236
Width: 1024
Flags: W
LayerCount: 2
Fore
SplineSet
864 1227 m 1,0,-1
 690 1227 l 1,1,-1
 512 1425 l 1,2,-1
 334 1227 l 1,3,-1
 160 1227 l 1,4,-1
 424 1556 l 1,5,-1
 600 1556 l 1,6,-1
 864 1227 l 1,0,-1
EndSplineSet
Validated: 1
EndChar

StartChar: tilde
Encoding: 732 732 237
Width: 1024
Flags: W
LayerCount: 2
Fore
SplineSet
858 1366 m 1,0,1
 814 1322 814 1322 778 1297 c 128,-1,2
 742 1272 742 1272 711.5 1262.5 c 128,-1,3
 681 1253 681 1253 645 1253 c 0,4,5
 604 1253 604 1253 571.5 1263.5 c 128,-1,6
 539 1274 539 1274 492 1300 c 0,7,8
 426 1339 426 1339 377 1339 c 0,9,10
 346 1339 346 1339 321.5 1328 c 128,-1,11
 297 1317 297 1317 258 1278 c 1,12,-1
 160 1374 l 1,13,14
 224 1438 224 1438 272 1462.5 c 128,-1,15
 320 1487 320 1487 373 1487 c 0,16,17
 442 1487 442 1487 526 1438 c 0,18,19
 590 1399 590 1399 639 1399 c 0,20,21
 668 1399 668 1399 695 1411.5 c 128,-1,22
 722 1424 722 1424 760 1462 c 1,23,-1
 858 1366 l 1,0,1
EndSplineSet
Validated: 1
EndChar

StartChar: macron
Encoding: 175 175 238
Width: 1024
Flags: W
LayerCount: 2
Fore
SplineSet
829 1274 m 1,0,-1
 195 1274 l 1,1,-1
 195 1423 l 1,2,-1
 829 1423 l 1,3,-1
 829 1274 l 1,0,-1
EndSplineSet
Validated: 1
EndChar

StartChar: breve
Encoding: 65561 -1 239
Width: 1024
Flags: W
LayerCount: 2
Fore
SplineSet
850 1505 m 1,0,1
 844 1405 844 1405 801.5 1338.5 c 128,-1,2
 759 1272 759 1272 685.5 1240 c 128,-1,3
 612 1208 612 1208 514 1208 c 0,4,5
 364 1208 364 1208 273.5 1281.5 c 128,-1,6
 183 1355 183 1355 174 1505 c 1,7,-1
 326 1505 l 1,8,9
 335 1436 335 1436 385.5 1398 c 128,-1,10
 436 1360 436 1360 514 1360 c 0,11,12
 591 1360 591 1360 642 1398 c 128,-1,13
 693 1436 693 1436 702 1505 c 1,14,-1
 850 1505 l 1,0,1
EndSplineSet
Validated: 1
EndChar

StartChar: dotaccent
Encoding: 65562 -1 240
Width: 1024
Flags: W
LayerCount: 2
Fore
SplineSet
623 1270 m 1,0,-1
 401 1270 l 1,1,-1
 401 1456 l 1,2,-1
 623 1456 l 1,3,-1
 623 1270 l 1,0,-1
EndSplineSet
Validated: 1
EndChar

StartChar: ring
Encoding: 65563 -1 241
Width: 1024
Flags: W
LayerCount: 2
Fore
SplineSet
768 1436 m 256,0,1
 768 1367 768 1367 733.5 1308 c 128,-1,2
 699 1249 699 1249 640 1214.5 c 128,-1,3
 581 1180 581 1180 512 1180 c 256,4,5
 443 1180 443 1180 384 1214.5 c 128,-1,6
 325 1249 325 1249 290.5 1308 c 128,-1,7
 256 1367 256 1367 256 1436 c 256,8,9
 256 1505 256 1505 290.5 1564 c 128,-1,10
 325 1623 325 1623 384 1657.5 c 128,-1,11
 443 1692 443 1692 512 1692 c 256,12,13
 581 1692 581 1692 640 1657.5 c 128,-1,14
 699 1623 699 1623 733.5 1564 c 128,-1,15
 768 1505 768 1505 768 1436 c 256,0,1
643 1436 m 0,16,17
 643 1490 643 1490 605.5 1527.5 c 128,-1,18
 568 1565 568 1565 512 1565 c 0,19,20
 457 1565 457 1565 419 1527 c 128,-1,21
 381 1489 381 1489 381 1436 c 0,22,23
 381 1384 381 1384 419.5 1345.5 c 128,-1,24
 458 1307 458 1307 512 1307 c 0,25,26
 567 1307 567 1307 605 1345 c 128,-1,27
 643 1383 643 1383 643 1436 c 0,16,17
EndSplineSet
Validated: 1
EndChar

StartChar: cedilla
Encoding: 184 184 242
Width: 1024
Flags: W
LayerCount: 2
Fore
SplineSet
653 -131 m 1,0,-1
 549 -432 l 1,1,-1
 342 -432 l 1,2,-1
 485 -131 l 1,3,-1
 653 -131 l 1,0,-1
EndSplineSet
Validated: 1
EndChar

StartChar: hungarumlaut
Encoding: 65564 -1 243
Width: 1024
Flags: W
LayerCount: 2
Fore
SplineSet
934 1559 m 1,0,-1
 705 1227 l 1,1,-1
 549 1227 l 1,2,-1
 705 1559 l 1,3,-1
 934 1559 l 1,0,-1
555 1559 m 1,4,-1
 328 1227 l 1,5,-1
 170 1227 l 1,6,-1
 324 1559 l 1,7,-1
 555 1559 l 1,4,-1
EndSplineSet
Validated: 1
EndChar

StartChar: ogonek
Encoding: 65565 -1 244
Width: 1024
Flags: W
LayerCount: 2
Fore
SplineSet
674 -432 m 1,0,-1
 467 -432 l 1,1,-1
 362 -131 l 1,2,-1
 530 -131 l 1,3,-1
 674 -432 l 1,0,-1
EndSplineSet
Validated: 1
EndChar

StartChar: caron
Encoding: 65566 -1 245
Width: 1024
Flags: W
LayerCount: 2
Fore
SplineSet
864 1556 m 1,0,-1
 600 1227 l 1,1,-1
 424 1227 l 1,2,-1
 160 1556 l 1,3,-1
 334 1556 l 1,4,-1
 512 1358 l 1,5,-1
 690 1556 l 1,6,-1
 864 1556 l 1,0,-1
EndSplineSet
Validated: 1
EndChar
